SplineFontDB: 3.0
FontName: AnkaCoder-C75-r
FullName: Anka/Coder Narrow Regular
FamilyName: Anka/Coder Narrow
Weight: Book
Copyright: Copyright (c) 2010, Andrey Makarov (makarov@bmstu.ru, mka-at-mailru@mail.ru),\nwith Reserved Font Name Anka/Coder Narrow.\n---------------------------------\nThe Anka/* are members of Anna Shugol name font family; March 2010
Version: 001.100
ItalicAngle: 0
UnderlinePosition: -292
UnderlineWidth: 150
Ascent: 1638
Descent: 410
LayerCount: 2
Layer: 0 0 "Back"  1
Layer: 1 0 "Fore"  0
XUID: [1021 77 1780377344 11944487]
UseXUID: 1
BaseHoriz: 0
FSType: 8
OS2Version: 1
OS2_WeightWidthSlopeOnly: 0
OS2_UseTypoMetrics: 1
CreationTime: 1260467214
ModificationTime: 1351165366
PfmFamily: 49
TTFWeight: 400
TTFWidth: 3
LineGap: 0
VLineGap: 0
Panose: 2 11 5 9 2 5 2 2 2 4
OS2TypoAscent: 0
OS2TypoAOffset: 1
OS2TypoDescent: 0
OS2TypoDOffset: 1
OS2TypoLinegap: 0
OS2WinAscent: 0
OS2WinAOffset: 1
OS2WinDescent: 0
OS2WinDOffset: 1
HheadAscent: 0
HheadAOffset: 1
HheadDescent: 0
HheadDOffset: 1
OS2SubXSize: 553
OS2SubYSize: 1229
OS2SubXOff: 0
OS2SubYOff: 283
OS2SupXSize: 553
OS2SupYSize: 1229
OS2SupXOff: 0
OS2SupYOff: 977
OS2StrikeYSize: 102
OS2StrikeYPos: 530
OS2FamilyClass: 1285
OS2Vendor: 'AVM1'
OS2CodePages: 40000097.cfd60000
OS2UnicodeRanges: 800002ef.000079eb.00000000.00000000
MacStyle: 0
DEI: 91125
ShortTable: maxp 16
  0
  0
  0
  0
  0
  0
  0
  2
  1
  0
  9
  0
  256
  0
  0
  0
EndShort
TtTable: prep
PUSHW_1
 511
SCANCTRL
SVTCA[y-axis]
MPPEM
PUSHB_1
 8
LT
IF
PUSHB_2
 1
 1
INSTCTRL
EIF
PUSHB_2
 70
 6
CALL
IF
POP
PUSHB_1
 16
EIF
MPPEM
PUSHB_1
 20
GT
IF
POP
PUSHB_1
 128
EIF
SCVTCI
PUSHB_1
 6
CALL
NOT
IF
EIF
EndTTInstrs
TtTable: fpgm
PUSHB_1
 0
FDEF
PUSHB_1
 0
SZP0
MPPEM
PUSHB_1
 42
LT
IF
PUSHB_1
 74
SROUND
EIF
PUSHB_1
 0
SWAP
MIAP[rnd]
RTG
PUSHB_1
 6
CALL
IF
RTDG
EIF
MPPEM
PUSHB_1
 42
LT
IF
RDTG
EIF
DUP
MDRP[rp0,rnd,grey]
PUSHB_1
 1
SZP0
MDAP[no-rnd]
RTG
ENDF
PUSHB_1
 1
FDEF
DUP
DUP
MDRP[rp0,min,white]
MDAP[rnd]
PUSHB_1
 7
CALL
NOT
IF
DUP
DUP

StartChar: exclam
Encoding: 33 33 1
Width: 922
VWidth: 1708
GlyphClass: 2
Flags: W
HStem: -16 282<351.56 569.337> 1398 20G<435 483.5>
VStem: 311 299<26.51 223.625> 365 194<749.219 1401.72> 389 146<384 925.184>
LayerCount: 2
Fore
SplineSet
458 1418 m 0xd0
 509 1418 559 1387 559 1290 c 1xd0
 535 384 l 1
 389 384 l 1xc8
 365 1291 l 1
 365 1387 412 1418 458 1418 c 0xd0
610 125 m 3xe0
 610 42 539 -16 460 -16 c 3
 383 -16 311 44 311 125 c 3
 311 200 376 266 460 266 c 3
 538 266 610 209 610 125 c 3xe0
EndSplineSet
Validated: 3073
EndChar

StartChar: quotedbl
Encoding: 34 34 2
Width: 922
VWidth: 1708
GlyphClass: 2
Flags: W
HStem: 953 512<85 231 647 790>
LayerCount: 2
Fore
SplineSet
161 1001 m 2
 141 968 111 953 85 953 c 3
 50 953 20 980 20 1027 c 3
 20 1036 23 1048 26 1058 c 2
 104 1377 l 2
 116 1429 176 1465 231 1465 c 3
 302 1465 343 1401 343 1342 c 3
 343 1321 338 1300 327 1283 c 2
 161 1001 l 2
720 1001 m 2
 700 968 673 953 647 953 c 3
 612 953 579 980 579 1027 c 3
 579 1036 582 1048 584 1058 c 2
 662 1377 l 2
 676 1429 735 1465 790 1465 c 3
 861 1465 902 1401 902 1342 c 3
 902 1321 896 1300 886 1283 c 2
 720 1001 l 2
EndSplineSet
Validated: 3073
EndChar

StartChar: numbersign
Encoding: 35 35 3
Width: 922
VWidth: 1708
GlyphClass: 2
Flags: W
HStem: 0 21G<111 264.639 481 634.639> 341 150<41 156 327 526 697 813> 898 150<114 230 400 600 770 886>
LayerCount: 2
Fore
SplineSet
327 491 m 1
 546 491 l 1
 600 898 l 1
 380 898 l 1
 327 491 l 1
262 0 m 1
 111 0 l 1
 156 341 l 1
 21 341 l 1
 41 491 l 1
 176 491 l 1
 230 898 l 1
 94 898 l 1
 114 1048 l 1
 250 1048 l 1
 290 1350 l 1
 440 1350 l 1
 400 1048 l 1
 620 1048 l 1
 660 1350 l 1
 810 1350 l 1
 770 1048 l 1
 906 1048 l 1
 886 898 l 1
 750 898 l 1
 697 491 l 1
 833 491 l 1
 813 341 l 1
 677 341 l 1
 632 0 l 1
 481 0 l 1
 526 341 l 1
 307 341 l 1
 262 0 l 1
EndSplineSet
Validated: 3073
EndChar

StartChar: dollar
Encoding: 36 36 4
Width: 922
VWidth: 2334
GlyphClass: 2
Flags: W
HStem: -20 152<286.531 386> 1264 155<316.363 386 536 636.578>
VStem: 64 150<201.562 325> 113 150<933.197 1208.76> 386 150<-93 -12.9586 136 636 881 1264 1415.16 1494> 685 150<213.25 541.023 1063 1211.29>
LayerCount: 2
Fore
SplineSet
386 881 m 1xdc
 386 1264 l 1
 308 1239 263 1170 263 1063 c 2
 263 1033 l 2
 263 989 293 928 354 897 c 2
 386 881 l 1xdc
536 636 m 1
 536 136 l 1
 619 165 685 246 685 337 c 2
 685 367 l 2
 685 491 637 585 536 636 c 1
536 -93 m 1
 386 -93 l 1
 386 -20 l 1
 218 3 64 116 64 325 c 1
 214 325 l 1xec
 214 209 295 150 386 132 c 1
 386 712 l 1
 286 763 l 2
 183 816 113 925 113 1033 c 2
 113 1063 l 2
 113 1268 231 1391 386 1419 c 1
 386 1494 l 1
 536 1494 l 1
 536 1421 l 1
 737 1396 831 1272 831 1063 c 1
 681 1063 l 1
 681 1135 680 1243 536 1269 c 1
 536 804 l 1
 618 762 l 2
 772 683 835 526 835 367 c 2
 835 337 l 2
 835 161 700 12 536 -20 c 1
 536 -93 l 1
EndSplineSet
Validated: 3073
EndChar

StartChar: percent
Encoding: 37 37 5
Width: 922
VWidth: 1708
GlyphClass: 2
Flags: W
HStem: 0 150<609.334 742.715> 376 150<607.461 739.553> 882 150<186.334 319.715> 1258 150<184.461 316.553>
VStem: 17 150<1046.77 1242.74> 337 150<1045.05 1243.44> 440 150<164.772 360.744> 760 150<163.047 361.439>
LayerCount: 2
Fore
SplineSet
910 263 m 27xfb
 910 125 813 0 675 0 c 27
 532 0 440 88 440 263 c 27
 440 473 592 526 675 526 c 27
 879 526 910 355 910 263 c 27xfb
760 263 m 27
 760 318 730 376 675 376 c 27
 620 376 590 318 590 263 c 27
 590 208 620 150 675 150 c 27
 730 150 760 208 760 263 c 27
768 1363 m 1
 896 1287 l 1
 154 38 l 1
 26 114 l 1
 768 1363 l 1
487 1145 m 27xfd
 487 1007 390 882 252 882 c 27
 109 882 17 970 17 1145 c 27
 17 1355 169 1408 252 1408 c 27
 456 1408 487 1237 487 1145 c 27xfd
337 1145 m 27
 337 1200 307 1258 252 1258 c 27
 197 1258 167 1200 167 1145 c 27
 167 1090 197 1032 252 1032 c 27
 307 1032 337 1090 337 1145 c 27
EndSplineSet
Validated: 3073
EndChar

StartChar: ampersand
Encoding: 38 38 6
Width: 922
VWidth: 2334
GlyphClass: 2
Flags: W
HStem: -25 150<291.039 570.695> 1275 150<365.284 568.995>
VStem: 64 150<201.688 516.04> 194 150<984.782 1255.73> 591 150<1030.74 1252.35>
LayerCount: 2
Fore
SplineSet
620 229 m 1xe8
 392 660 l 1
 320 589 l 2
 236 506 214 443 214 367 c 2
 214 337 l 2
 214 192 317 125 429 125 c 2
 447 125 l 2
 529 125 584 163 620 229 c 1xe8
697 83 m 1
 634 14 549 -25 447 -25 c 2
 429 -25 l 2
 233 -25 64 110 64 337 c 2
 64 367 l 2xe8
 64 511 129 612 208 689 c 2
 318 797 l 1
 274 870 194 1017 194 1140 c 2
 194 1162 l 2xd8
 194 1197 222 1325 300 1383 c 1
 350 1416 406 1425 452 1425 c 2
 471 1425 l 2
 633 1425 741 1313 741 1157 c 2
 741 1118 l 18
 741 1044 694 957 620 885 c 2
 503 770 l 1
 690 416 l 1
 761 615 l 1
 903 565 l 1
 785 236 l 1
 886 45 l 1
 754 -25 l 1
 697 83 l 1
452 1275 m 2
 369 1275 344 1208 344 1162 c 2
 344 1140 l 2xd8
 344 1091 370 1010 428 906 c 1
 516 993 l 2
 550 1026 591 1097 591 1118 c 2
 591 1157 l 2
 591 1222 557 1275 471 1275 c 2
 452 1275 l 2
EndSplineSet
Validated: 3073
EndChar

StartChar: quotesingle
Encoding: 39 39 7
Width: 922
VWidth: 1708
GlyphClass: 2
Flags: W
HStem: 953 512<366 510>
VStem: 300 322
LayerCount: 2
Fore
SplineSet
440 1001 m 2
 421 968 392 953 366 953 c 3
 331 953 300 980 300 1027 c 3
 300 1036 301 1048 304 1058 c 2
 383 1377 l 2
 396 1429 456 1465 510 1465 c 3
 582 1465 622 1401 622 1342 c 3
 622 1321 617 1300 607 1283 c 2
 440 1001 l 2
EndSplineSet
Validated: 3073
EndChar

StartChar: parenleft
Encoding: 40 40 8
Width: 922
VWidth: 1708
GlyphClass: 2
Flags: W
VStem: 275 150<452.654 982.59>
LayerCount: 2
Fore
SplineSet
425 722 m 3
 425 403 598 129 787 -21 c 1
 693 -139 l 1
 477 33 275 347 275 722 c 3
 275 1084 478 1403 700 1543 c 1
 780 1417 l 1
 597 1302 425 1026 425 722 c 3
EndSplineSet
Validated: 3073
EndChar

StartChar: parenright
Encoding: 41 41 9
Width: 922
VWidth: 1708
GlyphClass: 2
Flags: W
VStem: 497 150<452.562 982.59>
LayerCount: 2
Fore
SplineSet
647 722 m 3
 647 347 446 33 229 -139 c 1
 135 -21 l 1
 323 128 497 403 497 722 c 3
 497 1026 325 1302 142 1417 c 1
 222 1543 l 1
 444 1403 647 1084 647 722 c 3
EndSplineSet
Validated: 3073
EndChar

StartChar: asterisk
Encoding: 42 42 10
Width: 922
VWidth: 1708
GlyphClass: 2
Flags: W
HStem: 641 147<45.9975 135.621 786.379 876.002> 1020 20G<440.5 481.5>
VStem: 386 150<703 1033.31>
LayerCount: 2
Fore
SplineSet
736 349 m 2
 746 336 750 321 750 305 c 3
 750 282 740 258 720 244 c 0
 707 235 692 230 677 230 c 3
 653 230 630 241 615 261 c 2
 461 472 l 1
 307 261 l 2
 292 241 269 230 245 230 c 3
 230 230 215 235 202 244 c 0
 182 258 172 282 172 305 c 3
 172 321 176 336 186 349 c 2
 340 561 l 1
 91 641 l 2
 60 651 39 681 39 713 c 3
 39 721 40 728 43 736 c 0
 53 767 83 788 114 788 c 3
 122 788 129 787 137 784 c 2
 386 703 l 1
 386 965 l 2
 386 1006 420 1040 461 1040 c 3
 502 1040 536 1006 536 965 c 2
 536 703 l 1
 785 784 l 2
 793 787 800 788 808 788 c 3
 839 788 869 767 879 736 c 0
 882 728 883 721 883 713 c 3
 883 681 862 651 831 641 c 2
 582 561 l 1
 736 349 l 2
EndSplineSet
Validated: 3073
EndChar

StartChar: plus
Encoding: 43 43 11
Width: 922
VWidth: 1708
GlyphClass: 2
Flags: W
HStem: 525 150<50 386 536 872>
VStem: 386 150<157 525 675 1011>
LayerCount: 2
Fore
SplineSet
872 675 m 1
 872 525 l 1
 536 525 l 1
 536 157 l 1
 386 157 l 1
 386 525 l 1
 50 525 l 1
 50 675 l 1
 386 675 l 1
 386 1011 l 1
 536 1011 l 1
 536 675 l 1
 872 675 l 1
EndSplineSet
Validated: 3073
EndChar

StartChar: comma
Encoding: 44 44 12
Width: 922
VWidth: 1947
GlyphClass: 2
Flags: W
HStem: -315 55<305.09 340.286>
VStem: 438 169<-153.703 105>
LayerCount: 2
Fore
SplineSet
607 65 m 27
 607 -123 539 -289 309 -315 c 1
 294 -260 l 1
 346 -241 438 -182 438 -116 c 3
 438 -94 432 -58 404 -50 c 0
 340 -32 314 17 314 65 c 3
 314 141 373 210 460 210 c 3
 545 210 607 145 607 65 c 27
EndSplineSet
Validated: 3073
EndChar

StartChar: hyphen
Encoding: 45 45 13
Width: 922
VWidth: 1708
GlyphClass: 2
Flags: W
HStem: 525 150<50 872>
LayerCount: 2
Fore
SplineSet
872 675 m 1
 872 525 l 1
 50 525 l 1
 50 675 l 1
 872 675 l 1
EndSplineSet
Validated: 3073
EndChar

StartChar: period
Encoding: 46 46 14
Width: 922
VWidth: 1708
GlyphClass: 2
Flags: W
HStem: -86 44<468 475 478 484 487 492 494 499 503 507 510 512.872> -28 6<471 476> -20 2<472 474> -16 2<471 474>
VStem: 446 4<-22 -16 -14 -12> 456 2<-22 -14> 460 2<-22 -14> 464 2<-22 -14> 468 2<-20 -18> 470 8<-34 -30> 472 2<-20 -18> 476 2<-40 -36 -30 -28> 484 2<-40 -34> 488 2<-40 -32> 492 2<-40 -34> 496 2<-40 -34> 500 2<-40 -34> 504 2<-40 -34> 508 2<-40 -34>
LayerCount: 2
Fore
SplineSet
514 -40 m 25xff8fe0
 512 -40 l 25
 512 -28 l 25
 510 -28 l 25
 510 -42 l 25
 514 -42 l 25
 514 -40 l 25xff8fe0
506 -40 m 9
 504 -40 l 17
 504 -34 l 9
 506 -34 l 1
 506 -40 l 9
444 -22 m 9
 446 -22 l 25
 446 -16 l 25
 450 -16 l 25
 450 -22 l 25
 452 -22 l 25
 452 -8 l 25
 446 -8 l 17
 444 -12 l 1
 444 -22 l 9
447 -10 m 9
 450 -10 l 25
 450 -14 l 25
 446 -14 l 17
 446 -12 l 1
 447 -10 l 9
458 -14 m 25
 458 -22 l 25
 460 -22 l 17
 460 -14 l 1
 459 -12 l 9
 454 -12 l 17
 454 -22 l 9
 456 -22 l 17
 456 -14 l 9
 458 -14 l 25
466 -14 m 25
 466 -22 l 25
 468 -22 l 17
 468 -14 l 1
 467 -12 l 9
 462 -12 l 17
 462 -22 l 9
 464 -22 l 25
 464 -14 l 25
 466 -14 l 25
472 -18 m 25xffafe0
 474 -18 l 25
 474 -20 l 25
 472 -20 l 25
 472 -18 l 25xffafe0
471 -22 m 9
 476 -22 l 17
 476 -14 l 1xffbfe0
 475 -12 l 9
 470 -12 l 25
 470 -14 l 25
 474 -14 l 25
 474 -16 l 25
 471 -16 l 17
 470 -18 l 1
 470 -20 l 1
 471 -22 l 9
482 -34 m 25
 482 -42 l 25
 484 -42 l 17
 484 -34 l 1
 483 -32 l 1
 480 -32 l 1
 480 -28 l 1
 478 -28 l 9
 478 -42 l 25
 480 -42 l 25
 480 -34 l 25
 482 -34 l 25
475 -34 m 1
 470 -34 l 25
 470 -30 l 25
 476 -30 l 1
 476 -28 l 9
 469 -28 l 17
 468 -30 l 1
 468 -34 l 1
 469 -36 l 9
 474 -36 l 17
 474 -40 l 1
 468 -40 l 1
 468 -42 l 9
 475 -42 l 17
 476 -40 l 1
 476 -36 l 1
 475 -34 l 1
490 -40 m 25
 488 -40 l 25
 488 -32 l 25
 486 -32 l 17
 486 -40 l 1
 487 -42 l 9
 492 -42 l 25
 492 -32 l 25
 490 -32 l 25
 490 -40 l 25
496 -40 m 25
 496 -34 l 25
 498 -34 l 25
 498 -40 l 25
 496 -40 l 25
495 -32 m 17
 494 -34 l 1
 494 -40 l 1
 495 -42 l 9
 498 -42 l 25
 498 -44 l 25
 494 -44 l 25
 494 -46 l 25
 499 -46 l 17
 500 -44 l 1
 500 -32 l 9
 495 -32 l 17
503 -32 m 17
 502 -34 l 1
 502 -40 l 1
 503 -42 l 9
 507 -42 l 17
 508 -40 l 1
 508 -34 l 1
 507 -32 l 9
 503 -32 l 17
607 59 m 3
 607 -19 547 -86 460 -86 c 3
 377 -86 314 -20 314 59 c 3
 314 136 373 204 460 204 c 7
 545 204 607 138 607 59 c 3
EndSplineSet
Validated: 3073
EndChar

StartChar: slash
Encoding: 47 47 15
Width: 922
VWidth: 1708
GlyphClass: 2
Flags: W
LayerCount: 2
Fore
SplineSet
670 1452 m 1
 810 1400 l 1
 252 -52 l 1
 112 0 l 1
 670 1452 l 1
EndSplineSet
Validated: 3073
EndChar

StartChar: zero
Encoding: 48 48 16
Width: 922
VWidth: 1708
GlyphClass: 2
Flags: W
HStem: -25 150<360.173 570.234> -10 21G<70.0238 91.2934> 1275 150<351.039 571.684>
VStem: 97 150<526.977 1125.48> 675 150<287.091 882.078>
LayerCount: 2
Fore
SplineSet
461 1275 m 3x38
 314 1275 247 1122 247 732 c 3
 247 656 250 586 255 524 c 1
 639 1104 l 1
 605 1224 547 1275 461 1275 c 3x38
825 732 m 3
 825 367 787 -25 461 -25 c 3xb8
 328 -25 243 50 189 157 c 1
 78 -10 l 1x78
 11 158 l 1
 130 336 l 1
 101 475 97 626 97 732 c 3
 97 1037 133 1425 461 1425 c 3
 600 1425 685 1356 739 1254 c 1
 850 1421 l 1
 912 1246 l 1
 799 1075 l 1
 821 965 825 843 825 732 c 3
671 883 m 1
 290 309 l 1
 324 189 380 125 461 125 c 3
 606 125 675 273 675 732 c 3
 675 787 674 837 671 883 c 1
EndSplineSet
Validated: 3073
EndChar

StartChar: one
Encoding: 49 49 17
Width: 922
VWidth: 1708
GlyphClass: 2
Flags: W
HStem: -0 21G<485 635> 1405 20G<530 635>
VStem: 485 150<0 1083>
LayerCount: 2
Fore
SplineSet
635 1425 m 1
 635 0 l 1
 485 -0 l 1
 485 1083 l 1
 294 966 l 1
 240 1024 l 1
 530 1423 l 1
 532 1425 l 1
 635 1425 l 1
EndSplineSet
Validated: 3073
EndChar

StartChar: two
Encoding: 50 50 18
Width: 922
VWidth: 2334
GlyphClass: 2
Flags: W
HStem: 0 150<287 832> 1275 150<311.759 630.234>
VStem: 665 150<954.846 1242.71>
LayerCount: 2
Fore
SplineSet
452 1425 m 2
 470 1425 l 2
 685 1425 815 1340 815 1144 c 2
 815 1104 l 2
 815 1055 771 896 710 810 c 2
 382 344 l 2
 333 275 304 208 287 150 c 1
 832 150 l 1
 832 0 l 1
 140 0 l 1
 140 188 l 1
 184 308 237 401 254 424 c 2
 588 898 l 2
 654 991 665 1079 665 1104 c 2
 665 1144 l 2
 665 1252 587 1275 470 1275 c 2
 452 1275 l 2
 333 1275 298 1237 262 1152 c 1
 124 1210 l 1
 176 1334 255 1425 452 1425 c 2
EndSplineSet
Validated: 3073
EndChar

StartChar: three
Encoding: 51 51 19
Width: 922
VWidth: 2334
GlyphClass: 2
Flags: W
HStem: -25 150<317.249 584.74> 734 150<302 551.234> 1275 150<318.606 585.902>
VStem: 107 150<186.875 305> 620 150<960.27 1240.45> 665 150<218.541 659.984>
LayerCount: 2
Fore
SplineSet
452 1425 m 2xf8
 470 1425 l 2
 650 1425 770 1317 770 1113 c 2
 770 1072 l 2xf8
 770 1008 733 875 669 815 c 1
 769 731 815 630 815 467 c 2
 815 447 l 2
 815 223 746 -25 470 -25 c 2
 452 -25 l 2
 278 -25 107 91 107 305 c 1
 257 305 l 1
 257 160 382 125 452 125 c 2
 470 125 l 2
 587 125 665 214 665 447 c 2
 665 467 l 2xf4
 665 604 626 734 470 734 c 2
 302 734 l 1
 302 884 l 1
 471 884 l 2
 560 884 620 1033 620 1072 c 2
 620 1113 l 2
 620 1224 569 1275 470 1275 c 2
 452 1275 l 2
 370 1275 297 1235 270 1164 c 1
 130 1216 l 1
 183 1357 322 1425 452 1425 c 2xf8
EndSplineSet
Validated: 3073
EndChar

StartChar: four
Encoding: 52 52 20
Width: 922
VWidth: 1708
GlyphClass: 2
Flags: W
HStem: -0 21G<597 747> 352 150<292 597 747 830> 1405 20G<615.039 747>
VStem: 597 150<0 352 502 1059>
LayerCount: 2
Fore
SplineSet
597 1059 m 1
 292 502 l 1
 597 502 l 1
 597 1059 l 1
90 447 m 1
 626 1425 l 1
 747 1425 l 1
 747 502 l 1
 830 502 l 1
 830 352 l 1
 747 352 l 1
 747 0 l 1
 597 -0 l 1
 597 352 l 1
 90 352 l 1
 90 447 l 1
EndSplineSet
Validated: 3073
EndChar

StartChar: five
Encoding: 53 53 21
Width: 922
VWidth: 2334
GlyphClass: 2
Flags: W
HStem: -25 150<292.506 596.671> 804 150<362.896 580.043> 1250 150<339 774>
VStem: 665 150<203.659 704.762>
LayerCount: 2
Fore
SplineSet
470 804 m 2
 448 804 l 2
 419 804 323 763 279 627 c 1
 133 741 l 1
 205 1400 l 1
 774 1400 l 1
 774 1250 l 1
 339 1250 l 1
 302 902 l 1
 363 942 422 954 452 954 c 2
 470 954 l 2
 709 954 815 734 815 487 c 2
 815 427 l 2
 815 33 608 -25 470 -25 c 2
 402 -25 l 2
 282 -25 142 58 84 198 c 1
 213 286 l 1
 238 180 339 125 402 125 c 2
 470 125 l 2
 576 125 665 173 665 427 c 2
 665 487 l 2
 665 624 626 804 470 804 c 2
EndSplineSet
Validated: 3073
EndChar

StartChar: six
Encoding: 54 54 22
Width: 922
VWidth: 2334
GlyphClass: 2
Flags: W
HStem: -25 150<338.848 584.275> 804 150<341.957 589.401> 1275 150<343.38 631.798>
VStem: 107 150<221.488 708.316 888 1171.11> 665 150<211.785 715.974>
LayerCount: 2
Fore
SplineSet
257 487 m 2
 257 427 l 2
 257 292 296 125 452 125 c 2
 470 125 l 2
 626 125 665 284 665 427 c 2
 665 487 l 2
 665 726 587 804 470 804 c 2
 452 804 l 2
 296 804 257 624 257 487 c 2
452 954 m 2
 470 954 l 2
 608 954 815 885 815 487 c 2
 815 427 l 2
 815 155 692 -25 470 -25 c 2
 452 -25 l 2
 255 -25 107 132 107 427 c 2
 107 974 l 2
 108 1235 245 1425 452 1425 c 2
 470 1425 l 2
 618 1425 732 1386 786 1261 c 1
 648 1203 l 1
 627 1253 582 1275 470 1275 c 2
 452 1275 l 2
 296 1275 258 1083 257 974 c 2
 257 888 l 1
 308 930 373 954 452 954 c 2
EndSplineSet
Validated: 3073
EndChar

StartChar: seven
Encoding: 55 55 23
Width: 922
VWidth: 1708
GlyphClass: 2
Flags: W
HStem: -0 21G<190 386> 1250 150<90 623>
VStem: 190 153<0 181.216>
LayerCount: 2
Fore
SplineSet
190 -0 m 1
 271 434 434 834 623 1250 c 1
 90 1250 l 1
 90 1400 l 1
 832 1400 l 1
 832 1346 l 1
 808 1294 l 2
 604 851 429 439 343 -0 c 1
 292 0 241 0 190 -0 c 1
EndSplineSet
Validated: 3073
EndChar

StartChar: eight
Encoding: 56 56 24
Width: 922
VWidth: 2334
GlyphClass: 2
Flags: W
HStem: -25 150<328.52 590.923> 734 150<350.947 575.038> 1275 150<352.177 578.896>
VStem: 107 150<203.133 638.112> 152 150<933.548 1225.62> 620 150<928.559 1232.89> 665 150<201.547 652.606>
LayerCount: 2
Fore
SplineSet
451 884 m 2xec
 471 884 l 2
 563 884 620 962 620 1033 c 2
 620 1105 l 2
 620 1224 560 1275 470 1275 c 2
 452 1275 l 2
 378 1275 302 1212 302 1106 c 2
 302 1030 l 2
 302 1009 337 884 451 884 c 2xec
770 1105 m 2
 770 1033 l 2xec
 770 954 736 868 678 814 c 1
 755 750 815 641 815 427 c 2
 815 375 l 2
 815 112 647 -25 470 -25 c 2
 452 -25 l 2
 267 -25 107 109 107 375 c 2
 107 427 l 2xf2
 107 590 154 731 253 815 c 1
 206 858 152 951 152 1034 c 2
 152 1106 l 2
 152 1307 277 1425 452 1425 c 2
 470 1425 l 2
 633 1425 770 1347 770 1105 c 2
471 734 m 2
 451 734 l 2
 296 733 257 564 257 427 c 2
 257 375 l 2
 257 206 337 125 452 125 c 2
 470 125 l 2
 594 125 665 214 665 375 c 2
 665 427 l 2xf2
 665 665 587 734 471 734 c 2
EndSplineSet
Validated: 3073
EndChar

StartChar: nine
Encoding: 57 57 25
Width: 922
VWidth: 2334
GlyphClass: 2
Flags: W
HStem: -25 150<296.606 582.125> 478 150<346.895 594.566> 1275 150<326.784 581.305>
VStem: 107 150<729.579 1194.66> 665 150<218.149 533 707.082 1182>
LayerCount: 2
Fore
SplineSet
665 930 m 2
 665 1005 l 2
 665 1192 573 1275 470 1275 c 2
 452 1275 l 2
 335 1275 257 1206 257 1005 c 2
 257 930 l 2
 257 702 366 628 459 628 c 2
 470 628 l 2
 576 628 665 677 665 930 c 2
445 478 m 2
 321 478 107 568 107 930 c 2
 107 1005 l 2
 107 1299 245 1425 452 1425 c 2
 470 1425 l 2
 684 1425 815 1269 815 1005 c 2
 815 411 l 2
 815 63 608 -25 470 -25 c 2
 452 -25 l 2
 306 -25 190 14 137 139 c 1
 275 197 l 1
 296 147 343 125 452 125 c 2
 470 125 l 2
 579 125 665 213 665 411 c 2
 665 533 l 1
 602 489 530 478 470 478 c 2
 445 478 l 2
EndSplineSet
Validated: 3073
EndChar

StartChar: less
Encoding: 60 60 28
Width: 922
VWidth: 1708
GlyphClass: 2
Flags: W
LayerCount: 2
Fore
SplineSet
90 636 m 1
 832 1247 l 1
 832 1052 l 1
 282 600 l 1
 832 148 l 1
 832 -47 l 1
 90 564 l 1
 90 636 l 1
EndSplineSet
Validated: 3073
EndChar

StartChar: equal
Encoding: 61 61 29
Width: 922
VWidth: 1708
GlyphClass: 2
Flags: W
HStem: 325 150<50 872> 767 150<50 872>
LayerCount: 2
Fore
SplineSet
872 917 m 1
 872 767 l 1
 50 767 l 1
 50 917 l 1
 872 917 l 1
872 475 m 1
 872 325 l 1
 50 325 l 1
 50 475 l 1
 872 475 l 1
EndSplineSet
Validated: 3073
EndChar

StartChar: greater
Encoding: 62 62 30
Width: 922
VWidth: 1708
GlyphClass: 2
Flags: W
LayerCount: 2
Fore
SplineSet
90 1247 m 1
 832 636 l 1
 832 564 l 1
 90 -47 l 1
 90 148 l 1
 640 600 l 1
 90 1052 l 1
 90 1247 l 1
EndSplineSet
Validated: 3073
EndChar

StartChar: question
Encoding: 63 63 31
Width: 922
VWidth: 1708
GlyphClass: 2
Flags: W
HStem: -117 253<365.137 557.761> 1275 150<316.778 607.409>
VStem: 107 150<1096 1215.65> 335 252<-87.0688 105.662> 386 150<380 608.412> 665 150<903.008 1220.43>
LayerCount: 2
Fore
SplineSet
386 480 m 2xec
 386 534 398 625 474 720 c 2
 605 882 l 2
 659 948 665 996 665 1024 c 2
 665 1095 l 2
 665 1182 626 1275 470 1275 c 2
 452 1275 l 2
 296 1275 258 1180 257 1094 c 1
 107 1096 l 1
 108 1294 240 1425 452 1425 c 2
 470 1425 l 2
 687 1425 815 1288 815 1095 c 2
 815 1024 l 2
 815 931 772 853 721 788 c 2
 592 626 l 2
 556 581 536 533 536 480 c 2
 536 380 l 1
 386 380 l 1
 386 480 l 2xec
587 9 m 3xf4
 587 -57 535 -117 461 -117 c 3
 388 -117 335 -59 335 9 c 3
 335 75 384 136 461 136 c 3
 535 136 587 78 587 9 c 3xf4
EndSplineSet
Validated: 3073
EndChar

StartChar: at
Encoding: 64 64 32
Width: 922
VWidth: 1708
GlyphClass: 2
Flags: W
HStem: -25 150<357.187 668.914> 360 150<528.791 685.355> 926 150<545.506 705> 1275 150<341.849 623.901>
VStem: 37 150<386.537 1051.38> 363 150<523.493 901.209> 705 150<340 382 524.323 926 1076 1194.61>
LayerCount: 2
Fore
SplineSet
611 510 m 27
 673 510 699 555 705 639 c 1
 705 926 l 1
 668 926 611 926 611 926 c 2
 552 926 513 855 513 734 c 3
 513 560 516 510 611 510 c 27
363 734 m 3
 363 899 420 1076 611 1076 c 2
 611 1076 656 1076 705 1076 c 1
 699 1235 570 1275 461 1275 c 3
 242 1275 187 948 187 732 c 3
 187 378 297 125 461 125 c 3
 526 125 631 126 687 183 c 1
 793 77 l 1
 707 -10 586 -25 461 -25 c 3
 207 -25 37 240 37 732 c 3
 37 1053 117 1425 461 1425 c 3
 698 1425 850 1286 855 1076 c 1
 855 340 l 1
 705 340 l 1
 705 382 l 1
 677 368 649 360 611 360 c 3
 417 360 363 531 363 734 c 3
EndSplineSet
Validated: 3073
EndChar

StartChar: B
Encoding: 66 66 33
Width: 922
VWidth: 1947
GlyphClass: 2
Flags: W
HStem: 0 150<257 615.125> 712 150<257 583.645> 1250 150<257 590.761>
VStem: 107 150<150 712 862 1250> 615 150<893.043 1225.72> 665 150<205.031 662.831>
LayerCount: 2
Fore
SplineSet
420 1400 m 2xf4
 544 1400 765 1397 765 1095 c 2
 765 1024 l 2xf8
 765 918 738 846 692 798 c 1
 765 743 815 657 815 495 c 2
 815 347 l 2
 815 139 707 0 470 0 c 2
 107 0 l 1
 107 1400 l 1
 420 1400 l 2xf4
665 347 m 2xf4
 665 495 l 2
 665 674 597 712 470 712 c 2
 257 712 l 1
 257 150 l 1
 470 150 l 2
 613 150 665 214 665 347 c 2xf4
615 1095 m 2xf8
 615 1232 573 1250 420 1250 c 2
 257 1250 l 1
 257 862 l 1
 420 862 l 2
 580 862 615 903 615 1024 c 2
 615 1095 l 2xf8
EndSplineSet
Validated: 3073
EndChar

StartChar: C
Encoding: 67 67 34
Width: 922
VWidth: 1947
GlyphClass: 2
Flags: W
HStem: -25 150<363.207 586.522> 1275 150<349.685 595.883>
VStem: 97 150<310.229 1121.87> 660 146<211.281 299.01 1094.04 1206.27>
LayerCount: 2
Fore
SplineSet
487 -25 m 2
 456 -25 l 2
 312 -25 97 71 97 696 c 2
 97 763 l 2
 97 1042 140 1425 455 1425 c 2
 487 1425 l 2
 751 1425 803 1158 816 1095 c 1
 670 1065 l 1
 633 1244 560 1275 487 1275 c 2
 455 1275 l 2
 316 1275 247 1114 247 763 c 2
 247 696 l 2
 247 486 274 125 456 125 c 2
 487 125 l 2
 529 125 613 135 660 332 c 1
 806 298 l 1
 736 -1 564 -25 487 -25 c 2
EndSplineSet
Validated: 3073
EndChar

StartChar: D
Encoding: 68 68 35
Width: 922
VWidth: 1947
GlyphClass: 2
Flags: W
HStem: 0 150<257 564.113> 1250 150<257 577.156>
VStem: 107 150<150 1250> 675 150<319.359 1121.5>
LayerCount: 2
Fore
SplineSet
825 775 m 2
 825 671 l 2
 825 86 607 0 461 0 c 2
 107 0 l 1
 107 1400 l 1
 461 1400 l 2
 771 1400 825 1085 825 775 c 2
461 1250 m 2
 257 1250 l 1
 257 150 l 1
 461 150 l 2
 643 150 675 445 675 671 c 2
 675 775 l 2
 675 1133 603 1250 461 1250 c 2
EndSplineSet
Validated: 3073
EndChar

StartChar: E
Encoding: 69 69 36
Width: 922
VWidth: 1708
GlyphClass: 2
Flags: W
HStem: 0 151<257 832> 712 150<257 740> 1250 150<257 832>
VStem: 107 150<151 712 862 1250>
LayerCount: 2
Fore
SplineSet
257 712 m 1
 257 151 l 1
 832 151 l 1
 832 0 l 1
 107 0 l 1
 107 1400 l 1
 832 1400 l 1
 832 1250 l 1
 257 1250 l 1
 257 862 l 1
 740 862 l 1
 740 712 l 1
 257 712 l 1
EndSplineSet
Validated: 3073
EndChar

StartChar: F
Encoding: 70 70 37
Width: 922
VWidth: 1708
GlyphClass: 2
Flags: W
HStem: 712 150<257 740> 1250 150<257 832>
VStem: 107 150<76 712 862 1250>
LayerCount: 2
Fore
SplineSet
257 712 m 1
 257 76 l 1
 107 76 l 1
 107 1400 l 1
 832 1400 l 1
 832 1250 l 1
 257 1250 l 1
 257 862 l 1
 740 862 l 1
 740 712 l 1
 257 712 l 1
EndSplineSet
Validated: 3073
EndChar

StartChar: G
Encoding: 71 71 38
Width: 922
VWidth: 1947
GlyphClass: 2
Flags: W
HStem: -25 150<363.207 597.45> 542 150<504 665> 1275 150<349.685 595.883>
VStem: 97 150<310.229 1121.44> 504 311<542 692> 665 150<188.477 542 1092.24 1199.45>
LayerCount: 2
Fore
SplineSet
815 247 m 1xf4
 757 53 618 -25 487 -25 c 2
 456 -25 l 2
 312 -25 97 71 97 696 c 2
 97 763 l 2
 97 1041 140 1425 455 1425 c 2
 487 1425 l 2
 751 1425 803 1158 816 1095 c 1
 670 1065 l 1
 633 1244 560 1275 487 1275 c 2
 455 1275 l 2
 316 1275 247 1114 247 763 c 2
 247 696 l 2
 247 486 274 125 456 125 c 2
 487 125 l 2
 575 125 640 190 665 268 c 1
 665 542 l 1xf4
 504 542 l 1
 504 692 l 1
 815 692 l 1xf8
 815 247 l 1xf4
EndSplineSet
Validated: 3073
EndChar

StartChar: H
Encoding: 72 72 39
Width: 922
VWidth: 1947
GlyphClass: 2
Flags: W
HStem: 0 21G<107 257 665 815> 657 150<257 665> 1380 20G<107 257 665 815>
VStem: 107 150<0 657 807 1400> 665 150<0 657 807 1400>
LayerCount: 2
Fore
SplineSet
257 -0 m 1
 107 0 l 1
 107 1400 l 1
 257 1400 l 1
 257 807 l 1
 665 807 l 1
 665 1400 l 1
 815 1400 l 1
 815 -0 l 1
 665 0 l 1
 665 657 l 1
 257 657 l 1
 257 -0 l 1
EndSplineSet
Validated: 3073
EndChar

StartChar: I
Encoding: 73 73 40
Width: 922
VWidth: 1947
GlyphClass: 2
Flags: W
HStem: 0 150<90 386 536 832> 1250 150<90 386 536 832>
VStem: 386 150<150 1250>
LayerCount: 2
Fore
SplineSet
832 1400 m 1
 832 1250 l 1
 536 1250 l 1
 536 150 l 1
 832 150 l 1
 832 0 l 1
 90 0 l 1
 90 150 l 1
 386 150 l 1
 386 1250 l 1
 90 1250 l 1
 90 1400 l 1
 832 1400 l 1
EndSplineSet
Validated: 3073
EndChar

StartChar: J
Encoding: 74 74 41
Width: 922
VWidth: 1947
GlyphClass: 2
Flags: W
HStem: -25 150<251.135 480.195> 1250 150<318 530 680 852>
VStem: 530 150<178.967 1250>
LayerCount: 2
Fore
SplineSet
852 1400 m 1
 852 1250 l 1
 680 1250 l 1
 680 337 l 2
 680 116 558 -25 380 -25 c 2
 362 -25 l 2
 132 -25 87 141 75 191 c 1
 221 225 l 1
 237 155 276 125 362 125 c 2
 380 125 l 2
 500 125 530 243 530 337 c 2
 530 1250 l 1
 318 1250 l 1
 318 1400 l 1
 852 1400 l 1
EndSplineSet
Validated: 3073
EndChar

StartChar: K
Encoding: 75 75 42
Width: 922
VWidth: 1947
GlyphClass: 2
Flags: W
HStem: 0 21G<108 258 671.462 848> 1380 20G<108 258 642.747 831>
VStem: 108 150<0 466 752 1400>
LayerCount: 2
Fore
SplineSet
108 0 m 1
 108 1400 l 1
 258 1400 l 1
 258 752 l 1
 655 1400 l 1
 831 1400 l 1
 465 803 l 1
 848 0 l 1
 681 0 l 1
 371 650 l 1
 258 466 l 1
 258 -0 l 1
 108 0 l 1
EndSplineSet
Validated: 3073
EndChar

StartChar: L
Encoding: 76 76 43
Width: 922
VWidth: 1947
GlyphClass: 2
Flags: W
HStem: 0 151<257 832> 1380 20G<107 257>
VStem: 107 150<151 1400>
LayerCount: 2
Fore
SplineSet
257 151 m 1
 832 151 l 1
 832 0 l 1
 107 0 l 1
 107 1400 l 1
 257 1400 l 1
 257 151 l 1
EndSplineSet
Validated: 3073
EndChar

StartChar: M
Encoding: 77 77 44
Width: 922
VWidth: 1947
GlyphClass: 2
Flags: W
HStem: 0 21G<26 178.43 743.57 896> 1380 20G<125.557 284.925 637.075 796.443>
LayerCount: 2
Fore
SplineSet
26 0 m 1
 127 1400 l 1
 280 1400 l 1
 461 665 l 1
 642 1400 l 1
 795 1400 l 1
 896 0 l 1
 745 0 l 1
 679 923 l 1
 503 211 l 1
 419 211 l 1
 243 923 l 1
 177 0 l 1
 26 0 l 1
EndSplineSet
Validated: 3073
EndChar

StartChar: N
Encoding: 78 78 45
Width: 922
VWidth: 1947
GlyphClass: 2
Flags: W
HStem: -0 21G<107 257 670.431 815> 1380 20G<107 250.58 665 815>
VStem: 107 150<0 985> 665 150<414 1400>
LayerCount: 2
Fore
SplineSet
257 0 m 1
 107 -0 l 1
 107 1400 l 1
 242 1400 l 1
 665 414 l 1
 665 1400 l 1
 815 1400 l 1
 815 0 l 1
 679 0 l 1
 257 985 l 1
 257 0 l 1
EndSplineSet
Validated: 3073
EndChar

StartChar: O
Encoding: 79 79 46
Width: 922
VWidth: 1947
GlyphClass: 2
Flags: W
HStem: -25 150<363.207 559.686> 1275 150<349.685 572.755>
VStem: 97 150<310.229 1121.87> 675 150<302.826 1121.43>
LayerCount: 2
Fore
SplineSet
825 765 m 2
 825 696 l 2
 825 73 611 -24 467 -25 c 2
 456 -25 l 2
 312 -25 97 71 97 696 c 2
 97 763 l 2
 97 1042 140 1425 455 1425 c 2
 467 1425 l 2
 784 1425 825 1040 825 765 c 2
467 1275 m 2
 455 1275 l 2
 316 1275 247 1114 247 763 c 2
 247 696 l 2
 247 486 274 125 456 125 c 2
 467 125 l 2
 649 126 675 486 675 696 c 2
 675 765 l 2
 675 1115 607 1275 467 1275 c 2
EndSplineSet
Validated: 3073
EndChar

StartChar: P
Encoding: 80 80 47
Width: 922
VWidth: 1947
GlyphClass: 2
Flags: W
HStem: 0 21G<107 257> 642 150<257 622.854> 1250 150<257 629.467>
VStem: 107 150<0 642 792 1250> 665 150<836.016 1212.47>
LayerCount: 2
Fore
SplineSet
257 642 m 1
 257 -0 l 1
 107 0 l 1
 107 1400 l 1
 470 1400 l 2
 666 1400 815 1333 815 1063 c 2
 815 972 l 2
 815 806 746 642 470 642 c 2
 257 642 l 1
470 792 m 2
 619 792 665 844 665 972 c 2
 665 1063 l 2
 665 1210 622 1250 470 1250 c 2
 257 1250 l 1
 257 792 l 1
 470 792 l 2
EndSplineSet
Validated: 3073
EndChar

StartChar: Q
Encoding: 81 81 48
Width: 922
VWidth: 1947
GlyphClass: 2
Flags: W
HStem: -25 150<363.207 511.797> 1275 150<349.685 572.755>
VStem: 97 150<310.229 1121.87> 675 150<302.689 1121.43>
LayerCount: 2
Fore
SplineSet
467 1275 m 2
 455 1275 l 2
 316 1275 247 1114 247 763 c 2
 247 696 l 2
 247 486 274 125 456 125 c 2
 467 125 l 2
 484 125 499 128 513 134 c 1
 394 365 l 1
 528 433 l 1
 617 260 l 1
 666 384 675 568 675 696 c 2
 675 765 l 2
 675 1115 607 1275 467 1275 c 2
807 -110 m 1
 675 -178 l 1
 582 -0 l 1
 542 -18 502 -25 467 -25 c 2
 456 -25 l 2
 312 -25 97 71 97 696 c 2
 97 763 l 2
 97 1042 140 1425 455 1425 c 2
 467 1425 l 2
 784 1425 825 1040 825 765 c 2
 825 696 l 2
 825 383 771 203 699 101 c 1
 807 -110 l 1
EndSplineSet
Validated: 3073
EndChar

StartChar: R
Encoding: 82 82 49
Width: 922
VWidth: 1947
GlyphClass: 2
Flags: W
HStem: 0 21G<89 239 686.122 859> 642 150<239 410> 1250 150<239 639.761>
VStem: 89 150<0 642 792 1250> 682 150<839.317 1203.54>
LayerCount: 2
Fore
SplineSet
470 792 m 2
 641 792 682 864 682 973 c 2
 682 1063 l 2
 682 1202 632 1250 470 1250 c 2
 239 1250 l 1
 239 792 l 1
 470 792 l 2
89 0 m 1
 89 1400 l 1
 470 1400 l 2
 664 1400 832 1333 832 1063 c 2
 832 973 l 2
 832 838 777 686 571 650 c 1
 859 0 l 1
 695 0 l 1
 410 642 l 1
 239 642 l 1
 239 -0 l 1
 89 0 l 1
EndSplineSet
Validated: 3073
EndChar

StartChar: S
Encoding: 83 83 50
Width: 922
VWidth: 2334
GlyphClass: 2
Flags: W
HStem: -25 150<326.598 591.66> 1275 150<335.144 621.058>
VStem: 64 150<239.114 357> 113 150<932.119 1200.98> 685 150<215.183 532.85 1063 1213.29>
LayerCount: 2
Fore
SplineSet
452 125 m 2xe8
 470 125 l 2
 580 125 685 222 685 337 c 2
 685 367 l 2
 685 457 639 584 548 630 c 2
 286 763 l 2
 169 823 113 930 113 1033 c 2
 113 1063 l 2
 113 1256 249 1425 448 1425 c 2
 475 1425 l 2
 633 1425 769 1354 816 1199 c 0
 828 1160 831 1090 831 1063 c 1
 681 1063 l 1
 681 1086 676 1141 672 1155 c 0
 649 1231 583 1275 475 1275 c 2
 448 1275 l 2
 338 1275 263 1180 263 1063 c 2
 263 1033 l 2xd8
 263 999 278 936 354 897 c 2
 618 762 l 2
 764 687 835 505 835 367 c 2
 835 337 l 2
 835 138 662 -25 470 -25 c 2
 452 -25 l 2
 257 -25 64 158 64 357 c 1
 214 357 l 1
 214 242 338 125 452 125 c 2xe8
EndSplineSet
Validated: 3073
EndChar

StartChar: T
Encoding: 84 84 51
Width: 922
VWidth: 1947
GlyphClass: 2
Flags: W
HStem: -0 21G<386 536> 1250 150<70 386 536 852>
VStem: 386 150<0 1250>
LayerCount: 2
Fore
SplineSet
852 1400 m 1
 852 1250 l 1
 536 1250 l 1
 536 0 l 1
 386 -0 l 1
 386 1250 l 1
 70 1250 l 1
 70 1400 l 1
 852 1400 l 1
EndSplineSet
Validated: 3073
EndChar

StartChar: U
Encoding: 85 85 52
Width: 922
VWidth: 1947
GlyphClass: 2
Flags: W
HStem: -25 150<315.827 606.173> 1380 20G<107 257 665 815>
VStem: 107 150<182.562 1400> 665 150<182.984 1400>
LayerCount: 2
Fore
SplineSet
257 337 m 2
 257 176 335 125 452 125 c 2
 470 125 l 2
 587 125 665 176 665 337 c 2
 665 1400 l 1
 815 1400 l 1
 815 337 l 2
 815 106 684 -25 470 -25 c 2
 452 -25 l 2
 238 -25 107 105 107 337 c 2
 107 1400 l 1
 257 1400 l 1
 257 337 l 2
EndSplineSet
Validated: 3073
EndChar

StartChar: V
Encoding: 86 86 53
Width: 922
VWidth: 1708
GlyphClass: 2
Flags: W
HStem: -25 21G<386.719 535.309> 1380 20G<86 243.277 680.684 838>
LayerCount: 2
Fore
SplineSet
391 -25 m 1
 86 1400 l 1
 239 1400 l 1
 461 362 l 1
 685 1400 l 1
 838 1400 l 1
 531 -25 l 1
 391 -25 l 1
EndSplineSet
Validated: 3073
EndChar

StartChar: W
Encoding: 87 87 54
Width: 922
VWidth: 1947
GlyphClass: 2
Flags: W
HStem: 0 21G<125.557 284.918 637.082 796.443> 1380 20G<26 178.432 743.568 896>
LayerCount: 2
Fore
SplineSet
127 0 m 1
 26 1400 l 1
 177 1400 l 1
 243 478 l 1
 419 1190 l 1
 503 1190 l 1
 679 478 l 1
 745 1400 l 1
 896 1400 l 1
 795 0 l 1
 642 0 l 1
 461 736 l 1
 280 0 l 1
 127 0 l 1
EndSplineSet
Validated: 3073
EndChar

StartChar: X
Encoding: 88 88 55
Width: 922
VWidth: 1947
GlyphClass: 2
Flags: W
HStem: 0 21G<94 263.191 658.809 828> 1380 20G<94 263.191 658.809 828>
LayerCount: 2
Fore
SplineSet
94 0 m 1
 381 700 l 1
 94 1400 l 1
 255 1400 l 1
 461 897 l 1
 667 1400 l 1
 828 1400 l 1
 541 700 l 1
 828 0 l 1
 667 0 l 1
 461 503 l 1
 255 0 l 1
 94 0 l 1
EndSplineSet
Validated: 3073
EndChar

StartChar: Y
Encoding: 89 89 56
Width: 922
VWidth: 1947
GlyphClass: 2
Flags: W
HStem: -25 21G<386 536.038> 1380 20G<90 253.636 668.426 832>
VStem: 386 150<-25 501>
LayerCount: 2
Fore
SplineSet
386 -25 m 1
 386 501 l 1
 90 1400 l 1
 247 1400 l 1
 462 752 l 1
 675 1400 l 1
 832 1400 l 1
 537 501 l 1
 536 -25 l 1
 386 -25 l 1
EndSplineSet
Validated: 3073
EndChar

StartChar: Z
Encoding: 90 90 57
Width: 922
VWidth: 1947
GlyphClass: 2
Flags: W
HStem: 0 151<265 832> 1250 150<90 657>
LayerCount: 2
Fore
SplineSet
90 1250 m 1
 90 1400 l 1
 832 1400 l 1
 832 1261 l 1
 265 151 l 1
 832 151 l 1
 832 0 l 1
 90 0 l 1
 90 140 l 1
 657 1250 l 1
 90 1250 l 1
EndSplineSet
Validated: 3073
EndChar

StartChar: bracketleft
Encoding: 91 91 58
Width: 922
VWidth: 1947
GlyphClass: 2
Flags: W
HStem: -155 150<425 740> 1405 150<425 740>
VStem: 275 465<-155 -5 1405 1555> 275 150<-5 1405>
LayerCount: 2
Fore
SplineSet
425 1405 m 1xd0
 425 -5 l 1xd0
 740 -5 l 1
 740 -155 l 1
 275 -155 l 1
 275 1555 l 1
 740 1555 l 1
 740 1405 l 1xe0
 425 1405 l 1xd0
EndSplineSet
Validated: 3073
EndChar

StartChar: backslash
Encoding: 92 92 59
Width: 922
VWidth: 1708
GlyphClass: 2
Flags: W
LayerCount: 2
Fore
SplineSet
112 1400 m 1
 252 1452 l 1
 810 0 l 1
 670 -52 l 1
 112 1400 l 1
EndSplineSet
Validated: 3073
EndChar

StartChar: bracketright
Encoding: 93 93 60
Width: 922
VWidth: 1947
GlyphClass: 2
Flags: W
HStem: -155 150<182 497> 1405 150<182 497>
VStem: 182 465<-155 -5 1405 1555> 497 150<-5 1405>
LayerCount: 2
Fore
SplineSet
182 1555 m 1xe0
 647 1555 l 1
 647 -155 l 1
 182 -155 l 1
 182 -5 l 1xe0
 497 -5 l 1
 497 1405 l 1xd0
 182 1405 l 1
 182 1555 l 1xe0
EndSplineSet
Validated: 3073
EndChar

StartChar: asciicircum
Encoding: 94 94 61
Width: 922
VWidth: 1947
GlyphClass: 2
Flags: W
HStem: 932 493
LayerCount: 2
Fore
SplineSet
525 1425 m 1
 802 1016 l 1
 678 932 l 1
 461 1251 l 1
 244 932 l 1
 120 1016 l 1
 397 1425 l 1
 525 1425 l 1
EndSplineSet
Validated: 3073
EndChar

StartChar: underscore
Encoding: 95 95 62
Width: 922
VWidth: 1947
GlyphClass: 2
Flags: W
HStem: -167 150<90 832>
LayerCount: 2
Fore
SplineSet
832 -17 m 1
 832 -167 l 1
 90 -167 l 1
 90 -17 l 1
 832 -17 l 1
EndSplineSet
Validated: 3073
EndChar

StartChar: grave
Encoding: 96 96 63
Width: 922
VWidth: 1708
GlyphClass: 2
Flags: W
HStem: 978 482
VStem: 220 482
LayerCount: 2
Fore
SplineSet
685 1099 m 2
 696 1086 702 1071 702 1055 c 0
 702 1036 694 1018 678 1002 c 0
 662 986 644 978 626 978 c 0
 610 978 595 984 581 995 c 2
 265 1242 l 2
 236 1266 220 1304 220 1341 c 0
 220 1374 231 1406 252 1428 c 0
 272 1450 305 1460 336 1460 c 0
 375 1460 413 1443 436 1414 c 2
 685 1099 l 2
EndSplineSet
Validated: 3073
EndChar

StartChar: a
Encoding: 97 97 64
Width: 922
VWidth: 1947
GlyphClass: 2
Flags: W
HStem: -25 150<315.003 579.125> 0 21G<665 815> 486 150<322.778 665> 899 150<295.457 622.854>
VStem: 107 150<175.981 427.25> 665 150<0 49 210.489 486 636 854.112>
LayerCount: 2
Fore
SplineSet
452 486 m 2xbc
 309 486 257 379 257 337 c 2
 257 259 l 2
 257 216 308 125 452 125 c 2
 470 125 l 2
 580 125 665 255 665 302 c 2
 665 486 l 1
 452 486 l 2xbc
452 1049 m 2
 470 1049 l 2
 746 1049 815 883 815 719 c 2
 815 -0 l 1
 665 0 l 1x7c
 665 49 l 1
 615 11 551 -19 470 -25 c 2
 452 -25 l 2
 236 -25 107 123 107 259 c 2
 107 337 l 2
 107 471 235 636 452 636 c 2
 665 636 l 1
 665 719 l 2
 665 847 617 899 470 899 c 2
 452 899 l 2
 339 899 296 875 275 825 c 1
 137 883 l 1
 189 1010 304 1049 452 1049 c 2
EndSplineSet
Validated: 3073
EndChar

StartChar: b
Encoding: 98 98 65
Width: 922
VWidth: 2334
GlyphClass: 2
Flags: W
HStem: -25 150<348.09 584.275> 0 21G<107 257> 899 150<337.647 579.817> 1380 20G<107 257>
VStem: 107 150<0 48 232.846 811.515 987 1400> 665 150<211.785 804.697>
LayerCount: 2
Fore
SplineSet
257 427 m 2xbc
 257 242 347 125 452 125 c 2
 470 125 l 2
 626 125 665 284 665 427 c 2
 665 597 l 2
 665 738 626 899 470 899 c 2
 452 899 l 2
 296 899 257 738 257 597 c 2
 257 427 l 2xbc
452 1049 m 2
 470 1049 l 2
 704 1049 815 851 815 597 c 2
 815 427 l 2
 815 155 692 -25 470 -25 c 2
 452 -25 l 2xbc
 379 -25 312 1 257 48 c 1
 257 -0 l 1
 107 0 l 1x7c
 107 1400 l 1
 257 1400 l 1
 257 987 l 1
 308 1026 373 1049 452 1049 c 2
EndSplineSet
Validated: 3073
EndChar

StartChar: c
Encoding: 99 99 66
Width: 922
VWidth: 2334
GlyphClass: 2
Flags: W
HStem: -25 150<348.09 626.024> 898 150<342.183 626.656>
VStem: 107 150<233.951 804.485>
LayerCount: 2
Fore
SplineSet
470 898 m 2
 452 898 l 2
 296 898 257 738 257 597 c 2
 257 427 l 2
 257 242 347 125 452 125 c 2
 470 125 l 2
 579 125 631 147 653 212 c 1
 795 164 l 1
 741 3 597 -25 470 -25 c 2
 452 -25 l 2
 257 -25 107 161 107 427 c 2
 107 597 l 2
 107 851 218 1048 452 1048 c 2
 470 1048 l 2
 607 1048 748 1014 797 852 c 1
 653 808 l 1
 637 861 603 898 470 898 c 2
EndSplineSet
Validated: 3073
EndChar

StartChar: d
Encoding: 100 100 67
Width: 922
VWidth: 1947
GlyphClass: 2
Flags: W
HStem: -25 150<348.09 584.353> 0 21G<665 815> 899 150<342.183 584.353> 1380 20G<665 815>
VStem: 107 150<234.381 804.697> 665 150<0 37 211.785 811.515 987 1400>
LayerCount: 2
Fore
SplineSet
257 597 m 2xbc
 257 427 l 2
 257 242 347 125 452 125 c 2
 470 125 l 2
 626 125 665 284 665 427 c 2
 665 597 l 2
 665 738 626 899 470 899 c 2
 452 899 l 2
 296 899 257 738 257 597 c 2xbc
452 1049 m 2
 470 1049 l 2
 549 1049 614 1026 665 987 c 1
 665 1400 l 1
 815 1400 l 1
 815 -0 l 1
 665 0 l 1x7c
 665 37 l 1
 613 -3 547 -25 470 -25 c 2
 452 -25 l 2
 256 -25 107 162 107 427 c 2
 107 597 l 2
 107 851 218 1049 452 1049 c 2
EndSplineSet
Validated: 3073
EndChar

StartChar: e
Encoding: 101 101 68
Width: 922
VWidth: 1947
GlyphClass: 2
Flags: W
HStem: -25 150<328.4 627.148> 486 150<257 665> 899 150<299.146 622.854>
VStem: 107 150<193.47 486 636 854.112> 665 150<636 854.112>
LayerCount: 2
Fore
SplineSet
257 486 m 1
 257 337 l 2
 257 227 316 125 452 125 c 2
 470 125 l 2
 608 125 641 167 656 222 c 1
 800 182 l 1
 755 16 617 -25 470 -25 c 2
 452 -25 l 2
 228 -25 107 149 107 337 c 2
 107 719 l 2
 107 883 176 1049 452 1049 c 2
 470 1049 l 2
 746 1049 815 883 815 719 c 2
 815 486 l 1
 257 486 l 1
665 636 m 1
 665 719 l 2
 665 847 617 899 470 899 c 2
 452 899 l 2
 305 899 257 847 257 719 c 2
 257 636 l 1
 665 636 l 1
EndSplineSet
Validated: 3073
EndChar

StartChar: f
Encoding: 102 102 69
Width: 922
VWidth: 1947
GlyphClass: 2
Flags: W
HStem: 0 21G<287 437> 781 150<90 287 437 740> 1275 150<452.743 649.801>
VStem: 287 150<0 781 931 1257.49> 665 150<1185 1257.07>
LayerCount: 2
Fore
SplineSet
665 1185 m 1
 665 1232 618 1275 560 1275 c 2
 542 1275 l 2
 471 1275 437 1222 437 1184 c 2
 437 931 l 1
 740 931 l 1
 740 781 l 1
 437 781 l 1
 437 -0 l 1
 287 0 l 1
 287 781 l 1
 90 781 l 1
 90 931 l 1
 287 931 l 1
 287 1184 l 2
 287 1246 323 1425 542 1425 c 2
 560 1425 l 2
 651 1425 750 1378 793 1282 c 1
 808 1251 815 1219 815 1185 c 1
 665 1185 l 1
EndSplineSet
Validated: 3073
EndChar

StartChar: g
Encoding: 103 103 70
Width: 922
VWidth: 1947
GlyphClass: 2
Flags: W
HStem: -385 151<311.163 614.978> 23 150<306.3 611.943> 316 150<340.783 581.217> 884 150<776.855 832> 899 150<337.598 587.105>
VStem: 107 150<-184.796 -24.9043 147.975 358.109 550.202 820.873> 665 150<-182.917 -28.4083 553.891 824.372>
LayerCount: 2
Fore
SplineSet
665 -87 m 2xe6
 665 -64 607 23 470 23 c 2
 452 23 l 2
 349 23 257 -40 257 -87 c 2
 257 -107 l 2
 257 -158 322 -234 452 -234 c 2
 470 -234 l 2
 544 -234 665 -192 665 -107 c 2
 665 -87 l 2xe6
470 899 m 2xee
 452 899 l 2
 361 899 257 813 257 719 c 2
 257 663 l 2
 257 566 357 466 452 466 c 2
 470 466 l 2
 565 466 665 566 665 663 c 2
 665 719 l 2
 665 813 561 899 470 899 c 2xee
172 62 m 1
 125 108 107 156 107 215 c 2
 107 281 l 2
 107 328 117 389 186 457 c 1
 138 519 107 585 107 663 c 2
 107 719 l 2
 107 891 272 1049 452 1049 c 2
 470 1049 l 2xee
 545 1049 617 1021 676 977 c 1
 720 1011 775 1034 832 1034 c 1
 832 884 l 1xf6
 812 884 792 877 775 865 c 1
 800 820 815 770 815 719 c 2
 815 663 l 2
 815 477 644 316 470 316 c 2
 452 316 l 2
 399 316 347 332 299 359 c 1
 276 340 257 321 257 286 c 2
 257 215 l 2
 257 190 273 167 304 146 c 1
 353 164 406 173 452 173 c 2
 470 173 l 2
 698 173 815 21 815 -87 c 2
 815 -107 l 2
 815 -260 650 -385 470 -385 c 2
 452 -385 l 2
 206 -385 107 -218 107 -107 c 2
 107 -87 l 2
 107 -25 133 17 172 62 c 1
EndSplineSet
Validated: 3073
EndChar

StartChar: h
Encoding: 104 104 71
Width: 922
VWidth: 2334
GlyphClass: 2
Flags: W
HStem: 0 21G<107 257 665 815> 899 150<367.694 622.854> 1380 20G<107 257>
VStem: 107 150<0 758.159 957 1400> 665 150<0 854.112>
LayerCount: 2
Fore
SplineSet
257 -0 m 1
 107 0 l 1
 107 1400 l 1
 257 1400 l 1
 257 957 l 1
 310 1012 376 1049 452 1049 c 2
 470 1049 l 2
 746 1049 815 883 815 719 c 2
 815 0 l 1
 665 -0 l 1
 665 719 l 2
 665 847 617 899 470 899 c 2
 452 899 l 2
 351 899 257 704 257 597 c 2
 257 -0 l 1
EndSplineSet
Validated: 3073
EndChar

StartChar: k
Encoding: 107 107 74
Width: 922
VWidth: 1947
GlyphClass: 2
Flags: W
HStem: 0 21G<107 257 642.415 829> 1405 20G<107 257>
VStem: 107 150<0 356 593 1425>
LayerCount: 2
Fore
SplineSet
107 0 m 1
 107 1425 l 1
 257 1425 l 1
 257 593 l 1
 682 1111 l 1
 798 1015 l 1
 471 616 l 1
 829 0 l 1
 654 0 l 1
 369 492 l 1
 257 356 l 1
 257 -0 l 1
 107 0 l 1
EndSplineSet
Validated: 3073
EndChar

StartChar: l
Encoding: 108 108 75
Width: 922
VWidth: 1947
GlyphClass: 2
Flags: W
HStem: 0 150<182 386 536 740> 1250 150<182 386>
VStem: 386 150<150 1250>
LayerCount: 2
Fore
SplineSet
182 1400 m 1
 536 1400 l 1
 536 150 l 1
 740 150 l 1
 740 0 l 1
 182 0 l 1
 182 150 l 1
 386 150 l 1
 386 1250 l 1
 182 1250 l 1
 182 1400 l 1
EndSplineSet
Validated: 3073
EndChar

StartChar: m
Encoding: 109 109 76
Width: 922
VWidth: 2334
GlyphClass: 2
Flags: W
HStem: 0 21G<67 217 386 536 705 855> 899 150<252.702 379.372 571 696.851>
VStem: 67 150<0 867.81> 386 150<0 867.81> 705 150<0 893.678>
CounterMasks: 1 38
LayerCount: 2
Fore
SplineSet
316 899 m 2
 260 899 217 807 217 719 c 2
 217 -0 l 1
 67 0 l 1
 67 1024 l 1
 217 1024 l 1
 258 1046 298 1049 316 1049 c 2
 326 1049 l 2
 398 1049 451 1027 486 984 c 1
 546 1040 603 1049 635 1049 c 2
 645 1049 l 2
 847 1049 855 852 855 809 c 2
 855 0 l 1
 705 -0 l 1
 705 809 l 2
 705 880 685 899 645 899 c 2
 635 899 l 2
 575 899 536 807 536 719 c 2
 536 0 l 1
 386 -0 l 1
 386 809 l 2
 386 880 366 899 326 899 c 2
 316 899 l 2
EndSplineSet
Validated: 3073
EndChar

StartChar: n
Encoding: 110 110 77
Width: 922
VWidth: 2334
GlyphClass: 2
Flags: W
HStem: 0 21G<107 257 665 815> 899 150<367.694 622.854> 1004 20G<107 257>
VStem: 107 150<0 758.159 957 1024> 665 150<0 854.112>
LayerCount: 2
Fore
SplineSet
257 -0 m 1xd8
 107 0 l 1
 107 1024 l 1
 257 1024 l 1xb8
 257 957 l 1
 310 1012 376 1049 452 1049 c 2
 470 1049 l 2
 746 1049 815 883 815 719 c 2
 815 0 l 1
 665 -0 l 1
 665 719 l 2
 665 847 617 899 470 899 c 2
 452 899 l 2
 351 899 257 704 257 597 c 2
 257 -0 l 1xd8
EndSplineSet
Validated: 3073
EndChar

StartChar: o
Encoding: 111 111 78
Width: 922
VWidth: 1947
GlyphClass: 2
Flags: W
HStem: -25 150<340.341 588.212> 898 150<335.135 582.526>
VStem: 97 150<232.332 798.092> 675 150<233.836 789.93>
LayerCount: 2
Fore
SplineSet
825 562 m 2
 825 470 l 2
 825 64 616 -25 476 -25 c 2
 441 -25 l 2
 207 -25 97 192 97 471 c 2
 97 561 l 2
 97 818 195 1048 439 1048 c 2
 478 1048 l 2
 723 1048 825 822 825 562 c 2
478 898 m 2
 439 898 l 2
 285 898 247 712 247 561 c 2
 247 471 l 2
 247 317 286 125 441 125 c 2
 476 125 l 2
 635 125 675 308 675 470 c 2
 675 562 l 2
 675 715 636 898 478 898 c 2
EndSplineSet
Validated: 3073
EndChar

StartChar: p
Encoding: 112 112 79
Width: 922
VWidth: 1947
GlyphClass: 2
Flags: W
HStem: -385 21G<107 257> -25 150<348.09 584.275> 899 150<337.647 579.817> 1004 20G<107 257>
VStem: 107 150<-385 48 232.846 811.515 987 1024> 665 150<211.785 804.697>
LayerCount: 2
Fore
SplineSet
257 427 m 2xec
 257 242 347 125 452 125 c 2
 470 125 l 2
 626 125 665 284 665 427 c 2
 665 597 l 2
 665 738 626 899 470 899 c 2
 452 899 l 2
 296 899 257 738 257 597 c 2
 257 427 l 2xec
257 -385 m 1
 107 -385 l 1
 107 1024 l 1
 257 1024 l 1xdc
 257 987 l 1
 308 1026 373 1049 452 1049 c 2
 470 1049 l 2
 704 1049 815 851 815 597 c 2
 815 427 l 2
 815 155 692 -25 470 -25 c 2
 452 -25 l 2
 379 -25 312 1 257 48 c 1
 257 -385 l 1
EndSplineSet
Validated: 3073
EndChar

StartChar: q
Encoding: 113 113 80
Width: 922
VWidth: 1947
GlyphClass: 2
Flags: W
HStem: -385 21G<665 815> -25 150<348.09 584.353> 899 150<342.183 584.353> 1004 20G<665 815>
VStem: 107 150<234.381 804.697> 665 150<-385 37 211.785 811.515 987 1024>
LayerCount: 2
Fore
SplineSet
257 597 m 2xec
 257 427 l 2
 257 242 347 125 452 125 c 2
 470 125 l 2
 626 125 665 284 665 427 c 2
 665 597 l 2
 665 738 626 899 470 899 c 2
 452 899 l 2
 296 899 257 738 257 597 c 2xec
452 1049 m 2
 470 1049 l 2xec
 549 1049 614 1026 665 987 c 1
 665 1024 l 1
 815 1024 l 1xdc
 815 -385 l 1
 665 -385 l 1
 665 37 l 1
 613 -3 547 -25 470 -25 c 2
 452 -25 l 2
 256 -25 107 162 107 427 c 2
 107 597 l 2
 107 851 218 1049 452 1049 c 2
EndSplineSet
Validated: 3073
EndChar

StartChar: r
Encoding: 114 114 81
Width: 922
VWidth: 1947
GlyphClass: 2
Flags: W
HStem: 0 21G<107 257> 899 150<425.874 663.592> 1004 20G<107 257>
VStem: 107 150<0 672.942 899 1024>
LayerCount: 2
Fore
SplineSet
257 -0 m 1xd0
 107 0 l 1
 107 1024 l 1
 257 1024 l 1xb0
 257 899 l 1
 329 990 421 1049 522 1049 c 2
 540 1049 l 2
 685 1049 768 991 814 899 c 1
 680 831 l 1
 658 875 624 899 540 899 c 2
 522 899 l 2
 397 899 257 663 257 470 c 2
 257 -0 l 1xd0
EndSplineSet
Validated: 3073
EndChar

StartChar: s
Encoding: 115 115 82
Width: 922
VWidth: 1947
GlyphClass: 2
Flags: W
HStem: -25 150<309.21 620.209> 899 150<291.065 605.461>
VStem: 77 150<205.344 337> 107 150<697.85 860.618> 665 150<173.622 379.781 719 837.837>
LayerCount: 2
Fore
SplineSet
665 719 m 1xd8
 665 821 597 899 470 899 c 2
 452 899 l 2
 315 899 257 843 257 789 c 2
 257 777 l 2xd8
 262 725 289 699 303 694 c 2
 680 519 l 2
 744 489 815 417 815 301 c 2
 815 255 l 2
 815 87 662 -25 470 -25 c 2
 422 -25 l 2
 204 -25 77 159 77 337 c 1
 227 337 l 1xe8
 227 240 297 125 422 125 c 2
 470 125 l 2
 564 125 665 166 665 255 c 2
 665 301 l 2
 665 339 634 373 616 383 c 2
 241 556 l 2
 136 606 107 735 107 777 c 2
 107 789 l 2
 107 974 318 1049 452 1049 c 2
 470 1049 l 2
 705 1049 815 896 815 719 c 1
 665 719 l 1xd8
EndSplineSet
Validated: 3073
EndChar

StartChar: t
Encoding: 116 116 83
Width: 922
VWidth: 1947
GlyphClass: 2
Flags: W
HStem: -25 150<435.023 629.91> 858 150<90 298 456 740> 1405 20G<324.993 476>
VStem: 267 150<145.451 505.272> 326 150<1140.33 1425> 645 150<144.969 215>
LayerCount: 2
Fore
SplineSet
540 125 m 2xf4
 583 125 640 151 645 215 c 1
 795 215 l 1
 778 7 606 -25 540 -25 c 2
 522 -25 l 2
 397 -25 267 78 267 211 c 2
 267 227 l 1xf4
 298 858 l 1
 90 858 l 1
 90 1008 l 1
 305 1008 l 1
 326 1425 l 1
 476 1425 l 1xec
 456 1008 l 1
 740 1008 l 1
 740 858 l 1
 449 858 l 1
 417 219 l 1
 417 211 l 2
 417 177 455 125 522 125 c 2
 540 125 l 2xf4
EndSplineSet
Validated: 3073
EndChar

StartChar: u
Encoding: 117 117 84
Width: 922
VWidth: 2334
GlyphClass: 2
Flags: W
HStem: -25 150<304.049 534.982> -0 21G<665 815> 1004 20G<107 257 665 815>
VStem: 107 150<171.261 1024> 665 150<0 88 290.988 1024>
LayerCount: 2
Fore
SplineSet
665 1024 m 1xb8
 815 1024 l 1
 815 0 l 1
 665 -0 l 1x78
 665 88 l 1
 606 21 532 -25 450 -25 c 2
 432 -25 l 2
 266 -25 107 57 107 337 c 2
 107 1024 l 1
 257 1024 l 1
 257 337 l 2
 257 167 324 125 432 125 c 2
 450 125 l 2
 550 125 665 339 665 447 c 2
 665 1024 l 1xb8
EndSplineSet
Validated: 3073
EndChar

StartChar: v
Encoding: 118 118 85
Width: 922
VWidth: 1947
GlyphClass: 2
Flags: W
HStem: -25 21G<399.185 522.834> 1004 20G<100 261.816 660.184 823>
LayerCount: 2
Fore
SplineSet
405 -25 m 1
 100 1024 l 1
 256 1024 l 1
 461 319 l 1
 666 1024 l 1
 823 1024 l 1
 517 -25 l 1
 405 -25 l 1
EndSplineSet
Validated: 3073
EndChar

StartChar: w
Encoding: 119 119 86
Width: 922
VWidth: 1947
GlyphClass: 2
Flags: W
HStem: 0 21G<131.93 262.645 659.355 790.07> 1004 20G<28 182.054 739.946 894>
LayerCount: 2
Fore
SplineSet
134 0 m 1
 28 1024 l 1
 180 1024 l 1
 241 430 l 1
 413 949 l 1
 509 949 l 1
 681 430 l 1
 742 1024 l 1
 894 1024 l 1
 788 0 l 1
 666 0 l 1
 461 617 l 1
 256 0 l 1
 134 0 l 1
EndSplineSet
Validated: 3073
EndChar

StartChar: x
Encoding: 120 120 87
Width: 922
VWidth: 1947
GlyphClass: 2
Flags: W
HStem: 0 21G<97 278.904 643.096 825> 1004 20G<97 278.873 643.127 825>
LayerCount: 2
Fore
SplineSet
97 0 m 1
 375 512 l 1
 97 1024 l 1
 268 1024 l 1
 461 669 l 1
 654 1024 l 1
 825 1024 l 1
 546 512 l 1
 825 0 l 1
 654 0 l 1
 461 354 l 1
 268 0 l 1
 97 0 l 1
EndSplineSet
Validated: 3073
EndChar

StartChar: y
Encoding: 121 121 88
Width: 922
VWidth: 1947
GlyphClass: 2
Flags: W
HStem: -369 150<242.927 396.446> 1004 20G<108 279.091 682.485 841>
LayerCount: 2
Fore
SplineSet
841 1024 m 1
 580 -130 l 2
 528 -359 377 -369 324 -369 c 0
 213 -369 119 -286 83 -198 c 1
 221 -142 l 1
 238 -183 283 -219 324 -219 c 0
 369 -219 420 -163 436 -90 c 2
 480 105 l 1
 108 1024 l 1
 271 1024 l 1
 538 364 l 1
 687 1024 l 1
 841 1024 l 1
EndSplineSet
Validated: 3073
EndChar

StartChar: z
Encoding: 122 122 89
Width: 922
VWidth: 1947
GlyphClass: 2
Flags: W
HStem: 0 150<298 837> 874 150<140 634>
LayerCount: 2
Fore
SplineSet
87 113 m 1
 634 874 l 1
 140 874 l 1
 140 1024 l 1
 837 1024 l 1
 837 900 l 1
 298 150 l 1
 837 150 l 1
 837 0 l 1
 87 0 l 1
 87 113 l 1
EndSplineSet
Validated: 3073
EndChar

StartChar: braceleft
Encoding: 123 123 90
Width: 922
VWidth: 1947
GlyphClass: 2
Flags: W
HStem: -155 150<482.984 740> 657 150<90 211.24> 1405 150<482.984 740>
VStem: 275 150<51.7552 589.496 856.006 1348.24>
LayerCount: 2
Fore
SplineSet
620 1405 m 2
 508 1405 425 1346 425 1242 c 2
 425 970 l 2
 425 884 387 788 313 726 c 1
 384 655 425 545 425 430 c 2
 425 158 l 2
 425 54 507 -5 620 -5 c 2
 740 -5 l 1
 740 -155 l 1
 620 -155 l 2
 423 -155 275 -30 275 158 c 2
 275 430 l 2
 275 531 223 657 120 657 c 2
 90 657 l 1
 90 807 l 1
 120 807 l 2
 226 807 275 899 275 970 c 2
 275 1242 l 2
 275 1430 423 1555 620 1555 c 2
 740 1555 l 1
 740 1405 l 1
 620 1405 l 2
EndSplineSet
Validated: 3073
EndChar

StartChar: bar
Encoding: 124 124 91
Width: 922
VWidth: 1947
GlyphClass: 2
Flags: W
VStem: 386 150<-77 1477>
LayerCount: 2
Fore
SplineSet
386 1477 m 1
 536 1477 l 1
 536 -77 l 1
 386 -77 l 1
 386 1477 l 1
EndSplineSet
Validated: 3073
EndChar

StartChar: braceright
Encoding: 125 125 92
Width: 922
VWidth: 1947
GlyphClass: 2
Flags: W
HStem: -155 150<90 347.016> 657 150<618.317 740> 1405 150<90 347.016>
VStem: 405 150<51.7552 589.496 856.006 1348.24>
LayerCount: 2
Fore
SplineSet
210 1555 m 2
 407 1555 555 1430 555 1242 c 2
 555 970 l 2
 555 899 604 807 710 807 c 2
 740 807 l 1
 740 657 l 1
 710 657 l 2
 606 657 555 531 555 430 c 2
 555 158 l 2
 555 -30 407 -155 210 -155 c 2
 90 -155 l 1
 90 -5 l 1
 210 -5 l 2
 323 -5 405 54 405 158 c 2
 405 430 l 2
 405 545 446 655 517 726 c 1
 443 788 405 884 405 970 c 2
 405 1242 l 2
 405 1346 322 1405 210 1405 c 2
 90 1405 l 1
 90 1555 l 1
 210 1555 l 2
EndSplineSet
Validated: 3073
EndChar

StartChar: asciitilde
Encoding: 126 126 93
Width: 922
VWidth: 1947
GlyphClass: 2
Flags: W
HStem: 758 150<531.412 687.375> 902 150<231.812 411.668>
LayerCount: 2
Fore
SplineSet
317 1052 m 2x40
 332 1052 l 2x40
 351 1052 418 1047 483 993 c 2
 558 930 l 2
 572 918 588 908 600 908 c 2
 615 908 l 2
 649 908 692 937 713 1000 c 1
 855 954 l 1
 815 834 721 758 605 758 c 2
 590 758 l 2x80
 564 758 524 763 462 815 c 2
 387 879 l 2
 371 893 351 902 332 902 c 2
 317 902 l 2
 269 902 230 878 211 811 c 1
 67 853 l 1
 106 989 206 1052 317 1052 c 2x40
EndSplineSet
Validated: 3073
EndChar

StartChar: cent
Encoding: 162 162 96
Width: 922
VWidth: 2334
GlyphClass: 2
Flags: W
HStem: -25 150<491 626.024> 898 150<342.183 476.81>
VStem: 107 150<230.945 804.485>
LayerCount: 2
Fore
SplineSet
531 1195 m 1
 679 1169 l 1
 652 1018 l 1
 717 990 770 940 797 852 c 1
 653 808 l 1
 647 828 638 846 623 860 c 1
 491 125 l 1
 586 128 632 151 653 212 c 1
 795 164 l 1
 741 3 597 -25 470 -25 c 2
 464 -25 l 1
 446 -123 l 1
 298 -97 l 1
 317 8 l 1
 192 72 107 227 107 427 c 2
 107 597 l 2
 107 851 218 1048 452 1048 c 2
 470 1048 l 2
 481 1048 493 1048 504 1047 c 1
 531 1195 l 1
477 898 m 1
 452 898 l 2
 296 898 257 738 257 597 c 2
 257 427 l 2
 257 310 293 220 346 170 c 1
 477 898 l 1
EndSplineSet
Validated: 3073
EndChar

StartChar: sterling
Encoding: 163 163 97
Width: 922
VWidth: 1947
GlyphClass: 2
Flags: W
HStem: -25 150<529.565 763.523> 57 142<353.27 495.578> 656 150<70 189 419 720> 1275 150<314.141 598.599>
VStem: 107 150<913.625 1214.26> 287 150<313.656 653.365> 665 150<1066 1199.9>
LayerCount: 2
Fore
SplineSet
633 1192 m 0xbe
 598 1247 538 1275 470 1275 c 2
 452 1275 l 2
 296 1275 257 1180 257 1083 c 2
 257 1044 l 2
 257 1012 267 983 294 929 c 2
 356 806 l 1
 720 806 l 1
 720 656 l 1
 419 656 l 1
 432 604 437 551 437 516 c 2
 437 470 l 2
 437 377 402 282 352 199 c 1
 391 199 l 2x7e
 432 199 490 195 519 176 c 2
 588 131 l 2
 597 126 621 125 625 125 c 2
 650 125 l 2
 670 125 734 132 765 163 c 1
 879 67 l 1
 854 40 787 -25 650 -25 c 2
 625 -25 l 2xbe
 588 -25 534 -13 510 3 c 2
 439 50 l 2
 429 57 410 57 388 57 c 3x7e
 326 57 229 36 164 -4 c 2
 130 -25 l 1
 50 101 l 1
 82 122 l 2
 163 174 287 331 287 470 c 2
 287 516 l 2
 287 530 283 600 263 656 c 1
 70 656 l 1
 70 806 l 1
 189 806 l 1
 160 863 l 2
 133 919 107 974 107 1044 c 2
 107 1083 l 2
 107 1306 253 1425 452 1425 c 2
 470 1425 l 2
 586 1425 801 1365 815 1066 c 1
 665 1060 l 1
 664 1097 651 1164 633 1192 c 0xbe
EndSplineSet
Validated: 3073
EndChar

StartChar: euro
Encoding: 8364 8364 98
Width: 922
VWidth: 1947
GlyphClass: 2
Flags: W
HStem: -25 150<445.358 678.306> 490 150<60 181 341 613> 832 150<90 182 343 743> 1275 150<432.4 681.695>
VStem: 190 151<273.346 490 640 832 982 1154>
LayerCount: 2
Fore
SplineSet
90 832 m 1
 90 982 l 1
 190 982 l 1
 217 1214 303 1425 544 1425 c 3
 664 1425 782 1380 841 1267 c 1
 709 1197 l 1
 682 1248 624 1275 544 1275 c 3
 434 1275 369 1189 343 982 c 1
 743 982 l 1
 743 832 l 1
 332 832 l 1
 331 640 l 1
 613 640 l 1
 613 490 l 1
 341 490 l 1
 365 254 429 125 544 125 c 3
 624 125 681 153 708 206 c 1
 842 138 l 1
 783 23 666 -25 544 -25 c 3
 292 -25 214 246 190 490 c 1
 60 490 l 1
 60 640 l 1
 181 640 l 1
 182 832 l 1
 90 832 l 1
EndSplineSet
Validated: 3073
EndChar

StartChar: yen
Encoding: 165 165 99
Width: 922
VWidth: 1947
GlyphClass: 2
Flags: W
HStem: 48 150<90 387 537 832> 307 150<90 387 537 832> 1380 20G<90 253.636 668.426 832>
VStem: 387 149<-160 48 198 307 457 501>
LayerCount: 2
Fore
SplineSet
832 457 m 1
 832 307 l 1
 537 307 l 1
 537 198 l 1
 832 198 l 1
 832 48 l 1
 536 48 l 1
 536 -160 l 1
 387 -160 l 1
 387 48 l 1
 90 48 l 1
 90 198 l 1
 387 198 l 1
 387 307 l 1
 90 307 l 1
 90 457 l 1
 387 457 l 1
 387 501 l 1
 90 1400 l 1
 247 1400 l 1
 462 752 l 1
 675 1400 l 1
 832 1400 l 1
 537 501 l 1
 537 457 l 1
 832 457 l 1
EndSplineSet
Validated: 3073
EndChar

StartChar: section
Encoding: 167 167 101
Width: 922
VWidth: 1947
GlyphClass: 2
Flags: W
HStem: -169 150<388.542 599.679> 340 150<330.768 582.774> 891 150<346.355 585.203> 1415 150<322.321 533.421>
VStem: 107 150<563.127 818.305 1125.49 1345.27> 665 150<48.0245 261.781 560.653 815.552>
LayerCount: 2
Fore
SplineSet
470 891 m 2
 452 891 l 2
 352 891 257 800 257 714 c 2
 257 667 l 2
 257 567 360 490 452 490 c 2
 470 490 l 2
 562 490 665 566 665 667 c 2
 665 714 l 2
 665 800 570 891 470 891 c 2
453 1041 m 2
 470 1041 l 2
 652 1041 815 886 815 714 c 2
 815 667 l 2
 815 561 758 475 677 413 c 1
 756 354 815 266 815 172 c 2
 815 149 l 2
 815 -24 656 -169 497 -169 c 2
 481 -169 l 2
 343 -169 229 -51 187 52 c 1
 325 110 l 1
 350 50 419 -19 481 -19 c 2
 497 -19 l 2
 579 -19 665 65 665 149 c 2
 665 172 l 2
 665 249 551 340 469 340 c 2
 452 340 l 2
 272 340 107 489 107 667 c 2
 107 714 l 2
 107 815 161 925 239 977 c 1
 163 1040 107 1130 107 1224 c 2
 107 1247 l 2
 107 1413 266 1565 425 1565 c 2
 441 1565 l 2
 558 1565 677 1472 732 1351 c 1
 596 1289 l 1
 570 1345 503 1415 441 1415 c 2
 425 1415 l 2
 342 1415 257 1323 257 1247 c 2
 257 1224 l 2
 257 1140 373 1041 453 1041 c 2
EndSplineSet
Validated: 3073
EndChar

StartChar: copyright
Encoding: 169 169 103
Width: 922
VWidth: 1947
GlyphClass: 2
Flags: W
HStem: 128 126<291.478 627.133> 346 135<366.099 572.08> 703 135<366.053 571.817> 930 126<292.722 630.829>
VStem: 14 126<417.825 769.011> 212 135<499.288 684.828> 782 126<412.104 773.022>
LayerCount: 2
Fore
SplineSet
908 593 m 3
 908 361 754 128 461 128 c 3
 174 128 14 354 14 593 c 3
 14 836 178 1056 461 1056 c 3
 744 1056 908 842 908 593 c 3
461 930 m 3
 249 930 140 769 140 593 c 3
 140 419 247 254 461 254 c 3
 679 254 782 425 782 593 c 3
 782 766 680 930 461 930 c 3
457 346 m 3
 309 346 212 453 212 592 c 3
 212 731 308 838 457 838 c 3
 565 838 620 785 638 766 c 1
 539 674 l 1
 517 696 486 703 457 703 c 3
 378 703 347 650 347 592 c 3
 347 535 377 481 457 481 c 3
 507 481 529 500 540 512 c 1
 639 420 l 1
 590 368 525 346 457 346 c 3
EndSplineSet
Validated: 3073
EndChar

StartChar: ordfeminine
Encoding: 170 170 104
Width: 922
VWidth: 1947
GlyphClass: 2
Flags: W
HStem: 244 150<90 832> 518 150<335.477 561.92> 938 150<332.359 624> 1307 150<330.437 591.75>
VStem: 149 150<705.161 902.712> 624 150<536 575 729.34 938 1088 1273.51>
LayerCount: 2
Fore
SplineSet
832 394 m 1
 832 244 l 1
 90 244 l 1
 90 394 l 1
 832 394 l 1
469 668 m 2
 543 668 624 764 624 823 c 2
 624 938 l 1
 454 938 l 2
 322 938 299 845 299 827 c 2
 299 784 l 2
 299 740 349 668 454 668 c 2
 469 668 l 2
454 1088 m 2
 624 1088 l 1
 624 1152 l 2
 624 1268 573 1307 469 1307 c 2
 454 1307 l 2
 374 1307 332 1283 313 1238 c 1
 175 1296 l 1
 215 1391 303 1457 454 1457 c 2
 469 1457 l 2
 647 1457 774 1362 774 1152 c 2
 774 536 l 1
 624 536 l 1
 624 575 l 1
 583 546 532 524 469 518 c 2
 454 518 l 2
 317 518 149 597 149 784 c 2
 149 823 l 2
 149 927 224 1088 454 1088 c 2
EndSplineSet
Validated: 3073
EndChar

StartChar: guillemotleft
Encoding: 171 171 105
Width: 922
VWidth: 1947
GlyphClass: 2
Flags: W
LayerCount: 2
Fore
SplineSet
708 86 m 1
 517 404 l 1
 517 533 l 1
 708 852 l 1
 836 776 l 1
 667 491 l 1
 667 446 l 1
 836 162 l 1
 708 86 l 1
288 86 m 1
 97 404 l 1
 97 533 l 1
 288 852 l 1
 416 776 l 1
 247 491 l 1
 247 446 l 1
 416 162 l 1
 288 86 l 1
EndSplineSet
Validated: 3073
EndChar

StartChar: logicalnot
Encoding: 172 172 106
Width: 922
VWidth: 1708
GlyphClass: 2
Flags: W
HStem: 525 150<50 665>
VStem: 665 150<214 525>
LayerCount: 2
Fore
SplineSet
50 675 m 1
 815 675 l 1
 815 214 l 1
 665 214 l 1
 665 525 l 1
 50 525 l 1
 50 675 l 1
EndSplineSet
Validated: 3073
EndChar

StartChar: softhyphen
Encoding: 173 173 107
Width: 922
VWidth: 1947
GlyphClass: 2
Flags: W
HStem: 525 150<222 700>
VStem: 222 478<525 675>
LayerCount: 2
Fore
SplineSet
700 675 m 1
 700 525 l 1
 222 525 l 1
 222 675 l 1
 700 675 l 1
EndSplineSet
Validated: 3073
EndChar

StartChar: registered
Encoding: 174 174 108
Width: 922
VWidth: 1947
GlyphClass: 2
Flags: W
HStem: 128 126<291.499 624.053> 712 113<419 530.973> 930 126<291.314 632.653>
VStem: 14 126<414.237 772.772> 281 135<369 505 597 712> 535 129<598.622 710.604> 782 126<414.049 777.732>
LayerCount: 2
Fore
SplineSet
419 597 m 1
 477 597 l 2
 525 597 535 635 535 649 c 2
 535 676 l 2
 535 686 517 712 477 712 c 2
 419 712 l 1
 419 597 l 1
140 595 m 3
 140 420 248 254 461 254 c 3
 680 254 782 428 782 595 c 3
 782 768 681 930 461 930 c 3
 258 930 140 781 140 595 c 3
281 825 m 1
 477 825 l 2
 637 825 664 736 664 684 c 2
 664 653 l 2
 664 620 655 560 587 526 c 1
 670 408 l 1
 561 330 l 1
 436 505 l 1
 416 505 l 1
 416 369 l 1
 281 369 l 1
 281 825 l 1
908 595 m 3
 908 364 755 128 461 128 c 3
 173 128 14 357 14 595 c 3
 14 838 178 1056 461 1056 c 3
 752 1056 908 835 908 595 c 3
EndSplineSet
Validated: 3073
EndChar

StartChar: degree
Encoding: 176 176 110
Width: 922
VWidth: 1947
GlyphClass: 2
Flags: W
HStem: 807 150<348.744 573.649> 1258 150<349.538 573.879>
VStem: 161 150<995.888 1220.36> 611 150<996.785 1220.19>
LayerCount: 2
Fore
SplineSet
761 1108 m 3
 761 946 649 807 461 807 c 3
 274 807 161 944 161 1108 c 3
 161 1275 277 1408 461 1408 c 3
 650 1408 761 1273 761 1108 c 3
461 1258 m 3
 355 1258 311 1186 311 1108 c 3
 311 1030 354 957 461 957 c 3
 569 957 611 1033 611 1108 c 3
 611 1172 581 1258 461 1258 c 3
EndSplineSet
Validated: 3073
EndChar

StartChar: plusminus
Encoding: 177 177 111
Width: 922
VWidth: 1947
GlyphClass: 2
Flags: W
HStem: 33 150<50 872> 787 150<50 386 536 872>
VStem: 386 150<419 787 937 1273>
LayerCount: 2
Fore
SplineSet
872 183 m 1
 872 33 l 1
 50 33 l 1
 50 183 l 1
 872 183 l 1
872 937 m 1
 872 787 l 1
 536 787 l 1
 536 419 l 1
 386 419 l 1
 386 787 l 1
 50 787 l 1
 50 937 l 1
 386 937 l 1
 386 1273 l 1
 536 1273 l 1
 536 937 l 1
 872 937 l 1
EndSplineSet
Validated: 3073
EndChar

StartChar: twosuperior
Encoding: 178 178 112
Width: 922
VWidth: 2334
GlyphClass: 2
Flags: W
HStem: 575 150<428 686> 1275 150<403.564 556.833>
VStem: 560 150<1088.07 1269.39>
LayerCount: 2
Fore
SplineSet
477 1425 m 2
 487 1425 l 2
 635 1425 710 1319 710 1217 c 2
 710 1195 l 2
 710 1158 694 1064 643 1005 c 2
 461 796 l 2
 449 781 440 758 428 725 c 1
 686 725 l 1
 686 575 l 1
 280 575 l 1
 280 756 l 1
 304 829 323 864 345 890 c 2
 527 1099 l 2
 553 1129 560 1185 560 1195 c 2
 560 1217 l 2
 560 1254 539 1275 487 1275 c 2
 477 1275 l 2
 429 1275 415 1262 403 1234 c 1
 265 1294 l 1
 306 1388 369 1425 477 1425 c 2
EndSplineSet
Validated: 3073
EndChar

StartChar: threesuperior
Encoding: 179 179 113
Width: 922
VWidth: 2334
GlyphClass: 2
Flags: W
HStem: 557 150<377.132 552.388> 947 150<356 524.639> 1285 150<361.577 531.882>
VStem: 202 150<734.623 812> 540 150<1107.83 1278.25> 570 150<725.903 932.131>
LayerCount: 2
Fore
SplineSet
455 1285 m 2xf8
 413 1285 375 1266 357 1233 c 1
 220 1295 l 1
 235 1320 315 1435 455 1435 c 2
 467 1435 l 2
 601 1435 690 1335 690 1212 c 2
 690 1189 l 2xf8
 690 1166 684 1108 642 1048 c 1
 701 1003 720 923 720 847 c 2
 720 836 l 2
 720 663 619 557 467 557 c 2
 455 557 l 2
 338 557 202 667 202 812 c 1
 352 812 l 1
 352 756 414 707 455 707 c 2
 467 707 l 2
 538 707 570 752 570 836 c 2
 570 847 l 2xf4
 570 924 524 947 467 947 c 2
 356 947 l 1
 356 1097 l 1
 468 1097 l 2
 497 1097 540 1142 540 1189 c 2
 540 1212 l 2
 540 1252 518 1285 467 1285 c 2
 455 1285 l 2xf8
EndSplineSet
Validated: 3073
EndChar

StartChar: micro
Encoding: 181 181 115
Width: 922
VWidth: 2334
GlyphClass: 2
Flags: W
HStem: -25 150<339.647 560.868> 1004 20G<107 257 665 815>
VStem: 107 150<-320.155 41 213.672 1024> 665 150<248.2 1024>
LayerCount: 2
Fore
SplineSet
665 60 m 1
 611 9 546 -25 470 -25 c 2
 452 -25 l 2
 377 -25 311 -1 257 41 c 1
 257 -25 l 2
 257 -163 254 -240 212 -371 c 1
 70 -325 l 1
 104 -221 107 -159 107 -25 c 2
 107 1024 l 1
 257 1024 l 1
 257 397 l 2
 257 258 319 125 452 125 c 2
 470 125 l 2
 573 125 665 292 665 397 c 2
 665 1024 l 1
 815 1024 l 1
 815 99 l 2
 815 47 826 35 842 -17 c 1
 698 -63 l 1
 683 -15 669 13 665 60 c 1
EndSplineSet
Validated: 3073
EndChar

StartChar: paragraph
Encoding: 182 182 116
Width: 922
VWidth: 1947
GlyphClass: 2
Flags: W
HStem: 0 21G<305 455 665 815> 1325 150<455 665>
VStem: 77 378<826.217 1313.91> 305 150<0 698.865> 665 150<0 1325>
LayerCount: 2
Fore
SplineSet
305 689 m 1xd8
 199 707 77 786 77 1057 c 2
 77 1127 l 2xe8
 77 1350 221 1475 362 1475 c 2
 815 1475 l 1
 815 0 l 1
 665 -0 l 1
 665 1325 l 1
 455 1325 l 1
 455 -0 l 1
 305 0 l 1
 305 689 l 1xd8
EndSplineSet
Validated: 3073
EndChar

StartChar: periodcentered
Encoding: 183 183 117
Width: 922
VWidth: 1947
GlyphClass: 2
Flags: W
HStem: 601 293<355.5 565.25>
VStem: 314 292<642.271 851.527>
LayerCount: 2
Fore
SplineSet
606 747 m 3
 606 669 547 601 460 601 c 3
 376 601 314 669 314 747 c 3
 314 823 373 894 460 894 c 3
 546 894 606 825 606 747 c 3
EndSplineSet
Validated: 3073
EndChar

StartChar: onesuperior
Encoding: 185 185 119
Width: 922
VWidth: 1708
GlyphClass: 2
Flags: W
HStem: 1405 20G<487 601>
VStem: 451 150<641 1230>
LayerCount: 2
Fore
SplineSet
601 1425 m 1
 601 641 l 1
 451 641 l 1
 451 1230 l 1
 361 1179 l 1
 313 1236 l 1
 487 1423 l 1
 491 1425 l 1
 601 1425 l 1
EndSplineSet
Validated: 3073
EndChar

StartChar: ordmasculine
Encoding: 186 186 120
Width: 922
VWidth: 1947
GlyphClass: 2
Flags: W
HStem: 244 150<90 832> 523 150<358.127 563.873> 1310 150<362.69 559.31>
VStem: 140 150<747.542 1223.33> 632 150<747.542 1223.33>
LayerCount: 2
Fore
SplineSet
832 394 m 1
 832 244 l 1
 90 244 l 1
 90 394 l 1
 832 394 l 1
782 983 m 3
 782 668 654 523 461 523 c 3
 268 523 140 668 140 983 c 3
 140 1393 333 1460 461 1460 c 3
 589 1460 782 1393 782 983 c 3
461 1310 m 3
 318 1310 290 1125 290 983 c 3
 290 758 354 673 461 673 c 3
 568 673 632 758 632 983 c 3
 632 1125 604 1310 461 1310 c 3
EndSplineSet
Validated: 3073
EndChar

StartChar: guillemotright
Encoding: 187 187 121
Width: 922
VWidth: 1947
GlyphClass: 2
Flags: W
LayerCount: 2
Fore
SplineSet
255 446 m 1
 255 491 l 1
 86 776 l 1
 214 852 l 1
 405 533 l 1
 405 404 l 1
 214 86 l 1
 86 162 l 1
 255 446 l 1
675 446 m 1
 675 491 l 1
 506 776 l 1
 634 852 l 1
 825 533 l 1
 825 404 l 1
 634 86 l 1
 506 162 l 1
 675 446 l 1
EndSplineSet
Validated: 3073
EndChar

StartChar: OE
Encoding: 338 338 122
Width: 922
VWidth: 1947
GlyphClass: 2
Flags: W
HStem: 0 150<196.765 428.242 596 821> 657 150<596 770> 1250 150<197.165 429.704 596 821>
VStem: 26 150<171.352 1230.13> 446 150<169.097 657 807 1232.14>
LayerCount: 2
Fore
SplineSet
285 1400 m 2
 341 1400 l 2
 377 1400 413 1392 446 1378 c 1
 446 1400 l 1
 821 1400 l 1
 821 1250 l 1
 596 1250 l 1
 596 807 l 1
 770 807 l 1
 770 657 l 1
 596 657 l 1
 596 150 l 1
 821 150 l 1
 821 0 l 1
 446 0 l 1
 446 23 l 1
 413 8 378 0 341 0 c 2
 285 0 l 2
 144 0 26 109 26 244 c 2
 26 1156 l 2
 26 1295 145 1400 285 1400 c 2
176 1156 m 2
 176 244 l 2
 176 198 220 150 285 150 c 2
 341 150 l 2
 388 150 446 189 446 244 c 2
 446 1156 l 2
 446 1215 388 1250 341 1250 c 2
 285 1250 l 2
 219 1250 176 1203 176 1156 c 2
EndSplineSet
Validated: 3073
EndChar

StartChar: oe
Encoding: 339 339 123
Width: 922
VWidth: 1947
GlyphClass: 2
Flags: W
HStem: -25 150<191.874 367.346 552.208 730.134> 467 150<536 746> 899 150<189.382 369.792 554.654 730.936>
VStem: 26 150<142.267 881.733> 386 150<144.177 467 617 879.823> 746 150<142.267 219 617 881.733>
CounterMasks: 1 1c
LayerCount: 2
Fore
SplineSet
536 805 m 2
 536 617 l 1
 746 617 l 1
 746 805 l 2
 746 868 698 899 641 899 c 3
 594 899 536 860 536 805 c 2
536 219 m 2
 536 160 594 125 641 125 c 3
 696 125 746 157 746 219 c 1
 896 219 l 1
 896 73 779 -25 641 -25 c 3
 574 -25 508 1 460 47 c 1
 413 2 348 -25 281 -25 c 3
 142 -25 26 73 26 219 c 2
 26 805 l 2
 26 951 145 1049 281 1049 c 3
 348 1049 414 1023 462 977 c 1
 509 1022 574 1049 641 1049 c 3
 782 1049 896 951 896 805 c 2
 896 467 l 1
 536 467 l 1
 536 219 l 2
176 805 m 2
 176 219 l 2
 176 158 222 125 281 125 c 3
 328 125 386 164 386 219 c 2
 386 805 l 2
 386 864 328 899 281 899 c 3
 226 899 176 867 176 805 c 2
EndSplineSet
Validated: 3073
EndChar

StartChar: AE
Encoding: 198 198 132
Width: 922
VWidth: 1947
GlyphClass: 2
Flags: W
HStem: 0 150<596 821> 689 150<292 446 596 770> 1250 150<361.588 446 596 821>
VStem: 446 150<150 689 839 1250>
LayerCount: 2
Fore
SplineSet
446 839 m 1
 446 1250 l 1
 411 1247 350 1231 339 1157 c 2
 292 839 l 1
 446 839 l 1
16 -0 m 1
 191 1179 l 2
 210 1305 308 1394 446 1400 c 1
 821 1400 l 1
 821 1250 l 1
 596 1250 l 1
 596 839 l 1
 770 839 l 1
 770 689 l 1
 596 689 l 1
 596 150 l 1
 821 150 l 1
 821 0 l 1
 446 0 l 1
 446 689 l 1
 269 689 l 1
 167 0 l 1
 16 -0 l 1
EndSplineSet
Validated: 3073
EndChar

StartChar: Eth
Encoding: 208 208 142
Width: 922
VWidth: 1947
GlyphClass: 2
Flags: W
HStem: 0 150<297 559.522> 681 150<42 147 297 452> 1250 150<297 569.951>
VStem: 147 150<150 681 831 1250> 675 150<318.152 1111.31>
LayerCount: 2
Fore
SplineSet
825 732 m 3
 825 446 793 0 461 0 c 2
 147 0 l 1
 147 681 l 1
 42 681 l 1
 42 831 l 1
 147 831 l 1
 147 1400 l 1
 461 1400 l 2
 786 1400 825 1050 825 732 c 3
461 1250 m 2
 297 1250 l 1
 297 831 l 1
 452 831 l 1
 452 681 l 1
 297 681 l 1
 297 150 l 1
 461 150 l 2
 606 150 675 336 675 732 c 3
 675 1121 609 1250 461 1250 c 2
EndSplineSet
Validated: 3073
EndChar

StartChar: multiply
Encoding: 215 215 149
Width: 922
VWidth: 1708
GlyphClass: 2
Flags: W
LayerCount: 2
Fore
SplineSet
698 975 m 1
 806 871 l 1
 564 616 l 1
 806 361 l 1
 698 257 l 1
 461 507 l 1
 224 257 l 1
 116 361 l 1
 358 616 l 1
 116 871 l 1
 224 975 l 1
 461 725 l 1
 698 975 l 1
EndSplineSet
Validated: 3073
EndChar

StartChar: Thorn
Encoding: 222 222 156
Width: 922
VWidth: 1947
GlyphClass: 2
Flags: W
HStem: 0 21G<107 257> 370 150<257 600.423> 1155 150<257 621.541>
VStem: 107 150<0 370 520 1155 1305 1540> 665 150<584.636 1109.56>
LayerCount: 2
Fore
SplineSet
470 520 m 2
 626 520 665 633 665 747 c 2
 665 970 l 2
 665 1104 619 1155 470 1155 c 2
 257 1155 l 1
 257 520 l 1
 470 520 l 2
257 -0 m 1
 107 0 l 1
 107 1540 l 1
 257 1540 l 1
 257 1305 l 1
 470 1305 l 2
 648 1305 815 1238 815 970 c 2
 815 747 l 2
 815 522 690 370 470 370 c 2
 257 370 l 1
 257 -0 l 1
EndSplineSet
Validated: 3073
EndChar

StartChar: germandbls
Encoding: 223 223 157
Width: 922
VWidth: 1947
GlyphClass: 2
Flags: W
HStem: -25 150<426.842 615.195> 712 150<402 571.009> 1275 150<299.146 573.932>
VStem: 107 150<-388 1230.48> 615 150<904.253 1235.4> 665 150<179.397 645.012>
LayerCount: 2
Fore
SplineSet
107 1096 m 2xf8
 107 1259 176 1425 452 1425 c 2
 470 1425 l 2
 657 1425 765 1299 765 1083 c 2
 765 1044 l 2xf8
 765 935 735 842 686 794 c 1
 770 728 815 619 815 485 c 2
 815 337 l 2
 815 117 695 -25 515 -25 c 2
 507 -25 l 2
 433 -25 374 -7 322 43 c 1
 426 151 l 1
 444 134 460 125 507 125 c 2
 515 125 l 2
 635 125 665 243 665 337 c 2
 665 485 l 2xf4
 665 597 626 712 470 712 c 2
 402 712 l 1
 402 862 l 1
 420 862 l 2
 578 862 615 925 615 1044 c 2
 615 1083 l 2
 615 1186 586 1275 470 1275 c 2
 452 1275 l 2
 305 1275 257 1223 257 1096 c 2
 257 -388 l 1
 107 -388 l 1
 107 1096 l 2xf8
EndSplineSet
Validated: 3073
EndChar

StartChar: ae
Encoding: 230 230 164
Width: 922
VWidth: 1947
GlyphClass: 2
Flags: W
HStem: -25 150<191.874 367.346 552.208 730.134> 467 150<200.786 386 536 746> 899 150<189.895 369.792 553.659 730.837>
VStem: 26 150<142.267 441.44 805 882.847> 386 150<144.177 467 617 879.823> 746 150<142.267 219 617 882.104>
CounterMasks: 1 1c
LayerCount: 2
Fore
SplineSet
386 467 m 1
 285 467 l 2
 225 467 176 422 176 358 c 2
 176 219 l 2
 176 158 222 125 281 125 c 3
 328 125 386 164 386 219 c 2
 386 467 l 1
536 617 m 1
 746 617 l 1
 746 805 l 2
 746 868 699 899 641 899 c 3
 593 899 536 861 536 805 c 2
 536 617 l 1
536 219 m 2
 536 160 594 125 641 125 c 3
 696 125 746 157 746 219 c 1
 896 219 l 1
 896 73 779 -25 641 -25 c 3
 574 -25 508 2 460 48 c 1
 413 3 348 -25 281 -25 c 3
 142 -25 26 73 26 219 c 2
 26 358 l 2
 26 502 139 617 285 617 c 2
 386 617 l 1
 386 805 l 2
 386 864 328 899 281 899 c 3
 227 899 176 867 176 805 c 1
 26 805 l 1
 26 954 147 1049 281 1049 c 3
 348 1049 414 1023 462 977 c 1
 510 1023 576 1049 641 1049 c 3
 781 1049 896 952 896 805 c 2
 896 467 l 1
 536 467 l 1
 536 219 l 2
EndSplineSet
Validated: 3073
EndChar

StartChar: eth
Encoding: 240 240 174
Width: 922
VWidth: 1947
GlyphClass: 2
Flags: W
HStem: -25 150<348.09 584.275> 774 150<341.957 580.043> 1030 21G<202.884 259.6> 1388 20G<691.224 748.116>
VStem: 107 150<234.381 675.206> 665 150<211.785 674.535>
LayerCount: 2
Fore
SplineSet
257 457 m 2
 257 427 l 2
 257 242 347 125 452 125 c 2
 470 125 l 2
 626 125 665 284 665 427 c 2
 665 457 l 2
 665 594 626 774 470 774 c 2
 452 774 l 2
 296 774 257 594 257 457 c 2
452 924 m 2
 470 924 l 2
 516 924 556 916 592 901 c 1
 556 979 508 1057 454 1130 c 1
 211 1030 l 1
 155 1168 l 1
 354 1250 l 1
 312 1296 268 1337 224 1374 c 1
 320 1490 l 1
 377 1442 440 1381 501 1310 c 1
 740 1408 l 1
 796 1270 l 1
 596 1188 l 1
 718 1017 815 813 815 620 c 2
 815 427 l 2
 815 155 692 -25 470 -25 c 2
 452 -25 l 2
 256 -25 107 162 107 427 c 2
 107 457 l 2
 107 705 214 924 452 924 c 2
EndSplineSet
Validated: 3073
EndChar

StartChar: divide
Encoding: 247 247 181
Width: 922
VWidth: 1947
GlyphClass: 2
Flags: W
HStem: 132 218<385.393 555.337> 525 150<50 872> 850 220<384.045 555.014>
VStem: 360 219<156.787 327.443 874.13 1045.87>
LayerCount: 2
Fore
SplineSet
872 675 m 1
 872 525 l 1
 50 525 l 1
 50 675 l 1
 872 675 l 1
579 960 m 3
 579 908 533 850 470 850 c 3
 401 850 360 913 360 960 c 3
 360 1007 401 1070 470 1070 c 3
 533 1070 579 1012 579 960 c 3
579 243 m 3
 579 188 534 132 470 132 c 3
 407 132 360 191 360 243 c 3
 360 292 405 350 470 350 c 3
 535 350 579 292 579 243 c 3
EndSplineSet
Validated: 3073
EndChar

StartChar: oslash
Encoding: 248 248 182
Width: 922
VWidth: 1947
GlyphClass: 2
Flags: W
HStem: -25 150<349.375 588.212> 898 150<335.135 579.804>
VStem: 97 150<312.543 798.092> 675 150<233.836 699.13>
LayerCount: 2
Fore
SplineSet
662 702 m 1
 348 156 l 1
 373 137 403 125 441 125 c 2
 476 125 l 2
 635 125 675 308 675 470 c 2
 675 562 l 2
 675 608 671 656 662 702 c 1
478 898 m 2
 439 898 l 2
 285 898 247 712 247 561 c 2
 247 471 l 2
 247 419 252 362 264 310 c 1
 582 862 l 1
 555 885 521 898 478 898 c 2
718 1099 m 1
 848 1024 l 1
 760 873 l 1
 804 788 825 678 825 562 c 2
 825 470 l 2
 825 64 616 -25 476 -25 c 2
 441 -25 l 2
 375 -25 319 -7 272 24 c 1
 209 -85 l 1
 79 -11 l 1
 167 142 l 1
 120 229 97 344 97 471 c 2
 97 561 l 2
 97 818 195 1048 439 1048 c 2
 478 1048 l 2
 550 1048 610 1028 658 994 c 1
 718 1099 l 1
EndSplineSet
Validated: 3073
EndChar

StartChar: thorn
Encoding: 254 254 188
Width: 922
VWidth: 1947
GlyphClass: 2
Flags: W
HStem: -385 21G<107 257> -25 150<335.848 580.077> 898 150<319.362 580.077> 1380 20G<107 257>
VStem: 107 150<-385 39 209.599 833.154 994 1400> 675 150<246.282 777.892>
LayerCount: 2
Fore
SplineSet
257 374 m 2
 257 222 335 125 461 125 c 3
 589 125 675 229 675 513 c 3
 675 795 589 898 461 898 c 3
 344 898 257 842 257 685 c 2
 257 374 l 2
825 513 m 3
 825 53 607 -25 461 -25 c 3
 382 -25 313 -2 257 39 c 1
 257 -385 l 1
 107 -385 l 1
 107 1400 l 1
 257 1400 l 1
 257 994 l 1
 314 1030 384 1048 461 1048 c 3
 607 1048 825 970 825 513 c 3
EndSplineSet
Validated: 3073
EndChar

StartChar: minus
Encoding: 8722 8722 190
Width: 922
VWidth: 1708
GlyphClass: 2
Flags: W
HStem: 525 150<50 872>
LayerCount: 2
Fore
SplineSet
872 675 m 1
 872 525 l 1
 50 525 l 1
 50 675 l 1
 872 675 l 1
EndSplineSet
Validated: 3073
EndChar

StartChar: gravemodifier
Encoding: 715 715 193
Width: 922
VWidth: 2334
GlyphClass: 2
Flags: MW
HStem: 1319 407
VStem: 292 398
DStem2: 432 1726 292 1591 0.688188 -0.725532<1.60044 374.897>
LayerCount: 2
Fore
SplineSet
690 1454 m 5
 550 1319 l 5
 292 1591 l 5
 432 1726 l 5
 690 1454 l 5
EndSplineSet
Validated: 3073
EndChar

StartChar: acute
Encoding: 180 180 194
Width: 922
VWidth: 1947
GlyphClass: 2
Flags: MW
HStem: 1189 477
VStem: 253 417
DStem2: 253 1303 411 1189 0.580814 0.814036<0 444.894>
LayerCount: 2
Fore
SplineSet
411 1189 m 5
 253 1303 l 5
 512 1666 l 5
 670 1552 l 5
 411 1189 l 5
EndSplineSet
Validated: 3073
EndChar

StartChar: circumflex
Encoding: 710 710 195
Width: 922
VWidth: 1947
GlyphClass: 2
Flags: W
HStem: 1400 238
VStem: 218 486
LayerCount: 2
Fore
SplineSet
538 1638 m 1
 704 1521 l 1
 618 1400 l 1
 461 1508 l 1
 304 1400 l 1
 218 1521 l 1
 384 1638 l 1
 538 1638 l 1
EndSplineSet
Validated: 3073
EndChar

StartChar: tilde
Encoding: 732 732 196
Width: 922
VWidth: 1947
GlyphClass: 2
Flags: W
HStem: 1447 150<490.493 656.226> 1537 150<271.29 433.219>
VStem: 122 680
LayerCount: 2
Fore
SplineSet
141 1572 m 2x60
 167 1605 239 1687 334 1687 c 2
 350 1687 l 2x60
 388 1687 445 1680 501 1632 c 2
 520 1615 l 2
 532 1605 560 1597 571 1597 c 2
 588 1597 l 2
 616 1599 632 1605 662 1650 c 2
 678 1674 l 1
 802 1590 l 1
 786 1566 l 2
 715 1460 629 1447 588 1447 c 2
 571 1447 l 2xa0
 533 1447 465 1464 420 1503 c 2
 399 1521 l 2
 384 1534 365 1537 350 1537 c 2
 334 1537 l 2
 310 1537 293 1522 261 1483 c 2
 242 1457 l 1
 122 1547 l 1
 141 1572 l 2x60
EndSplineSet
Validated: 3073
EndChar

StartChar: macronmodifier
Encoding: 713 713 197
Width: 922
VWidth: 1947
GlyphClass: 2
Flags: W
HStem: 1463 150<234 687>
VStem: 234 453<1463 1613>
LayerCount: 2
Fore
SplineSet
234 1463 m 1
 234 1613 l 1
 687 1613 l 1
 687 1463 l 1
 234 1463 l 1
EndSplineSet
Validated: 3073
EndChar

StartChar: breve
Encoding: 728 728 198
Width: 922
VWidth: 1947
GlyphClass: 2
Flags: W
HStem: 1405 150<329.043 592.085>
VStem: 171 579
LayerCount: 2
Fore
SplineSet
458 1405 m 0
 343 1405 241 1460 171 1544 c 1
 286 1640 l 1
 353 1559 432 1555 458 1555 c 0
 529 1555 592 1589 636 1641 c 1
 750 1544 l 1
 678 1460 574 1405 458 1405 c 0
EndSplineSet
Validated: 3073
EndChar

StartChar: dotaccent
Encoding: 729 729 199
Width: 922
VWidth: 1947
GlyphClass: 2
Flags: W
HStem: 1390 234<364.453 548.78>
VStem: 340 234<1416.59 1597.41>
LayerCount: 2
Fore
SplineSet
340 1507 m 27
 340 1572 391 1624 456 1624 c 27
 521 1624 574 1572 574 1507 c 27
 574 1442 521 1390 456 1390 c 27
 391 1390 340 1442 340 1507 c 27
EndSplineSet
Validated: 3073
EndChar

StartChar: dieresis
Encoding: 168 168 200
Width: 922
VWidth: 1947
GlyphClass: 2
Flags: W
HStem: 1409 228<129.461 301.639 620.386 792.229>
VStem: 105 222<1433.07 1613> 596 220<1433.69 1613.7>
LayerCount: 2
Fore
SplineSet
327 1524 m 3
 327 1463 277 1409 217 1409 c 3
 157 1409 105 1459 105 1524 c 3
 105 1592 160 1637 215 1637 c 3
 279 1637 327 1584 327 1524 c 3
816 1524 m 3
 816 1457 763 1409 707 1409 c 3
 648 1409 596 1461 596 1524 c 3
 596 1589 648 1637 707 1637 c 3
 760 1637 816 1592 816 1524 c 3
EndSplineSet
Validated: 3073
EndChar

StartChar: ring
Encoding: 730 730 202
Width: 922
VWidth: 1947
GlyphClass: 2
Flags: W
HStem: 1223 110<375.515 530.788> 1517 110<375.515 530.788>
VStem: 251 110<1346.23 1503.77> 545 110<1348.51 1501.49>
LayerCount: 2
Fore
SplineSet
251 1425 m 27
 251 1537 339 1627 451 1627 c 27
 563 1627 655 1537 655 1425 c 27
 655 1313 563 1223 451 1223 c 27
 339 1223 251 1313 251 1425 c 27
361 1425 m 27
 361 1374 401 1333 452 1333 c 27
 503 1333 545 1374 545 1425 c 27
 545 1476 503 1517 452 1517 c 27
 401 1517 361 1476 361 1425 c 27
EndSplineSet
Validated: 3073
EndChar

StartChar: cedilla
Encoding: 184 184 203
Width: 922
VWidth: 1947
GlyphClass: 2
Flags: W
HStem: -486 140<367.786 600.375> -186 204<423 567.375>
VStem: 423 150<-74.0987 18> 612 150<-327.797 -206.161>
LayerCount: 2
Fore
SplineSet
612 -270 m 27
 612 -212 534 -186 489 -186 c 2
 409 -186 l 1
 423 3 l 1
 423 18 l 1
 573 18 l 1
 573 -3 l 1
 569 -63 l 1
 748 -95 762 -211 762 -270 c 3
 762 -436 587 -486 501 -486 c 3
 401 -486 318 -449 251 -391 c 1
 349 -287 l 1
 388 -321 437 -346 501 -346 c 3
 537 -346 612 -322 612 -270 c 27
EndSplineSet
Validated: 3073
EndChar

StartChar: ogonek
Encoding: 731 731 204
Width: 922
VWidth: 1947
GlyphClass: 2
Flags: W
HStem: -420 150<444.42 590.789>
VStem: 293 150<-267.794 -148.901>
LayerCount: 2
Fore
SplineSet
629 -371 m 1
 594 -400 547 -420 496 -420 c 3
 383 -420 293 -327 293 -216 c 3
 293 -161 315 -111 350 -74 c 2
 455 31 l 1
 455 72 l 1
 605 72 l 1
 605 -31 l 1
 458 -178 l 2
 449 -188 443 -200 443 -216 c 3
 443 -246 468 -270 496 -270 c 3
 509 -270 520 -266 531 -257 c 2
 558 -234 l 1
 656 -347 l 1
 629 -371 l 1
EndSplineSet
Validated: 3073
EndChar

StartChar: caron
Encoding: 711 711 205
Width: 922
VWidth: 1947
GlyphClass: 2
Flags: W
HStem: 1422 239
VStem: 218 486
LayerCount: 2
Fore
SplineSet
461 1552 m 1
 618 1661 l 1
 704 1539 l 1
 538 1422 l 1
 384 1422 l 1
 218 1539 l 1
 304 1661 l 1
 461 1552 l 1
EndSplineSet
Validated: 3073
EndChar

StartChar: dotlessi
Encoding: 305 305 206
Width: 922
VWidth: 1947
GlyphClass: 2
Flags: W
HStem: 0 150<182 386 536 740> 874 150<182 386>
VStem: 386 150<150 874>
LayerCount: 2
Fore
SplineSet
182 1024 m 1
 536 1024 l 1
 536 150 l 1
 740 150 l 1
 740 0 l 1
 182 0 l 1
 182 150 l 1
 386 150 l 1
 386 874 l 1
 182 874 l 1
 182 1024 l 1
EndSplineSet
Validated: 3073
EndChar

StartChar: currency
Encoding: 164 164 210
Width: 922
VWidth: 1947
GlyphClass: 2
Flags: W
HStem: 454 150<349.067 573.746> 964 150<350.199 571.801>
VStem: 135 150<667.538 897.68> 637 150<667.954 899.12>
LayerCount: 2
Fore
SplineSet
787 796 m 2
 787 772 l 2
 787 713 769 658 739 610 c 1
 863 486 l 1
 757 380 l 1
 633 504 l 1
 583 472 526 454 469 454 c 2
 453 454 l 2
 395 454 338 472 289 504 c 1
 165 380 l 1
 59 486 l 1
 184 611 l 1
 153 659 135 715 135 772 c 2
 135 796 l 2
 135 852 153 906 183 954 c 1
 59 1078 l 1
 165 1184 l 1
 288 1061 l 1
 338 1094 396 1114 453 1114 c 2
 469 1114 l 2
 527 1114 585 1094 634 1061 c 1
 757 1184 l 1
 863 1078 l 1
 739 954 l 1
 769 906 787 851 787 796 c 2
469 964 m 2
 453 964 l 2
 370 964 285 872 285 796 c 2
 285 772 l 2
 285 685 375 604 453 604 c 2
 469 604 l 2
 549 604 637 686 637 772 c 2
 637 796 l 2
 637 872 552 964 469 964 c 2
EndSplineSet
Validated: 3073
EndChar

StartChar: brokenbar
Encoding: 166 166 211
Width: 922
VWidth: 1947
GlyphClass: 2
Flags: W
VStem: 386 150<-77 600 832 1477>
LayerCount: 2
Fore
SplineSet
386 600 m 1
 536 600 l 1
 536 -77 l 1
 386 -77 l 1
 386 600 l 1
386 1477 m 1
 536 1477 l 1
 536 832 l 1
 386 832 l 1
 386 1477 l 1
EndSplineSet
Validated: 3073
EndChar

StartChar: onequarter
Encoding: 188 188 212
Width: 922
VWidth: 1708
GlyphClass: 2
Flags: W
HStem: -34 150<629 703 853 886>
VStem: 141 150<803 1362> 703 150<-209 -34 116 245>
LayerCount: 2
Fore
SplineSet
703 245 m 1
 629 116 l 1
 703 116 l 1
 703 245 l 1
670 1452 m 1
 810 1400 l 1
 252 -52 l 1
 112 0 l 1
 670 1452 l 1
477 153 m 1
 720 575 l 1
 853 575 l 1
 853 116 l 1
 886 116 l 1
 886 -34 l 1
 853 -34 l 1
 853 -209 l 1
 703 -209 l 1
 703 -34 l 1
 477 -34 l 1
 477 153 l 1
291 1581 m 1
 291 803 l 1
 141 803 l 1
 141 1362 l 1
 50 1300 l 1
 3 1351 l 1
 194 1580 l 1
 196 1581 l 1
 291 1581 l 1
EndSplineSet
Validated: 3073
EndChar

StartChar: onehalf
Encoding: 189 189 213
Width: 922
VWidth: 1708
GlyphClass: 2
Flags: W
HStem: -285 150<632 883> 398 150<605.559 754.186>
VStem: 141 150<803 1362> 757 150<196.067 394.225>
LayerCount: 2
Fore
SplineSet
462 402 m 1
 498 479 547 548 674 548 c 2
 684 548 l 2
 833 548 907 456 907 325 c 2
 907 303 l 2
 907 266 891 172 840 113 c 2
 657 -98 l 2
 647 -109 640 -121 632 -135 c 1
 883 -135 l 1
 883 -285 l 1
 428 -285 l 1
 452 -191 l 2
 471 -117 497 -54 543 0 c 2
 724 207 l 2
 750 237 757 293 757 303 c 2
 757 325 l 2
 757 383 739 398 684 398 c 2
 674 398 l 2
 620 398 616 374 600 342 c 1
 462 402 l 1
670 1452 m 1
 810 1400 l 1
 252 -52 l 1
 112 0 l 1
 670 1452 l 1
291 1581 m 1
 291 803 l 1
 141 803 l 1
 141 1362 l 1
 50 1300 l 1
 3 1351 l 1
 194 1580 l 1
 196 1581 l 1
 291 1581 l 1
EndSplineSet
Validated: 3073
EndChar

StartChar: threequarters
Encoding: 190 190 214
Width: 922
VWidth: 1708
GlyphClass: 2
Flags: W
HStem: -34 150<629 703 853 886> 789 150<153.79 313.467> 1181 149<166 301.317> 1404 21G<105.714 166.5> 1453 150<158.336 299.758>
VStem: 305 150<1332.75 1449.88> 332 150<951.357 1166.45> 703 150<-209 -34 116 245>
LayerCount: 2
Fore
SplineSet
17 1460 m 1xfd
 17 1460 71 1603 236 1603 c 2
 246 1603 l 2
 366 1603 455 1496 455 1400 c 2
 455 1389 l 2xfd
 455 1343 437 1295 406 1257 c 1
 448 1219 482 1161 482 1075 c 2
 482 1064 l 2
 482 829 341 789 247 789 c 2
 236 789 l 2
 103 789 0 851 0 983 c 0
 0 984 0 984 0 985 c 1
 153 985 l 1
 154 963 165 939 236 939 c 2
 247 939 l 2
 319 939 332 1017 332 1064 c 2
 332 1075 l 2xfb
 332 1147 287 1181 235 1181 c 2
 166 1181 l 1
 165 1330 l 1
 247 1330 l 2
 282 1330 305 1367 305 1389 c 2
 305 1400 l 2
 305 1415 280 1453 246 1453 c 2
 236 1453 l 2
 217 1453 178 1447 155 1404 c 1
 17 1460 l 1xfd
703 245 m 1
 629 116 l 1
 703 116 l 1
 703 245 l 1
740 1453 m 1
 880 1400 l 1
 322 -52 l 1
 182 0 l 1
 740 1453 l 1
477 153 m 1
 720 575 l 1
 853 575 l 1
 853 116 l 1
 886 116 l 1
 886 -34 l 1
 853 -34 l 1
 853 -209 l 1
 703 -209 l 1
 703 -34 l 1
 477 -34 l 1
 477 153 l 1
EndSplineSet
Validated: 3073
EndChar

StartChar: Lslash
Encoding: 321 321 216
Width: 922
VWidth: 1947
GlyphClass: 2
Flags: W
HStem: 0 151<257 832> 1380 20G<107 257>
VStem: 107 150<151 456 671 1400>
LayerCount: 2
Fore
SplineSet
257 151 m 1
 832 151 l 1
 832 0 l 1
 107 0 l 1
 107 456 l 1
 66 441 l 1
 14 583 l 1
 107 617 l 1
 107 1400 l 1
 257 1400 l 1
 257 671 l 1
 616 801 l 1
 668 659 l 1
 257 510 l 1
 257 151 l 1
EndSplineSet
Validated: 3073
EndChar

StartChar: lslash
Encoding: 322 322 257
Width: 922
VWidth: 1947
GlyphClass: 2
Flags: W
HStem: 0 150<182 386 536 740> 1250 150<182 386>
VStem: 386 150<150 513 729 1250>
LayerCount: 2
Fore
SplineSet
736 801 m 1
 788 659 l 1
 536 568 l 1
 536 150 l 1
 740 150 l 1
 740 0 l 1
 182 0 l 1
 182 150 l 1
 386 150 l 1
 386 513 l 1
 186 441 l 1
 134 583 l 1
 386 674 l 1
 386 1250 l 1
 182 1250 l 1
 182 1400 l 1
 536 1400 l 1
 536 729 l 1
 736 801 l 1
EndSplineSet
Validated: 3073
EndChar

StartChar: dotlessj
Encoding: 567 567 260
Width: 922
VWidth: 1947
GlyphClass: 2
Flags: W
HStem: -369 150<391.242 567.705> 874 150<267 585>
VStem: 217 150<-195.523 -110> 585 150<-197.964 874>
LayerCount: 2
Fore
SplineSet
476 -219 m 3
 540 -219 585 -184 585 -109 c 2
 585 874 l 1
 267 874 l 1
 267 1024 l 1
 735 1024 l 1
 735 -109 l 2
 735 -267 623 -369 476 -369 c 3
 331 -369 217 -246 217 -110 c 1
 367 -110 l 1
 367 -164 416 -219 476 -219 c 3
EndSplineSet
Validated: 3073
EndChar

StartChar: eng
Encoding: 331 331 261
Width: 922
VWidth: 2334
GlyphClass: 2
Flags: W
HStem: -369 150<390.388 616.912> 0 21G<107 257> 899 150<367.694 622.854> 1004 20G<107 257>
VStem: 107 150<0 758.159 957 1024> 665 150<-168.193 854.112>
LayerCount: 2
Fore
SplineSet
257 -0 m 1xec
 107 0 l 1
 107 1024 l 1
 257 1024 l 1xdc
 257 957 l 1
 310 1012 376 1049 452 1049 c 2
 470 1049 l 2
 746 1049 815 883 815 719 c 2
 815 -28 l 2
 815 -216 699 -369 526 -369 c 2
 475 -369 l 2
 399 -369 322 -338 272 -275 c 1
 390 -181 l 1
 398 -191 424 -219 475 -219 c 2
 526 -219 l 2
 611 -219 665 -134 665 -28 c 2
 665 719 l 2
 665 847 617 899 470 899 c 2
 452 899 l 2
 351 899 257 704 257 597 c 2
 257 -0 l 1xec
EndSplineSet
Validated: 3073
EndChar

StartChar: ellipsis
Encoding: 8230 8230 266
Width: 922
VWidth: 1947
GlyphClass: 2
Flags: W
HStem: 32 161<85.7646 220.235 393.734 528.003 700.966 836.003>
VStem: 77 152<39.5804 185.127> 385 152<39.5804 184.739> 692 153<39.5804 184.739>
LayerCount: 2
Fore
SplineSet
845 113 m 3
 845 71 812 32 768 32 c 3
 726 32 692 70 692 113 c 3
 692 155 725 193 768 193 c 3
 813 193 845 152 845 113 c 3
229 113 m 3
 229 71 197 32 153 32 c 3
 110 32 77 70 77 113 c 3
 77 155 109 193 153 193 c 3
 197 193 229 152 229 113 c 3
537 113 m 3
 537 71 504 32 460 32 c 3
 418 32 385 70 385 113 c 3
 385 155 417 193 460 193 c 3
 505 193 537 152 537 113 c 3
EndSplineSet
Validated: 3073
EndChar

StartChar: uparrow
Encoding: 8593 8593 267
Width: 922
VWidth: 1708
GlyphClass: 2
Flags: W
HStem: 1024 20G<381.598 540.402>
VStem: 381 160<209 794>
LayerCount: 2
Fore
SplineSet
541 209 m 1
 381 209 l 1
 381 794 l 1
 158 564 l 1
 44 676 l 1
 401 1044 l 1
 521 1044 l 1
 878 676 l 1
 764 564 l 1
 541 794 l 1
 541 209 l 1
EndSplineSet
Validated: 3073
EndChar

StartChar: downarrow
Encoding: 8595 8595 268
Width: 922
VWidth: 1708
GlyphClass: 2
Flags: W
VStem: 381 160<406 991>
LayerCount: 2
Fore
SplineSet
381 991 m 1
 541 991 l 1
 541 406 l 1
 764 636 l 1
 878 524 l 1
 521 156 l 1
 401 156 l 1
 44 524 l 1
 158 636 l 1
 381 406 l 1
 381 991 l 1
EndSplineSet
Validated: 3073
EndChar

StartChar: spaceopenbox
Encoding: 9251 9251 269
Width: 922
VWidth: 1708
GlyphClass: 2
Flags: W
HStem: -167 291<107 257 665 815> -167 150<257 665>
VStem: 107 150<-17 124> 665 150<-17 124>
LayerCount: 2
Fore
SplineSet
815 124 m 1xb0
 815 -167 l 1
 107 -167 l 1
 107 124 l 1
 257 124 l 1xb0
 257 -17 l 1
 665 -17 l 1x70
 665 124 l 1
 815 124 l 1xb0
EndSplineSet
Validated: 3073
EndChar

StartChar: uni2074
Encoding: 8308 8308 271
Width: 922
VWidth: 1947
GlyphClass: 2
Flags: W
HStem: 764 150<328 526 676 792> 1405 20G<510.917 676>
VStem: 526 150<544 764 914 1177>
LayerCount: 2
Fore
SplineSet
526 1177 m 1
 328 914 l 1
 526 914 l 1
 526 1177 l 1
118 884 m 1
 526 1425 l 1
 676 1425 l 1
 676 914 l 1
 792 914 l 1
 792 764 l 1
 676 764 l 1
 676 544 l 1
 526 544 l 1
 526 764 l 1
 118 764 l 1
 118 884 l 1
EndSplineSet
Validated: 3073
EndChar

StartChar: Eng
Encoding: 330 330 273
Width: 922
VWidth: 2334
GlyphClass: 2
Flags: W
HStem: -369 150<390.388 616.912> 0 21G<107 257> 1275 150<370.877 606.173> 1380 20G<107 257>
VStem: 107 150<0 1124.92 1329 1400> 665 150<-168.193 1215.75>
LayerCount: 2
Fore
SplineSet
257 -0 m 1xec
 107 0 l 1
 107 1400 l 1
 257 1400 l 1xdc
 257 1329 l 1
 310 1386 376 1425 452 1425 c 2
 470 1425 l 2
 684 1425 815 1291 815 1063 c 2
 815 -28 l 2
 815 -216 699 -369 526 -369 c 2
 475 -369 l 2
 399 -369 322 -338 272 -275 c 1
 390 -181 l 1
 398 -191 424 -219 475 -219 c 2
 526 -219 l 2
 611 -219 665 -134 665 -28 c 2
 665 1063 l 2
 665 1222 587 1275 470 1275 c 2
 452 1275 l 2
 352 1275 257 1065 257 958 c 2
 257 -0 l 1xec
EndSplineSet
Validated: 3073
EndChar

StartChar: dcroat
Encoding: 273 273 274
Width: 922
VWidth: 1947
GlyphClass: 2
Flags: W
HStem: -25 150<348.09 584.353> 0 21G<665 815> 899 150<342.183 584.353> 1205 150<370 665 815 862> 1380 20G<665 815>
VStem: 107 150<234.381 804.697> 665 150<0 37 211.785 811.515 987 1205 1355 1400>
LayerCount: 2
Fore
SplineSet
257 597 m 2xbe
 257 427 l 2
 257 242 347 125 452 125 c 2
 470 125 l 2
 626 125 665 284 665 427 c 2
 665 597 l 2
 665 738 626 899 470 899 c 2
 452 899 l 2
 296 899 257 738 257 597 c 2xbe
452 1049 m 2
 470 1049 l 2
 549 1049 614 1026 665 987 c 1
 665 1205 l 1
 370 1205 l 1
 370 1355 l 1
 665 1355 l 1
 665 1400 l 1
 815 1400 l 1
 815 1355 l 1
 862 1355 l 1
 862 1205 l 1
 815 1205 l 1
 815 -0 l 1
 665 0 l 1x7e
 665 37 l 1
 613 -3 547 -25 470 -25 c 2
 452 -25 l 2
 256 -25 107 162 107 427 c 2
 107 597 l 2
 107 851 218 1049 452 1049 c 2
EndSplineSet
Validated: 3073
EndChar

StartChar: bullet
Encoding: 8226 8226 280
Width: 922
VWidth: 1947
GlyphClass: 2
Flags: W
HStem: 471 393<348.801 573.279>
VStem: 271 379<549.429 790.258>
LayerCount: 2
Fore
SplineSet
650 669 m 3
 650 572 564 471 460 471 c 3
 355 471 271 575 271 669 c 3
 271 770 360 864 460 864 c 3
 560 864 650 770 650 669 c 3
EndSplineSet
Validated: 3073
EndChar

StartChar: florin
Encoding: 402 402 281
Width: 922
VWidth: 1947
GlyphClass: 2
Flags: W
HStem: -385 149<133.204 327.341> 752 150<180 396 553 772> 1275 150<585.271 796.981>
VStem: 396 151<443.252 752> 403 150<902 1247.13>
LayerCount: 2
Fore
SplineSet
769 1240 m 1xe8
 761 1250 733 1275 675 1275 c 3
 616 1275 569 1239 566 1177 c 2
 553 902 l 1xe8
 772 902 l 1
 772 752 l 1
 547 752 l 1
 506 -131 l 2
 501 -248 397 -385 247 -385 c 3
 163 -385 74 -338 25 -260 c 1
 153 -180 l 1
 170 -207 209 -236 247 -236 c 3
 303 -236 353 -176 356 -123 c 2
 396 752 l 1xf0
 180 752 l 1
 180 902 l 1
 403 902 l 1
 416 1185 l 2
 423 1324 533 1425 675 1425 c 3
 805 1425 882 1336 895 1320 c 1
 769 1240 l 1xe8
EndSplineSet
Validated: 3073
EndChar

StartChar: dagger
Encoding: 8224 8224 282
Width: 922
VWidth: 1947
GlyphClass: 2
Flags: W
HStem: -385 21G<386 536> 875 149<90 386 536 832> 1405 20G<386 536>
VStem: 386 150<-385 875 1024 1425>
LayerCount: 2
Fore
SplineSet
832 1024 m 1
 832 875 l 1
 536 875 l 1
 536 -385 l 1
 386 -385 l 1
 386 875 l 1
 90 875 l 1
 90 1024 l 1
 386 1024 l 1
 386 1425 l 1
 536 1425 l 1
 536 1024 l 1
 832 1024 l 1
EndSplineSet
Validated: 3073
EndChar

StartChar: daggerdbl
Encoding: 8225 8225 283
Width: 922
VWidth: 1947
GlyphClass: 2
Flags: W
HStem: -385 21G<386 536> 14 150<90 386 536 832> 875 149<90 386 536 832> 1405 20G<386 536>
VStem: 386 150<-385 14 164 875 1024 1425>
LayerCount: 2
Fore
SplineSet
832 1024 m 1
 832 875 l 1
 536 875 l 1
 536 164 l 1
 832 164 l 1
 832 14 l 1
 536 14 l 1
 536 -385 l 1
 386 -385 l 1
 386 14 l 1
 90 14 l 1
 90 164 l 1
 386 164 l 1
 386 875 l 1
 90 875 l 1
 90 1024 l 1
 386 1024 l 1
 386 1425 l 1
 536 1425 l 1
 536 1024 l 1
 832 1024 l 1
EndSplineSet
Validated: 3073
EndChar

StartChar: trademark
Encoding: 8482 8482 284
Width: 922
VWidth: 1947
GlyphClass: 2
Flags: W
HStem: 1250 150<36 161 311 413>
VStem: 161 150<469 1250> 413 150<466 711> 605 112<519 584.536> 758 150<466 708 1335.56 1400>
LayerCount: 2
Fore
SplineSet
413 466 m 1
 413 1250 l 1
 311 1250 l 1
 311 469 l 1
 161 469 l 1
 161 1250 l 1
 36 1250 l 1
 36 1400 l 1
 413 1400 l 1
 565 1400 l 1
 661 964 l 1
 758 1400 l 1
 909 1400 l 1
 908 466 l 1
 758 466 l 1
 758 708 l 1
 717 519 l 1
 605 519 l 1
 563 711 l 1
 563 466 l 1
 413 466 l 1
EndSplineSet
Validated: 3073
EndChar

StartChar: Ecyrillic
Encoding: 1028 1028 290
Width: 922
VWidth: 1708
GlyphClass: 2
Flags: W
HStem: -25 150<368.087 562.58> 681 150<249 560> 1275 150<350.767 562.909>
VStem: 97 150<306.597 681 831 1126.97> 640 144<218.615 293.2 1091.86 1184.66>
LayerCount: 2
Fore
SplineSet
461 -25 m 3
 117 -25 97 479 97 732 c 3
 97 1037 133 1425 461 1425 c 3
 539 1425 716 1400 790 1094 c 1
 644 1058 l 1
 592 1270 498 1275 461 1275 c 3
 327 1275 260 1148 249 831 c 1
 560 830 l 1
 560 681 l 1
 247 681 l 1
 253 324 319 125 461 125 c 3
 497 125 587 130 640 329 c 1
 784 291 l 1
 705 -4 531 -25 461 -25 c 3
EndSplineSet
Validated: 3073
EndChar

StartChar: Becyrillic
Encoding: 1041 1041 298
Width: 922
VWidth: 1947
GlyphClass: 2
Flags: W
HStem: -25 150<257 613.722> 712 150<257 608.646> 1250 150<257 742>
VStem: 107 150<125 712 862 1250> 665 150<180.556 655.703>
LayerCount: 2
Fore
SplineSet
257 712 m 1
 257 125 l 1
 470 125 l 2
 619 125 665 198 665 332 c 2
 665 505 l 2
 665 619 626 712 470 712 c 2
 257 712 l 1
470 862 m 2
 690 862 815 730 815 505 c 2
 815 332 l 2
 815 160 746 -25 470 -25 c 2
 107 -25 l 1
 107 1400 l 1
 742 1400 l 1
 742 1250 l 1
 257 1250 l 1
 257 862 l 1
 470 862 l 2
EndSplineSet
Validated: 3073
EndChar

StartChar: Gecyrillic
Encoding: 1043 1043 299
Width: 922
VWidth: 1947
GlyphClass: 2
Flags: W
HStem: -0 21G<107 257> 1249 151<257 832>
VStem: 107 150<0 1249>
LayerCount: 2
Fore
SplineSet
107 -0 m 1
 107 1400 l 1
 832 1400 l 1
 832 1249 l 1
 257 1249 l 1
 257 0 l 1
 107 -0 l 1
EndSplineSet
Validated: 3073
EndChar

StartChar: Decyrillic
Encoding: 1044 1044 300
Width: 922
VWidth: 1947
GlyphClass: 2
Flags: W
HStem: 0 151<300 645> 1250 150<563.262 645>
VStem: 47 150<-81.0515 0> 86 111<-162 -114.949> 645 150<151 1250> 725 150<-91.7424 0> 725 115<-162 -113.258>
LayerCount: 2
Fore
SplineSet
281 978 m 2xe0
 298 1084 401 1328 588 1400 c 1
 795 1400 l 1
 795 151 l 1xe8
 875 151 l 1
 875 -43 l 1xc4
 840 -162 l 1
 725 -162 l 1xc2
 725 0 l 1
 197 0 l 1xe4
 197 -162 l 1
 86 -162 l 1xd0
 47 -34 l 1
 47 151 l 1
 148 151 l 1
 281 978 l 2xe0
300 151 m 1
 645 151 l 1
 645 1250 l 1
 618 1250 l 1
 535 1207 444 1050 429 954 c 2
 300 151 l 1
EndSplineSet
Validated: 3073
EndChar

StartChar: Zhecyrillic
Encoding: 1046 1046 302
Width: 922
VWidth: 1947
GlyphClass: 2
Flags: W
HStem: 0 21G<37 198.94 386 536 723.047 885> 1380 20G<41 202.771 719.229 881>
VStem: 386 150<0 254.625 745 1350>
LayerCount: 2
Fore
SplineSet
386 745 m 1
 386 1350 l 1
 536 1350 l 1
 536 745 l 1
 725 1400 l 1
 881 1400 l 1
 678 697 l 1
 885 0 l 1
 729 0 l 1
 601 430 l 1
 536 205 l 1
 536 0 l 1
 386 0 l 1
 386 205 l 1
 321 431 l 1
 193 0 l 1
 37 0 l 1
 243 699 l 1
 41 1400 l 1
 197 1400 l 1
 386 745 l 1
EndSplineSet
Validated: 3073
EndChar

StartChar: Zecyrillic
Encoding: 1047 1047 303
Width: 922
VWidth: 1947
GlyphClass: 2
Flags: W
HStem: -25 150<317.259 585.018> 734 150<302 569.81> 1275 150<298.606 571.074>
VStem: 87 150<203.434 337> 620 150<932.627 1224.87> 665 150<208.941 645.727>
LayerCount: 2
Fore
SplineSet
432 1425 m 2xf8
 470 1425 l 2
 650 1425 770 1278 770 1083 c 2
 770 1044 l 2xf8
 770 963 735 864 675 810 c 1
 771 725 815 597 815 437 c 2
 815 417 l 2
 815 156 694 -25 470 -25 c 2
 432 -25 l 2
 270 -25 87 114 87 337 c 1
 237 337 l 1
 237 195 354 125 432 125 c 2
 470 125 l 2
 587 125 665 214 665 417 c 2
 665 437 l 2xf4
 665 574 626 734 470 734 c 2
 302 734 l 1
 302 884 l 1
 471 884 l 2
 563 884 620 975 620 1044 c 2
 620 1083 l 2
 620 1197 560 1275 470 1275 c 2
 432 1275 l 2
 350 1275 277 1235 250 1164 c 1
 110 1216 l 1
 163 1357 302 1425 432 1425 c 2xf8
EndSplineSet
Validated: 3073
EndChar

StartChar: Iicyrillic
Encoding: 1048 1048 304
Width: 922
VWidth: 1947
GlyphClass: 2
Flags: W
HStem: -0 21G<107 251.569 665 815> 1380 20G<107 257 671.42 815>
VStem: 107 150<414 1400> 665 150<0 985>
LayerCount: 2
Fore
SplineSet
107 0 m 1
 107 1400 l 1
 257 1400 l 1
 257 414 l 1
 680 1400 l 1
 815 1400 l 1
 815 0 l 1
 665 -0 l 1
 665 985 l 1
 243 0 l 1
 107 0 l 1
EndSplineSet
Validated: 3073
EndChar

StartChar: Elcyrillic
Encoding: 1051 1051 307
Width: 922
VWidth: 1947
GlyphClass: 2
Flags: W
HStem: 0 21G<67 224.168 665 815> 1250 150<560.213 665>
VStem: 665 150<0 1250>
LayerCount: 2
Fore
SplineSet
272 982 m 2
 305 1142 420 1336 588 1400 c 1
 815 1400 l 1
 815 -0 l 1
 665 0 l 1
 665 1250 l 1
 618 1250 l 1
 537 1210 445 1081 418 950 c 2
 220 0 l 1
 67 0 l 1
 272 982 l 2
EndSplineSet
Validated: 3073
EndChar

StartChar: Pecyrillic
Encoding: 1055 1055 311
Width: 922
VWidth: 1947
GlyphClass: 2
Flags: W
HStem: -0 21G<107 257 665 815> 1250 150<257 665>
VStem: 107 150<0 1250> 665 150<0 1250>
LayerCount: 2
Fore
SplineSet
107 -0 m 1
 107 1400 l 1
 815 1400 l 1
 815 -0 l 1
 665 0 l 1
 665 1250 l 1
 257 1250 l 1
 257 0 l 1
 107 -0 l 1
EndSplineSet
Validated: 3073
EndChar

StartChar: Ucyrillic
Encoding: 1059 1059 315
Width: 922
VWidth: 1947
GlyphClass: 2
Flags: W
HStem: -25 150<210.422 382.987> -10 142<208.552 382.987> 1380 20G<92 260.604 679.237 838>
LayerCount: 2
Fore
SplineSet
552 196 m 2xa0
 543 158 499 -25 301 -25 c 2
 272 -25 l 2xa0
 255 -25 207 -18 187 -10 c 2
 154 3 l 1
 210 143 l 1
 237 132 l 2x60
 255 126 265 125 272 125 c 2
 299 125 l 2
 372 125 390 166 406 232 c 2
 456 444 l 1
 92 1400 l 1
 253 1400 l 1
 518 703 l 1
 684 1400 l 1
 838 1400 l 1
 552 196 l 2xa0
EndSplineSet
Validated: 3073
EndChar

StartChar: Efcyrillic
Encoding: 1060 1060 316
Width: 922
VWidth: 1947
GlyphClass: 2
Flags: W
HStem: -25 21G<386 536> 1168 154<308.203 386 536 615.879> 1405 20G<386 536>
VStem: 54 150<398.338 1033.76> 386 150<-25 90.8232 235 1168 1312.97 1425> 719 150<397.909 1035.02>
LayerCount: 2
Fore
SplineSet
386 235 m 1
 386 1168 l 1
 269 1136 204 1013 204 753 c 2
 204 697 l 2
 204 512 236 287 386 235 c 1
536 1168 m 1
 536 235 l 1
 686 286 719 512 719 697 c 2
 719 754 l 2
 719 1014 654 1137 536 1168 c 1
536 -25 m 1
 386 -25 l 1
 386 80 l 1
 233 108 54 242 54 697 c 2
 54 753 l 2
 54 1184 234 1299 386 1322 c 1
 386 1425 l 1
 536 1425 l 1
 536 1322 l 1
 688 1299 869 1186 869 754 c 2
 869 697 l 2
 869 241 688 108 536 80 c 1
 536 -25 l 1
EndSplineSet
Validated: 3073
EndChar

StartChar: Tsecyrillic
Encoding: 1062 1062 318
Width: 922
VWidth: 1947
GlyphClass: 2
Flags: W
HStem: 0 150<257 595> 1380 20G<107 257 595 745>
VStem: 107 150<150 1400> 595 150<151 1400>
LayerCount: 2
Fore
SplineSet
257 150 m 1
 595 150 l 1
 595 1400 l 1
 745 1400 l 1
 745 151 l 1
 870 151 l 1
 870 60 l 1
 726 -225 l 1
 595 -153 l 1
 670 0 l 1
 107 0 l 1
 107 1400 l 1
 257 1400 l 1
 257 150 l 1
EndSplineSet
Validated: 3073
EndChar

StartChar: Checyrillic
Encoding: 1063 1063 319
Width: 922
VWidth: 1947
GlyphClass: 2
Flags: W
HStem: 0 21G<665 815> 437 150<321.577 665> 1380 20G<107 257 665 815>
VStem: 107 150<651.636 1400> 665 150<0 437 587 1400>
LayerCount: 2
Fore
SplineSet
815 -0 m 1
 665 0 l 1
 665 437 l 1
 452 437 l 2
 232 437 107 589 107 814 c 2
 107 1400 l 1
 257 1400 l 1
 257 814 l 2
 257 700 296 587 452 587 c 2
 665 587 l 1
 665 1400 l 1
 815 1400 l 1
 815 -0 l 1
EndSplineSet
Validated: 3073
EndChar

StartChar: Shacyrillic
Encoding: 1064 1064 320
Width: 922
VWidth: 1947
GlyphClass: 2
Flags: W
HStem: 0 150<207 386 536 715> 1380 20G<57 207 715 865>
VStem: 57 150<150 1400> 386 150<150 1184> 715 150<150 1400>
CounterMasks: 1 38
LayerCount: 2
Fore
SplineSet
536 150 m 1
 715 150 l 1
 715 1400 l 1
 865 1400 l 1
 865 0 l 1
 57 0 l 1
 57 1400 l 1
 207 1400 l 1
 207 150 l 1
 386 150 l 1
 386 1184 l 1
 536 1184 l 1
 536 150 l 1
EndSplineSet
Validated: 3073
EndChar

StartChar: Shchacyrillic
Encoding: 1065 1065 321
Width: 922
VWidth: 1947
GlyphClass: 2
Flags: W
HStem: 0 150<207 361 511 665> 1380 20G<57 207 665 815>
VStem: 57 150<150 1400> 361 150<150 1184> 665 150<150 1400>
CounterMasks: 1 38
LayerCount: 2
Fore
SplineSet
719 0 m 1
 57 0 l 1
 57 1400 l 1
 207 1400 l 1
 207 150 l 1
 361 150 l 1
 361 1184 l 1
 511 1184 l 1
 511 150 l 1
 665 150 l 1
 665 1400 l 1
 815 1400 l 1
 815 149 l 1
 900 149 l 1
 900 18 l 1
 754 -229 l 1
 626 -149 l 1
 719 0 l 1
EndSplineSet
Validated: 3073
EndChar

StartChar: Hardsigncyrillic
Encoding: 1066 1066 322
Width: 922
VWidth: 1947
GlyphClass: 2
Flags: W
HStem: 0 150<407 622.026> 672 150<407 618.548> 1380 20G<60 407>
VStem: 60 56<959 1003.66> 257 150<150 672 822 1230> 665 150<191.238 620.872>
LayerCount: 2
Fore
SplineSet
530 822 m 2
 698 822 815 683 815 465 c 2
 815 357 l 2
 815 134 689 0 530 0 c 2
 257 0 l 1
 257 1230 l 1
 203 1230 l 1
 116 959 l 1
 60 959 l 1
 60 1400 l 1
 407 1400 l 1
 407 822 l 1
 530 822 l 2
407 672 m 1
 407 150 l 1
 530 150 l 2
 638 150 665 265 665 357 c 2
 665 465 l 2
 665 593 611 672 530 672 c 2
 407 672 l 1
EndSplineSet
Validated: 3073
EndChar

StartChar: Yericyrillic
Encoding: 1067 1067 323
Width: 922
VWidth: 1947
GlyphClass: 2
Flags: W
HStem: 0 150<227 362.852> 722 150<227 354.963> 1380 20G<77 227 695 845>
VStem: 77 150<150 722 872 1400> 415 150<205.556 664.438> 695 150<0 1400>
LayerCount: 2
Fore
SplineSet
227 872 m 1
 443 869 565 738 565 515 c 2
 565 357 l 2
 565 185 496 0 220 0 c 2
 77 0 l 1
 77 1400 l 1
 227 1400 l 1
 227 872 l 1
227 722 m 1
 227 150 l 1
 370 152 415 225 415 357 c 2
 415 515 l 2
 415 627 377 719 227 722 c 1
845 -0 m 1
 695 0 l 1
 695 1400 l 1
 845 1400 l 1
 845 -0 l 1
EndSplineSet
Validated: 3073
EndChar

StartChar: Softsigncyrillic
Encoding: 1068 1068 324
Width: 922
VWidth: 1947
GlyphClass: 2
Flags: W
HStem: 0 150<257 613.722> 672 150<257 608.646> 1380 20G<107 257>
VStem: 107 150<150 672 822 1400> 665 150<205.556 615.703>
LayerCount: 2
Fore
SplineSet
257 672 m 1
 257 150 l 1
 470 150 l 2
 619 150 665 223 665 357 c 2
 665 465 l 2
 665 579 626 672 470 672 c 2
 257 672 l 1
470 822 m 2
 690 822 815 690 815 465 c 2
 815 357 l 2
 815 185 746 0 470 0 c 2
 107 0 l 1
 107 1400 l 1
 257 1400 l 1
 257 822 l 1
 470 822 l 2
EndSplineSet
Validated: 3073
EndChar

StartChar: Ereversedcyrillic
Encoding: 1069 1069 325
Width: 922
VWidth: 1947
GlyphClass: 2
Flags: W
HStem: -25 150<361.302 553.913> 681 150<362 675> 1275 150<358.869 571.486>
VStem: 136 146<217.845 298.69 1089.38 1182.98> 675 150<307.013 681 830 1126.12>
LayerCount: 2
Fore
SplineSet
675 830 m 1
 664 1147 595 1275 461 1275 c 3
 424 1275 330 1270 278 1056 c 1
 132 1092 l 1
 206 1399 382 1425 461 1425 c 3
 789 1425 825 1035 825 732 c 3
 825 479 805 -25 461 -25 c 3
 395 -25 214 -8 136 296 c 1
 282 334 l 1
 334 132 425 125 461 125 c 3
 603 125 669 325 675 681 c 1
 362 681 l 1
 362 831 l 1
 675 830 l 1
EndSplineSet
Validated: 3073
EndChar

StartChar: IUcyrillic
Encoding: 1070 1070 326
Width: 922
VWidth: 1947
GlyphClass: 2
Flags: W
HStem: -25 150<567.136 653.435> 0 21G<57 207> 625 150<207 358> 1275 150<567.345 659.862> 1380 20G<57 207>
VStem: 57 150<0 625 775 1400> 358 149<241.837 625 775 1196.57> 715 150<244.438 1208.42>
LayerCount: 2
Fore
SplineSet
358 775 m 1x6f
 362 1103 381 1425 611 1425 c 3
 831 1425 865 1137 865 732 c 3
 865 396 832 -25 611 -25 c 3xb7
 450 -25 369 138 358 625 c 1
 207 625 l 1
 207 -0 l 1
 57 0 l 1
 57 1400 l 1
 207 1400 l 1
 207 775 l 1
 358 775 l 1x6f
715 732 m 3
 715 1002 696 1275 611 1275 c 3
 533 1275 507 1002 507 732 c 3
 507 384 538 125 611 125 c 3
 693 125 715 468 715 732 c 3
EndSplineSet
Validated: 3073
EndChar

StartChar: IAcyrillic
Encoding: 1071 1071 327
Width: 922
VWidth: 1947
GlyphClass: 2
Flags: W
HStem: 0 21G<63 235.879 665 815> 642 150<512 665> 1250 150<292.533 665>
VStem: 107 150<835.57 1212.47> 665 150<0 642 792 1250>
LayerCount: 2
Fore
SplineSet
665 642 m 1
 512 642 l 1
 227 0 l 1
 63 0 l 1
 351 651 l 1
 158 687 107 829 107 973 c 2
 107 1063 l 2
 107 1333 256 1400 452 1400 c 2
 815 1400 l 1
 815 -0 l 1
 665 0 l 1
 665 642 l 1
665 792 m 1
 665 1250 l 1
 452 1250 l 2
 300 1250 257 1210 257 1063 c 2
 257 973 l 2
 257 845 303 792 452 792 c 2
 665 792 l 1
EndSplineSet
Validated: 3073
EndChar

StartChar: becyrillic
Encoding: 1073 1073 329
Width: 922
VWidth: 2334
GlyphClass: 2
Flags: W
HStem: -25 150<340.29 592.568> 899 150<337.647 579.817> 1250 150<339.633 681.966>
VStem: 107 150<220.521 811.515 988 1162.86> 665 150<205.146 804.697>
LayerCount: 2
Fore
SplineSet
452 1049 m 2
 470 1049 l 2
 704 1049 815 851 815 597 c 2
 815 407 l 2
 815 135 692 -25 470 -25 c 2
 452 -25 l 2
 256 -25 107 142 107 407 c 2
 107 953 l 2
 107 1264 281 1400 460 1400 c 3
 561 1400 618 1420 714 1456 c 1
 766 1316 l 1
 650 1272 583 1250 460 1250 c 3
 368 1250 258 1186 258 988 c 1
 309 1027 374 1049 452 1049 c 2
257 597 m 2
 257 407 l 2
 257 222 347 125 452 125 c 2
 470 125 l 2
 626 125 665 264 665 407 c 2
 665 597 l 2
 665 738 626 899 470 899 c 2
 452 899 l 2
 296 899 257 738 257 597 c 2
EndSplineSet
Validated: 3073
EndChar

StartChar: vecyrillic
Encoding: 1074 1074 330
Width: 922
VWidth: 2334
GlyphClass: 2
Flags: W
HStem: 0 150<257 630.98> 474 150<257 580.866> 874 150<257 605.014>
VStem: 107 150<150 474 624 874> 631 150<672.118 840.512> 684 150<201.582 429.922>
LayerCount: 2
Fore
SplineSet
107 0 m 1xf4
 107 1024 l 1
 436 1024 l 2
 730 1024 781 873 781 772 c 3xf8
 781 698 753 627 700 573 c 1
 788 520 834 431 834 325 c 2
 834 316 l 2
 834 145 716 0 490 0 c 2
 107 0 l 1xf4
257 150 m 1
 490 150 l 2
 621 150 684 217 684 316 c 2
 684 325 l 2xf4
 684 444 585 474 489 474 c 2
 257 474 l 1
 257 150 l 1
436 624 m 2
 574 624 631 698 631 772 c 3xf8
 631 843 543 874 436 874 c 2
 257 874 l 1
 257 624 l 1
 436 624 l 2
EndSplineSet
Validated: 3073
EndChar

StartChar: gecyrillic
Encoding: 1075 1075 331
Width: 922
VWidth: 1947
GlyphClass: 2
Flags: W
HStem: -25 150<264.295 569.793> 899 150<298.024 609.691>
VStem: 77 150<164.407 378.806 719 829.96> 635 150<697.318 871.662> 665 150<224.519 337>
LayerCount: 2
Fore
SplineSet
77 719 m 1xf0
 77 895 230 1049 412 1049 c 2
 430 1049 l 2
 515 1049 785 1038 785 789 c 2
 785 777 l 2xf0
 785 723 765 609 650 556 c 2
 276 383 l 2
 254 373 227 340 227 291 c 2
 227 245 l 2
 227 156 328 125 422 125 c 2
 470 125 l 2
 561 125 665 240 665 337 c 1
 815 337 l 1xe8
 815 167 653 -25 470 -25 c 2
 422 -25 l 2
 230 -25 77 77 77 245 c 2
 77 291 l 2
 77 388 128 479 212 519 c 2
 590 694 l 2
 603 699 629 721 635 777 c 2
 635 789 l 2
 635 875 575 897 430 899 c 2
 412 899 l 2
 302 899 227 805 227 719 c 1
 77 719 l 1xf0
EndSplineSet
Validated: 3073
EndChar

StartChar: decyrillic
Encoding: 1076 1076 332
Width: 922
VWidth: 1947
GlyphClass: 2
Flags: W
HStem: 0 151<300 645> 874 150<533.73 645>
VStem: 47 150<-81.0515 0> 86 111<-162 -114.949> 645 150<151 874> 725 150<-91.7424 0> 725 115<-162 -113.258>
LayerCount: 2
Fore
SplineSet
221 618 m 2xe0
 246 779 434 1001 595 1024 c 1
 795 1024 l 1
 795 151 l 1xe8
 875 151 l 1
 875 -43 l 1xc4
 840 -162 l 1
 725 -162 l 1xc2
 725 0 l 1
 197 0 l 1xe4
 197 -162 l 1
 86 -162 l 1xd0
 47 -34 l 1
 47 151 l 1
 148 151 l 1
 221 618 l 2xe0
300 151 m 1
 645 151 l 1
 645 874 l 1
 610 874 l 1
 513 849 384 689 369 592 c 2
 300 151 l 1
EndSplineSet
Validated: 3073
EndChar

StartChar: zhecyrillic
Encoding: 1078 1078 334
Width: 922
VWidth: 1947
GlyphClass: 2
Flags: W
HStem: 0 21G<63 230.41 386 536 691.563 859> 1004 20G<386 536>
VStem: 386 150<0 134 524 1024>
LayerCount: 2
Fore
SplineSet
386 524 m 1
 386 1024 l 1
 536 1024 l 1
 536 524 l 1
 763 1067 l 1
 901 1009 l 1
 680 478 l 1
 859 0 l 1
 699 0 l 1
 596 277 l 1
 536 134 l 1
 536 0 l 1
 386 0 l 1
 386 134 l 1
 326 278 l 1
 223 0 l 1
 63 0 l 1
 241 481 l 1
 21 1009 l 1
 159 1067 l 1
 386 524 l 1
EndSplineSet
Validated: 3073
EndChar

StartChar: zecyrillic
Encoding: 1079 1079 335
Width: 922
VWidth: 1947
GlyphClass: 2
Flags: W
HStem: -25 150<311.86 590.891> 485 150<362 571.677> 898 150<298.606 592.654>
VStem: 107 150<182.234 265> 620 150<681.308 872.329> 665 150<200.918 434.907>
LayerCount: 2
Fore
SplineSet
620 798 m 2xf8
 620 834 589 898 470 898 c 2
 432 898 l 2
 350 898 277 858 250 787 c 1
 110 839 l 1
 163 980 302 1048 432 1048 c 2
 470 1048 l 2
 704 1048 770 894 770 798 c 2
 770 787 l 2xf8
 770 707 737 637 682 578 c 1
 769 522 815 431 815 334 c 2
 815 314 l 2
 815 154 687 -25 470 -25 c 2
 452 -25 l 2
 296 -25 107 74 107 265 c 1
 257 265 l 1
 257 174 366 125 452 125 c 2
 470 125 l 2
 606 125 665 241 665 314 c 2
 665 334 l 2xf4
 665 409 607 485 470 485 c 2
 362 485 l 1
 362 635 l 1
 471 635 l 2
 560 635 620 715 620 787 c 2
 620 798 l 2xf8
EndSplineSet
Validated: 3073
EndChar

StartChar: iicyrillic
Encoding: 1080 1080 336
Width: 922
VWidth: 1947
GlyphClass: 2
Flags: W
HStem: -0 21G<107 252.074 665 815> 1004 20G<107 257 670.932 815>
VStem: 107 150<318 1024> 665 150<0 704>
LayerCount: 2
Fore
SplineSet
107 0 m 1
 107 1024 l 1
 257 1024 l 1
 257 318 l 1
 683 1024 l 1
 815 1024 l 1
 815 0 l 1
 665 -0 l 1
 665 704 l 1
 240 0 l 1
 107 0 l 1
EndSplineSet
Validated: 3073
EndChar

StartChar: kacyrillic
Encoding: 1082 1082 338
Width: 922
VWidth: 1947
GlyphClass: 2
Flags: W
HStem: 0 21G<107 257 629.795 833> 1004 20G<107 257 694.271 737.176>
VStem: 107 150<0 103 367 1024>
LayerCount: 2
Fore
SplineSet
257 0 m 1
 107 0 l 1
 107 1024 l 1
 257 1024 l 1
 257 367 l 1
 708 1024 l 1
 832 939 l 1
 494 448 l 1
 833 0 l 1
 645 0 l 1
 404 317 l 1
 257 103 l 1
 257 0 l 1
EndSplineSet
Validated: 3073
EndChar

StartChar: elcyrillic
Encoding: 1083 1083 339
Width: 922
VWidth: 1947
GlyphClass: 2
Flags: W
HStem: 0 21G<71 232.154 665 815> 873 151<549.466 665>
VStem: 665 150<0 873>
LayerCount: 2
Fore
SplineSet
232 622 m 2
 272 775 414 957 588 1024 c 1
 815 1024 l 1
 815 -0 l 1
 665 0 l 1
 665 873 l 1
 617 873 l 1
 514 826 405 690 378 586 c 2
 227 0 l 1
 71 0 l 1
 232 622 l 2
EndSplineSet
Validated: 3073
EndChar

StartChar: emcyrillic
Encoding: 1084 1084 340
Width: 922
VWidth: 1947
GlyphClass: 2
Flags: W
HStem: 0 21G<27 178.592 743.44 896> 1004 20G<106.418 269.111 654.827 817.562>
LayerCount: 2
Fore
SplineSet
27 0 m 1
 108 1024 l 1
 263 1024 l 1
 461 376 l 1
 661 1024 l 1
 816 1024 l 1
 896 0 l 1
 745 0 l 1
 696 628 l 1
 526 76 l 1
 396 76 l 1
 227 628 l 1
 177 0 l 1
 27 0 l 1
EndSplineSet
Validated: 3073
EndChar

StartChar: encyrillic
Encoding: 1085 1085 341
Width: 922
VWidth: 1947
GlyphClass: 2
Flags: W
HStem: 0 21G<107 257 665 815> 395 150<257 665> 1004 20G<107 257 665 815>
VStem: 107 150<0 395 545 1024> 665 150<0 395 545 1024>
LayerCount: 2
Fore
SplineSet
257 -0 m 1
 107 0 l 1
 107 1024 l 1
 257 1024 l 1
 257 545 l 1
 665 545 l 1
 665 1024 l 1
 815 1024 l 1
 815 -0 l 1
 665 0 l 1
 665 395 l 1
 257 395 l 1
 257 -0 l 1
EndSplineSet
Validated: 3073
EndChar

StartChar: tecyrillic
Encoding: 1090 1090 346
Width: 922
VWidth: 1947
GlyphClass: 2
Flags: W
HStem: -0 21G<386 536> 875 149<70 386 536 852>
VStem: 386 150<0 875>
LayerCount: 2
Fore
SplineSet
852 1024 m 1
 852 875 l 1
 536 875 l 1
 536 0 l 1
 386 -0 l 1
 386 875 l 1
 70 875 l 1
 70 1024 l 1
 852 1024 l 1
EndSplineSet
Validated: 3073
EndChar

StartChar: efcyrillic
Encoding: 1092 1092 348
Width: 922
VWidth: 1947
GlyphClass: 2
Flags: W
HStem: -385 21G<386 536> -22 152<298.048 386 536 629.587> 812 152<297.141 386 536 624.859> 1029 20G<386 536>
VStem: 54 150<232.073 706.892> 386 150<-385 -15.4414 130 812 957.824 1049> 718 150<230.336 705.623>
CounterMasks: 1 0e
LayerCount: 2
Fore
SplineSet
386 130 m 1
 386 812 l 1
 242 784 204 633 204 508 c 2
 204 427 l 2
 204 296 242 157 386 130 c 1
536 812 m 1
 536 130 l 1
 680 158 718 292 718 426 c 2
 718 509 l 2
 718 632 680 782 536 812 c 1
536 -385 m 1
 386 -385 l 1
 386 -22 l 1
 161 3 54 190 54 427 c 2
 54 508 l 2
 54 772 185 940 386 964 c 1
 386 1049 l 1
 536 1049 l 1
 536 964 l 1
 737 938 868 769 868 509 c 2
 868 426 l 2
 868 186 758 5 536 -22 c 1
 536 -385 l 1
EndSplineSet
Validated: 3073
EndChar

StartChar: tsecyrillic
Encoding: 1094 1094 350
Width: 922
VWidth: 2334
GlyphClass: 2
Flags: W
HStem: -25 150<304.049 534.982> 1004 20G<107 257 665 815>
VStem: 107 150<171.261 1024> 665 150<-52.9057 88 290.988 1024> 707 150<-135.06 65.7338>
LayerCount: 2
Fore
SplineSet
620 -164 m 1xe8
 674 -131 707 -110 707 -56 c 27xe8
 707 -13 701 13 665 46 c 1
 665 88 l 1
 606 21 532 -25 450 -25 c 2
 432 -25 l 2
 266 -25 107 57 107 337 c 2
 107 1024 l 1
 257 1024 l 1
 257 337 l 2
 257 167 324 125 432 125 c 2
 450 125 l 2
 550 125 665 339 665 447 c 2
 665 1024 l 1
 815 1024 l 1
 815 108 l 1xf0
 840 77 857 10 857 -56 c 27
 857 -167 770 -248 700 -292 c 1
 620 -164 l 1xe8
EndSplineSet
Validated: 3073
EndChar

StartChar: checyrillic
Encoding: 1095 1095 351
Width: 922
VWidth: 1947
GlyphClass: 2
Flags: W
HStem: 0 21G<665 815> 352 150<310.925 537.732> 1004 20G<107 257 665 815>
VStem: 107 150<553.982 1024> 665 150<0 470 677.377 1024>
LayerCount: 2
Fore
SplineSet
665 470 m 1
 564 352 481 352 450 352 c 2
 432 352 l 2
 282 352 107 430 107 729 c 2
 107 1024 l 1
 257 1024 l 1
 257 729 l 2
 257 556 324 502 432 502 c 2
 450 502 l 2
 567 502 665 746 665 839 c 2
 665 1024 l 1
 815 1024 l 1
 815 -0 l 1
 665 0 l 1
 665 470 l 1
EndSplineSet
Validated: 3073
EndChar

StartChar: shacyrillic
Encoding: 1096 1096 352
Width: 922
VWidth: 2334
GlyphClass: 2
Flags: W
HStem: -25 150<221.342 339.418 541.087 658.365> 0 21G<705 855> 1004 20G<67 217 386 536 705 855>
VStem: 67 150<131.094 1024> 386 150<173.04 1024> 705 150<0 5 173.04 1024>
CounterMasks: 1 1c
LayerCount: 2
Fore
SplineSet
606 125 m 2xbc
 654 132 705 241 705 337 c 2
 705 1024 l 1
 855 1024 l 1
 855 -0 l 1
 705 0 l 1x7c
 705 5 l 1
 664 -21 639 -25 606 -25 c 2
 596 -25 l 2
 522 -25 467 0 432 45 c 1
 371 -21 324 -25 287 -25 c 2
 277 -25 l 2
 90 -25 67 105 67 215 c 2
 67 1024 l 1
 217 1024 l 1
 217 216 l 2
 217 147 231 125 277 125 c 2
 287 125 l 2
 335 132 386 241 386 337 c 2
 386 1024 l 1
 536 1024 l 1
 536 216 l 2
 536 147 558 125 596 125 c 2
 606 125 l 2xbc
EndSplineSet
Validated: 3073
EndChar

StartChar: shchacyrillic
Encoding: 1097 1097 353
Width: 922
VWidth: 2334
GlyphClass: 2
Flags: W
HStem: -25 150<227.921 338.602 544.078 658.17> 1004 20G<67 217 386 536 705 855>
VStem: 67 150<128.5 1024> 386 150<173.04 1024> 705 150<173.04 1024> 749 150<-126.351 23.41>
LayerCount: 2
Fore
SplineSet
606 125 m 2xf4
 654 132 705 241 705 337 c 2
 705 1024 l 1
 855 1024 l 1
 855 107 l 1xf8
 875 81 899 38 899 -25 c 3
 899 -128 835 -231 740 -291 c 1
 660 -165 l 1
 722 -126 749 -65 749 -25 c 3
 749 -5 743 10 729 24 c 1
 678 -21 642 -25 606 -25 c 2
 596 -25 l 2
 522 -25 467 0 432 45 c 1
 371 -21 327 -25 287 -25 c 2
 277 -25 l 2
 87 -25 67 111 67 215 c 2
 67 1024 l 1
 217 1024 l 1
 217 216 l 2
 217 147 234 125 277 125 c 2
 287 125 l 2
 335 132 386 241 386 337 c 2
 386 1024 l 1
 536 1024 l 1
 536 216 l 2
 536 147 564 125 596 125 c 2
 606 125 l 2xf4
EndSplineSet
Validated: 3073
EndChar

StartChar: hardsigncyrillic
Encoding: 1098 1098 354
Width: 922
VWidth: 1947
GlyphClass: 2
Flags: W
HStem: 0 150<407 614.107> 486 150<407 624.183> 828 170<187 257>
VStem: 60 53<572 621.595> 257 150<150 486 636 828> 665 150<198.492 443.288>
LayerCount: 2
Fore
SplineSet
470 636 m 2
 654 636 815 532 815 362 c 2
 815 284 l 2
 815 105 648 1 470 0 c 1
 257 0 l 1
 257 828 l 1
 187 828 l 1
 113 572 l 1
 60 572 l 1
 60 998 l 1
 407 998 l 1
 407 636 l 1
 470 636 l 2
407 486 m 1
 407 150 l 1
 470 150 l 1
 561 151 665 195 665 284 c 2
 665 362 l 2
 665 447 566 486 470 486 c 2
 407 486 l 1
EndSplineSet
Validated: 3073
EndChar

StartChar: yericyrillic
Encoding: 1099 1099 355
Width: 922
VWidth: 1947
GlyphClass: 2
Flags: W
HStem: 0 150<207 373.596> 486 150<207 376.976> 1004 20G<57 207 715 865>
VStem: 57 150<150 486 636 1024> 415 150<186.01 448.103> 715 150<0 1024>
LayerCount: 2
Fore
SplineSet
565 279 m 2
 565 175 519 0 240 0 c 2
 57 0 l 1
 57 1024 l 1
 207 1024 l 1
 207 636 l 1
 240 636 l 2
 427 636 565 533 565 357 c 2
 565 279 l 2
715 1024 m 1
 865 1024 l 1
 865 0 l 1
 715 -0 l 1
 715 1024 l 1
240 150 m 2
 339 150 415 192 415 279 c 2
 415 357 l 2
 415 446 347 486 240 486 c 2
 207 486 l 1
 207 150 l 1
 240 150 l 2
EndSplineSet
Validated: 3073
EndChar

StartChar: softsigncyrillic
Encoding: 1100 1100 356
Width: 922
VWidth: 1947
GlyphClass: 2
Flags: W
HStem: 0 150<257 618.752> 486 150<257 623.302> 1028 20G<107 257>
VStem: 107 150<150 486 636 1048> 665 150<198.166 442.189>
LayerCount: 2
Fore
SplineSet
815 279 m 2
 815 177 759 0 470 0 c 2
 107 0 l 1
 107 1048 l 1
 257 1048 l 1
 257 636 l 1
 470 636 l 2
 652 636 815 536 815 357 c 2
 815 279 l 2
470 150 m 2
 557 150 665 192 665 279 c 2
 665 357 l 2
 665 446 574 486 470 486 c 2
 257 486 l 1
 257 150 l 1
 470 150 l 2
EndSplineSet
Validated: 3073
EndChar

StartChar: ereversedcyrillic
Encoding: 1101 1101 357
Width: 922
VWidth: 1947
GlyphClass: 2
Flags: W
HStem: -25 150<291.041 558.91> 437 150<317 650> 900 150<292.574 564.817>
VStem: 650 150<233.951 437 587 804.468>
LayerCount: 2
Fore
SplineSet
437 1050 m 2
 455 1050 l 2
 689 1050 800 850 800 597 c 2
 800 427 l 2
 800 161 650 -25 455 -25 c 2
 437 -25 l 2
 246 -25 150 67 112 180 c 1
 254 228 l 1
 266 192 294 125 437 125 c 2
 455 125 l 2
 560 125 650 242 650 427 c 2
 650 437 l 1
 317 437 l 1
 317 587 l 1
 650 587 l 1
 650 597 l 2
 650 738 611 900 455 900 c 2
 437 900 l 2
 292 900 266 834 254 795 c 1
 110 839 l 1
 144 953 237 1050 437 1050 c 2
EndSplineSet
Validated: 3073
EndChar

StartChar: iucyrillic
Encoding: 1102 1102 358
Width: 922
VWidth: 1947
GlyphClass: 2
Flags: W
HStem: -25 150<523.791 653.135> 0 21G<67 217> 437 150<217 328> 903 150<526.386 653.135> 1004 20G<67 217>
VStem: 67 150<0 437 587 1024> 328 149<179.555 437 587 853.398> 705 150<178.111 844.97>
LayerCount: 2
Fore
SplineSet
328 587 m 1x6f
 334 794 382 1053 591 1053 c 27
 825 1053 855 747 855 513 c 3
 855 234 825 -25 591 -25 c 3xb7
 420 -25 339 120 328 437 c 1
 217 437 l 1
 217 -0 l 1
 67 0 l 1
 67 1024 l 1
 217 1024 l 1
 217 587 l 1
 328 587 l 1x6f
591 125 m 3
 693 125 705 355 705 513 c 27
 705 671 693 903 591 903 c 3
 483 903 477 671 477 513 c 27
 477 355 480 125 591 125 c 3
EndSplineSet
Validated: 3073
EndChar

StartChar: iacyrillic
Encoding: 1103 1103 359
Width: 922
VWidth: 1947
GlyphClass: 2
Flags: W
HStem: 0 21G<60 254.495 665 815> 412 150<519 665> 874 150<301.34 665>
VStem: 107 150<596.668 828.046> 665 150<0 412 562 874>
LayerCount: 2
Fore
SplineSet
257 679 m 2
 257 639 276 562 452 562 c 2
 665 562 l 1
 665 874 l 1
 452 874 l 2
 362 874 257 839 257 750 c 2
 257 679 l 2
344 420 m 1
 140 455 107 578 107 679 c 2
 107 750 l 2
 107 930 276 1024 452 1024 c 2
 815 1024 l 1
 815 0 l 1
 665 -0 l 1
 665 412 l 1
 519 412 l 1
 241 0 l 1
 60 0 l 1
 344 420 l 1
EndSplineSet
Validated: 3073
EndChar

StartChar: ecyrillic
Encoding: 1108 1108 362
Width: 922
VWidth: 1947
GlyphClass: 2
Flags: W
HStem: -25 150<364.09 642.024> 437 150<273 606> 898 150<358.183 642.656>
VStem: 123 150<233.951 437 587 804.485>
LayerCount: 2
Fore
SplineSet
486 898 m 2
 468 898 l 2
 312 898 273 738 273 597 c 2
 273 587 l 1
 606 587 l 1
 606 437 l 1
 273 437 l 1
 273 427 l 2
 273 242 363 125 468 125 c 2
 486 125 l 2
 595 125 647 147 669 212 c 1
 811 164 l 1
 757 3 613 -25 486 -25 c 2
 468 -25 l 2
 273 -25 123 161 123 427 c 2
 123 597 l 2
 123 851 234 1048 468 1048 c 2
 486 1048 l 2
 623 1048 764 1014 813 852 c 1
 669 808 l 1
 653 861 619 898 486 898 c 2
EndSplineSet
Validated: 3073
EndChar

StartChar: numero
Encoding: 8470 8470 372
Width: 922
VWidth: 1947
Flags: W
HStem: 0 21G<15 165 334.677 493> 471 151<669.322 748.678> 1183 150<670.019 747.981> 1380 20G<15 173.323 343 493>
VStem: 15 150<0 805 1335.17 1400> 343 150<0 64.8342 595 1400> 511 130<633.842 1171.52> 777 130<633.842 1168.34>
LayerCount: 2
Fore
SplineSet
709 622 m 3
 750 622 777 717 777 904 c 3
 777 1089 750 1183 709 1183 c 3
 668 1183 641 1091 641 904 c 3
 641 717 668 622 709 622 c 3
907 904 m 3
 907 718 885 471 709 471 c 3
 533 471 511 718 511 904 c 27
 511 1088 540 1333 709 1333 c 3
 878 1333 907 1113 907 904 c 3
15 0 m 1
 15 1400 l 1
 169 1400 l 1
 343 595 l 1
 343 1400 l 1
 493 1400 l 1
 493 0 l 1
 339 0 l 1
 165 805 l 1
 165 0 l 1
 15 0 l 1
EndSplineSet
Validated: 3073
EndChar

StartChar: caroncomb
Encoding: 780 780 377
Width: 922
VWidth: 1947
Flags: W
HStem: 1422 239
VStem: 218 486
LayerCount: 2
Fore
SplineSet
461 1552 m 1
 618 1661 l 1
 704 1539 l 1
 538 1422 l 1
 384 1422 l 1
 218 1539 l 1
 304 1661 l 1
 461 1552 l 1
EndSplineSet
Validated: 3073
EndChar

StartChar: gravecomb
Encoding: 768 768 379
Width: 922
VWidth: 2334
Flags: MW
HStem: 1319 407
VStem: 292 398
DStem2: 432 1726 292 1591 0.688188 -0.725532<1.60044 374.897>
LayerCount: 2
Fore
SplineSet
690 1454 m 5
 550 1319 l 5
 292 1591 l 5
 432 1726 l 5
 690 1454 l 5
EndSplineSet
Validated: 3073
EndChar

StartChar: acutecomb
Encoding: 769 769 380
Width: 922
VWidth: 2334
Flags: MW
HStem: 1319 407
VStem: 232 398
DStem2: 232 1454 372 1319 0.688188 0.725532<0 373.297>
LayerCount: 2
Fore
SplineSet
372 1319 m 5
 232 1454 l 5
 490 1726 l 5
 630 1591 l 5
 372 1319 l 5
EndSplineSet
Validated: 3073
EndChar

StartChar: tildecomb
Encoding: 771 771 381
Width: 922
VWidth: 1947
Flags: W
HStem: 1447 150<490.493 656.226> 1537 150<271.29 433.219>
VStem: 122 680
LayerCount: 2
Fore
SplineSet
141 1572 m 2x60
 167 1605 239 1687 334 1687 c 2
 350 1687 l 2x60
 388 1687 445 1680 501 1632 c 2
 520 1615 l 2
 532 1605 560 1597 571 1597 c 2
 588 1597 l 2
 616 1599 632 1605 662 1650 c 2
 678 1674 l 1
 802 1590 l 1
 786 1566 l 2
 715 1460 629 1447 588 1447 c 2
 571 1447 l 2xa0
 533 1447 465 1464 420 1503 c 2
 399 1521 l 2
 384 1534 365 1537 350 1537 c 2
 334 1537 l 2
 310 1537 293 1522 261 1483 c 2
 242 1457 l 1
 122 1547 l 1
 141 1572 l 2x60
EndSplineSet
Validated: 3073
EndChar

StartChar: hookabovecomb
Encoding: 777 777 382
Width: 922
VWidth: 1947
Flags: W
HStem: 1255 187<393 542.586> 1551 130<302.312 586.388>
VStem: 393 150<1255 1323.21> 591 150<1450.69 1539.69>
LayerCount: 2
Fore
SplineSet
741 1495 m 3
 741 1350 587 1321 543 1315 c 1
 543 1255 l 1
 393 1255 l 1
 393 1442 l 1
 468 1442 l 2
 566 1442 591 1464 591 1495 c 3
 591 1535 533 1551 480 1551 c 3
 416 1551 372 1540 320 1506 c 1
 238 1612 l 1
 310 1659 383 1681 480 1681 c 3
 676 1681 741 1588 741 1495 c 3
EndSplineSet
Validated: 3073
EndChar

StartChar: dotbelowcomb
Encoding: 803 803 383
Width: 922
VWidth: 2334
Flags: W
HStem: -370 234<369.453 553.78>
VStem: 345 234<-343.406 -162.594>
LayerCount: 2
Fore
SplineSet
345 -253 m 27
 345 -188 396 -136 461 -136 c 27
 526 -136 579 -188 579 -253 c 27
 579 -318 526 -370 461 -370 c 27
 396 -370 345 -318 345 -253 c 27
EndSplineSet
Validated: 3073
EndChar

StartChar: commaturnedabovecmb
Encoding: 786 786 396
Width: 922
VWidth: 1947
Flags: W
HStem: -486 130<367.786 594.074> -187 205<423 567.375>
VStem: 423 150<-73.9792 18> 612 150<-332.538 -207.2>
LayerCount: 2
Fore
SplineSet
612 -270 m 27
 612 -212 534 -187 489 -187 c 2
 409 -187 l 1
 423 3 l 1
 423 18 l 1
 573 18 l 1
 573 -3 l 1
 569 -63 l 1
 748 -95 762 -206 762 -270 c 3
 762 -447 572 -486 501 -486 c 3
 401 -486 318 -449 251 -391 c 1
 349 -297 l 1
 388 -331 437 -356 501 -356 c 3
 537 -356 612 -325 612 -270 c 27
EndSplineSet
Validated: 3073
EndChar

StartChar: Hbar
Encoding: 294 294 400
Width: 922
VWidth: 1947
Flags: W
HStem: 0 21G<107 257 665 815> 657 150<257 665> 1095 150<60 107 257 665 815 862> 1380 20G<107 257 665 815>
VStem: 107 150<0 657 807 1095 1245 1400> 665 150<0 657 807 1095 1245 1400>
LayerCount: 2
Fore
SplineSet
257 807 m 1
 665 807 l 1
 665 1095 l 1
 257 1095 l 1
 257 807 l 1
257 -0 m 1
 107 0 l 1
 107 1095 l 1
 60 1095 l 1
 60 1245 l 1
 107 1245 l 1
 107 1400 l 1
 257 1400 l 1
 257 1245 l 1
 665 1245 l 1
 665 1400 l 1
 815 1400 l 1
 815 1245 l 1
 862 1245 l 1
 862 1095 l 1
 815 1095 l 1
 815 -0 l 1
 665 0 l 1
 665 657 l 1
 257 657 l 1
 257 -0 l 1
EndSplineSet
Validated: 3073
EndChar

StartChar: hbar
Encoding: 295 295 401
Width: 922
VWidth: 1947
Flags: W
HStem: 0 21G<107 257 665 815> 899 150<367.694 622.854> 1205 150<60 107 257 552> 1380 20G<107 257>
VStem: 107 150<0 758.159 957 1205 1355 1400> 665 150<0 854.112>
LayerCount: 2
Fore
SplineSet
257 -0 m 1
 107 0 l 1
 107 1205 l 1
 60 1205 l 1
 60 1355 l 1
 107 1355 l 1
 107 1400 l 1
 257 1400 l 1
 257 1355 l 1
 552 1355 l 1
 552 1205 l 1
 257 1205 l 1
 257 957 l 1
 310 1012 376 1049 452 1049 c 2
 470 1049 l 2
 746 1049 815 883 815 719 c 2
 815 0 l 1
 665 -0 l 1
 665 719 l 2
 665 847 617 899 470 899 c 2
 452 899 l 2
 351 899 257 704 257 597 c 2
 257 -0 l 1
EndSplineSet
Validated: 3073
EndChar

StartChar: IJ
Encoding: 306 306 410
Width: 922
VWidth: 1947
Flags: W
HStem: 0 150<40 196 346 562> 262 150<427 556.81> 1250 150<40 196 346 575 725 882>
VStem: 196 150<150 1250> 575 150<421.891 1250>
LayerCount: 2
Fore
SplineSet
515 412 m 2
 545 412 575 446 575 597 c 2
 575 1250 l 1
 346 1250 l 1
 346 150 l 1
 562 150 l 1
 562 0 l 1
 40 0 l 1
 40 150 l 1
 196 150 l 1
 196 1250 l 1
 40 1250 l 1
 40 1400 l 1
 882 1400 l 1
 882 1250 l 1
 725 1250 l 1
 725 597 l 2
 725 306 599 262 515 262 c 2
 427 262 l 1
 427 412 l 1
 515 412 l 2
EndSplineSet
Validated: 3073
EndChar

StartChar: Tbar
Encoding: 358 358 430
Width: 922
VWidth: 1708
Flags: W
HStem: -0 21G<386 536> 485 150<115 386 536 805> 1250 150<70 386 536 852>
VStem: 386 150<0 485 635 1250>
LayerCount: 2
Fore
SplineSet
852 1400 m 1
 852 1250 l 1
 536 1250 l 1
 536 635 l 1
 805 635 l 1
 805 485 l 1
 536 485 l 1
 536 0 l 1
 386 -0 l 1
 386 485 l 1
 115 485 l 1
 115 635 l 1
 386 635 l 1
 386 1250 l 1
 70 1250 l 1
 70 1400 l 1
 852 1400 l 1
EndSplineSet
Validated: 3073
EndChar

StartChar: tbar
Encoding: 359 359 431
Width: 922
VWidth: 1947
Flags: W
HStem: -25 150<435.023 630.33> 485 150<115 280 438 805> 858 150<90 298 456 740> 1405 20G<324.993 476>
VStem: 267 150<145.451 485> 287 151<635 858> 305 151<1008 1292.67> 326 150<1140.33 1425>
LayerCount: 2
Fore
SplineSet
417 211 m 2xf8
 417 177 453 131 522 125 c 1
 540 125 l 2
 584 125 622 149 637 181 c 1
 773 119 l 1
 730 25 632 -25 540 -25 c 2
 522 -25 l 2
 397 -25 267 78 267 211 c 2
 267 238 l 1xf8
 280 485 l 1
 115 485 l 1
 115 635 l 1
 287 635 l 1xf4
 298 858 l 1
 90 858 l 1
 90 1008 l 1
 305 1008 l 1xf2
 326 1425 l 1
 476 1425 l 1xf1
 456 1008 l 1xf2
 740 1008 l 1
 740 858 l 1
 449 858 l 1
 438 635 l 1xf4
 805 635 l 1
 805 485 l 1
 430 485 l 1
 417 230 l 1
 417 211 l 2xf8
EndSplineSet
Validated: 3073
EndChar

StartChar: A
Encoding: 65 65 461
Width: 922
VWidth: 1708
Flags: W
HStem: 0 21G<88 245.418 675.663 833> 249 150<329 593> 1405 20G<394.635 527.351>
LayerCount: 2
Fore
SplineSet
329 399 m 1
 593 399 l 1
 461 1004 l 1
 329 399 l 1
241 0 m 1
 88 0 l 1
 399 1425 l 1
 523 1425 l 1
 833 0 l 1
 680 0 l 1
 626 249 l 1
 296 249 l 1
 241 0 l 1
EndSplineSet
Validated: 3073
EndChar

StartChar: Lambda
Encoding: 923 923 462
Width: 922
VWidth: 1708
Flags: W
HStem: 0 21G<84 241.444 677.615 835> 1405 20G<394.579 526.393>
LayerCount: 2
Fore
SplineSet
237 0 m 1
 84 0 l 1
 399 1425 l 1
 522 1425 l 1
 835 0 l 1
 682 0 l 1
 461 1008 l 1
 237 0 l 1
EndSplineSet
Validated: 3073
EndChar

StartChar: Delta
Encoding: 916 916 463
Width: 922
VWidth: 1708
Flags: W
HStem: -0 150<275 647> 1405 20G<394.649 527.351>
LayerCount: 2
Fore
SplineSet
647 151 m 1
 461 1004 l 1
 275 150 l 1
 647 151 l 1
89 -0 m 1
 399 1425 l 1
 523 1425 l 1
 833 0 l 1
 89 -0 l 1
EndSplineSet
Validated: 3073
EndChar

StartChar: Theta
Encoding: 920 920 464
Width: 922
VWidth: 1947
Flags: W
HStem: -25 150<363.207 559.686> 624 150<340 582> 1275 150<349.685 572.755>
VStem: 97 150<310.229 1121.87> 340 242<624 774> 675 150<302.826 1121.43>
CounterMasks: 1 1c
LayerCount: 2
Fore
SplineSet
825 765 m 2
 825 696 l 2
 825 73 611 -24 467 -25 c 2
 456 -25 l 2
 312 -25 97 71 97 696 c 2
 97 763 l 2
 97 1042 140 1425 455 1425 c 2
 467 1425 l 2
 784 1425 825 1040 825 765 c 2
467 1275 m 2
 455 1275 l 2
 316 1275 247 1114 247 763 c 2
 247 696 l 2
 247 486 274 125 456 125 c 2
 467 125 l 2
 649 126 675 486 675 696 c 2
 675 765 l 2
 675 1115 607 1275 467 1275 c 2
582 774 m 1
 582 624 l 1
 340 624 l 1
 340 774 l 1
 582 774 l 1
EndSplineSet
Validated: 3073
EndChar

StartChar: Xi
Encoding: 926 926 465
Width: 922
VWidth: 1708
Flags: W
HStem: 0 337<107 257 665 815> 0 150<257 665> 625 150<272 650> 1049 351<107 257 665 815> 1250 150<257 665>
VStem: 107 150<150 337 1049 1250> 665 150<150 337 1049 1250>
LayerCount: 2
Fore
SplineSet
257 150 m 1x66
 665 150 l 1x66
 665 337 l 1
 815 337 l 1
 815 0 l 1
 107 0 l 1
 107 337 l 1
 257 337 l 1xa6
 257 150 l 1x66
650 775 m 1
 650 625 l 1
 272 625 l 1
 272 775 l 1
 650 775 l 1
107 1049 m 1x36
 107 1400 l 1
 815 1400 l 1
 815 1049 l 1
 665 1049 l 1x36
 665 1250 l 1
 257 1250 l 1x2e
 257 1049 l 1
 107 1049 l 1x36
EndSplineSet
Validated: 3073
EndChar

StartChar: Sigma
Encoding: 931 931 468
Width: 922
VWidth: 1947
Flags: W
HStem: -25 150<251 832> 1250 150<260 832>
LayerCount: 2
Fore
SplineSet
90 1400 m 1
 832 1400 l 1
 832 1250 l 1
 260 1250 l 1
 546 737 l 1
 251 125 l 1
 832 125 l 1
 832 -25 l 1
 90 -25 l 1
 90 134 l 1
 378 731 l 1
 90 1246 l 1
 90 1400 l 1
EndSplineSet
Validated: 3073
EndChar

StartChar: Psi
Encoding: 936 936 473
Width: 922
VWidth: 1947
Flags: W
HStem: -24 21G<386 536> 437 150<277.736 386 536 651.133> 1405 20G<386 536>
VStem: 87 150<621.956 1350> 386 150<-24 437 587 1425> 685 150<617.562 1350>
CounterMasks: 1 1c
LayerCount: 2
Fore
SplineSet
237 728 m 2
 237 685 275 587 346 587 c 2
 386 587 l 1
 386 1425 l 1
 536 1425 l 1
 536 587 l 1
 576 587 l 2
 642 587 685 652 685 728 c 2
 685 1350 l 1
 835 1350 l 1
 835 728 l 2
 835 574 731 437 576 437 c 2
 536 437 l 1
 536 -24 l 1
 386 -24 l 1
 386 437 l 1
 346 437 l 2
 147 437 87 641 87 728 c 2
 87 1350 l 1
 237 1350 l 1
 237 728 l 2
EndSplineSet
Validated: 3073
EndChar

StartChar: Omega
Encoding: 937 937 474
Width: 922
VWidth: 1947
Flags: W
HStem: 0 150<90 242 680 832> 1276 150<341.971 580.652>
VStem: 97 150<506.604 1159.35> 242 150<150 349.436> 530 150<150 344.772> 675 150<500.234 1158.96>
LayerCount: 2
Fore
SplineSet
242 150 m 1xd0
 242 293 l 1xd0
 118 434 97 657 97 817 c 2
 97 872 l 2
 97 1127 154 1426 455 1426 c 2
 467 1426 l 2
 770 1426 825 1125 825 874 c 2
 825 817 l 2xe4
 825 509 749 363 680 291 c 1
 680 150 l 1
 832 150 l 1
 832 0 l 1
 530 0 l 1
 530 358 l 1xc8
 557 381 l 1
 631 442 675 598 675 817 c 2
 675 874 l 2
 675 1233 560 1276 467 1276 c 2
 455 1276 l 2
 363 1276 247 1232 247 872 c 2
 247 817 l 2xe4
 247 714 256 486 369 377 c 2
 392 355 l 1
 392 0 l 1
 90 0 l 1
 90 150 l 1
 242 150 l 1xd0
EndSplineSet
Validated: 3073
EndChar

StartChar: alpha
Encoding: 945 945 483
Width: 922
VWidth: 1947
Flags: W
HStem: -40 150<333.682 508.476> -16 21G<705.747 801.25> 913 150<333.682 508.351> 1020 20G<702.808 798.25>
VStem: 97 150<226.514 797.91>
LayerCount: 2
Fore
SplineSet
749 516 m 1x18
 856 16 l 1
 710 -16 l 1x58
 673 158 l 1
 639 37 544 -40 411 -40 c 3
 170 -40 97 258 97 513 c 3
 97 768 170 1063 411 1063 c 3xa8
 543 1063 637 987 672 873 c 1
 707 1040 l 1
 853 1008 l 1
 749 516 l 1x18
596 516 m 1
 531 816 l 2
 519 870 486 913 411 913 c 3
 313 913 247 754 247 513 c 3
 247 270 313 110 411 110 c 3xa8
 474 110 515 139 530 207 c 2
 596 516 l 1
EndSplineSet
Validated: 3073
EndChar

StartChar: beta
Encoding: 946 946 484
Width: 922
VWidth: 2334
Flags: W
HStem: -25 150<289.341 647.137> 474 150<401 595.12> 899 150<299.146 619.23>
VStem: 107 150<-321 12 160.163 854.112> 651 150<678.643 866.758> 684 150<160.538 429.012>
LayerCount: 2
Fore
SplineSet
257 259 m 2xf8
 257 186 292 125 452 125 c 2
 490 125 l 2
 649 125 684 185 684 259 c 2
 684 325 l 2xf4
 684 444 585 474 489 474 c 2
 401 474 l 1
 401 624 l 1
 456 624 l 2
 592 624 651 708 651 784 c 3
 651 876 562 899 466 899 c 2
 452 899 l 2
 305 899 257 847 257 719 c 2
 257 259 l 2xf8
107 719 m 2
 107 883 176 1049 452 1049 c 2
 466 1049 l 2
 746 1049 801 890 801 784 c 3xf8
 801 705 769 627 708 568 c 1
 790 515 834 428 834 325 c 2
 834 259 l 2
 834 145 777 -25 490 -25 c 2
 452 -25 l 2
 369 -25 306 -11 257 12 c 1
 257 -321 l 1
 107 -321 l 1
 107 719 l 2
EndSplineSet
Validated: 3073
EndChar

StartChar: gamma
Encoding: 947 947 485
Width: 922
VWidth: 2334
Flags: W
HStem: -385 21G<386 536> 1004 20G<104 265.718 656.282 818>
VStem: 104 156<973.926 1024> 386 150<-385 89.0743> 662 156<973.926 1024>
CounterMasks: 1 38
LayerCount: 2
Fore
SplineSet
386 -385 m 1
 386 39 l 1
 104 1024 l 1
 260 1024 l 1
 461 321 l 1
 662 1024 l 1
 818 1024 l 1
 536 39 l 1
 536 -385 l 1
 386 -385 l 1
EndSplineSet
Validated: 3073
EndChar

StartChar: delta
Encoding: 948 948 486
Width: 922
VWidth: 2334
Flags: W
HStem: -25 150<348.09 584.275> 1250 150<362 740>
VStem: 107 150<234.381 808.503> 665 150<211.785 810.464>
LayerCount: 2
Fore
SplineSet
665 597 m 2
 665 735 626 899 470 899 c 2
 452 899 l 2
 296 899 257 738 257 597 c 2
 257 427 l 2
 257 242 347 125 452 125 c 2
 470 125 l 2
 626 125 665 284 665 427 c 2
 665 597 l 2
120 1400 m 1
 740 1400 l 1
 740 1250 l 1
 362 1250 l 1
 657 1024 l 2
 766 940 815 776 815 597 c 2
 815 427 l 2
 815 155 692 -25 470 -25 c 2
 452 -25 l 2
 256 -25 107 162 107 427 c 2
 107 597 l 2
 107 821 193 1001 373 1041 c 1
 120 1262 l 1
 120 1400 l 1
EndSplineSet
Validated: 3073
EndChar

StartChar: epsilon
Encoding: 949 949 487
Width: 922
VWidth: 2334
Flags: W
HStem: -25 150<314.591 651.636> 458 150<315.258 608> 899 150<295.639 650.144>
VStem: 107 150<176.5 402.125 662.201 863.169>
LayerCount: 2
Fore
SplineSet
651 856 m 1
 633 877 598 899 490 899 c 2
 452 899 l 2
 293 899 257 838 257 764 c 3
 257 694 312 608 456 608 c 2
 608 608 l 1
 608 458 l 1
 456 458 l 2
 305 458 257 356 257 317 c 2
 257 300 l 2
 257 210 301 125 452 125 c 2
 490 125 l 2
 589 125 624 135 653 171 c 1
 769 77 l 1
 705 -2 624 -25 490 -25 c 2
 452 -25 l 2
 235 -25 107 110 107 300 c 2
 107 317 l 2
 107 391 146 474 220 532 c 1
 144 592 107 680 107 764 c 3
 107 940 228 1049 452 1049 c 2
 490 1049 l 2
 697 1049 753 968 773 944 c 1
 651 856 l 1
EndSplineSet
Validated: 3073
EndChar

StartChar: zeta
Encoding: 950 950 488
Width: 922
VWidth: 2334
Flags: W
HStem: -369 150<461 641.188> -25 150<315.827 654.755>
VStem: 107 150<182.562 459.599> 665 150<-191.617 -44.4435>
LayerCount: 2
Fore
SplineSet
665 -104 m 3
 665 -51 623 -25 470 -25 c 2
 452 -25 l 2
 238 -25 107 105 107 337 c 2
 107 357 l 2
 107 513 244 627 319 686 c 2
 525 848 l 1
 576 884 l 1
 487 897 393 927 321 994 c 1
 423 1104 l 1
 492 1039 604 1024 760 1024 c 2
 812 1024 l 1
 812 895 l 1
 776 858 654 758 615 728 c 2
 411 568 l 2
 353 522 257 441 257 357 c 2
 257 337 l 2
 257 176 335 125 452 125 c 2
 470 125 l 2
 519 125 601 123 676 93 c 0
 770 55 815 -42 815 -104 c 3
 815 -214 757 -366 461 -369 c 1
 461 -219 l 1
 655 -219 665 -159 665 -104 c 3
EndSplineSet
Validated: 3073
EndChar

StartChar: eta
Encoding: 951 951 489
Width: 922
VWidth: 2334
Flags: W
HStem: -385 21G<665 815> 0 21G<107 257> 899 150<367.694 622.854> 1004 20G<107 257>
VStem: 107 150<0 758.159 957 1024> 665 150<-385 854.112>
LayerCount: 2
Fore
SplineSet
257 -0 m 1xec
 107 0 l 1
 107 1024 l 1
 257 1024 l 1xdc
 257 957 l 1
 310 1012 376 1049 452 1049 c 2
 470 1049 l 2
 746 1049 815 883 815 719 c 2
 815 -385 l 1
 665 -385 l 1
 665 719 l 2
 665 847 617 899 470 899 c 2
 452 899 l 2
 351 899 257 704 257 597 c 2
 257 -0 l 1xec
EndSplineSet
Validated: 3073
EndChar

StartChar: theta
Encoding: 952 952 490
Width: 922
VWidth: 1947
Flags: W
HStem: -25 150<340.341 586.497> 437 150<248 674> 898 150<335.135 582.526>
VStem: 97 151<232.332 437 587 798.092> 674 151<233.836 437 587 797.625>
LayerCount: 2
Fore
SplineSet
674 437 m 1
 248 437 l 1
 254 290 297 125 441 125 c 2
 476 125 l 2
 624 125 669 284 674 437 c 1
825 562 m 2
 825 470 l 2
 825 64 616 -25 476 -25 c 2
 441 -25 l 2
 207 -25 97 192 97 471 c 2
 97 561 l 2
 97 818 195 1048 439 1048 c 2
 478 1048 l 2
 723 1048 825 822 825 562 c 2
478 898 m 2
 439 898 l 2
 294 898 251 733 247 587 c 1
 674 587 l 1
 670 734 627 898 478 898 c 2
EndSplineSet
Validated: 3073
EndChar

StartChar: lambda
Encoding: 955 955 491
Width: 922
VWidth: 2334
Flags: W
HStem: 0 21G<104 265.718 656.282 818> 1390 20G<263 424.66>
LayerCount: 2
Fore
SplineSet
104 0 m 1
 383 976 l 1
 263 1410 l 1
 419 1410 l 1
 818 0 l 1
 662 0 l 1
 461 703 l 1
 260 0 l 1
 104 0 l 1
EndSplineSet
Validated: 3073
EndChar

StartChar: xi
Encoding: 958 958 494
Width: 922
VWidth: 2334
Flags: W
HStem: -369 150<458 608.715> -25 150<314.591 645.223> 458 150<311.936 648>
VStem: 107 150<176.5 401.551 661.986 869.175> 665 150<-166.178 -62.3672>
LayerCount: 2
Fore
SplineSet
458 -219 m 1
 579 -213 665 -146 665 -120 c 2
 665 -93 l 2
 665 -60 542 -25 490 -25 c 2
 452 -25 l 2
 235 -25 107 110 107 300 c 2
 107 317 l 2
 107 390 146 473 220 532 c 1
 144 592 107 679 107 764 c 3
 107 979 251 1027 388 1065 c 1
 326 1098 272 1142 224 1192 c 1
 332 1296 l 1
 457 1163 583 1154 623 1152 c 2
 700 1149 l 1
 700 1044 l 1
 665 1017 l 2
 483 879 257 958 257 764 c 3
 257 694 312 608 456 608 c 2
 648 608 l 1
 648 458 l 1
 456 458 l 2
 304 458 257 357 257 317 c 2
 257 300 l 2
 257 209 303 125 452 125 c 2
 490 125 l 2
 510 125 815 102 815 -88 c 2
 815 -120 l 2
 815 -245 664 -359 458 -369 c 1
 458 -219 l 1
EndSplineSet
Validated: 3073
EndChar

StartChar: pi
Encoding: 960 960 496
Width: 922
VWidth: 2334
Flags: W
HStem: -0 21G<153 325.5 593 764> 874 150<347 575 725 818.029>
VStem: 197 150<2.81245 866> 575 150<2.58029 874>
LayerCount: 2
Fore
SplineSet
90 990 m 1
 143 1012 209 1024 292 1024 c 2
 630 1024 l 2
 739 1024 798 1045 832 1081 c 1
 832 907 l 1
 800 894 764 885 725 880 c 1
 725 168 l 2
 725 105 741 47 764 -0 c 1
 710 0 656 0 602 -0 c 1
 584 55 575 113 575 168 c 2
 575 874 l 1
 347 874 l 1
 347 168 l 2
 347 120 336 60 315 0 c 1
 261 0 207 0 153 -0 c 1
 179 51 197 114 197 168 c 2
 197 866 l 1
 149 857 116 840 90 818 c 1
 90 990 l 1
EndSplineSet
Validated: 3073
EndChar

StartChar: rho
Encoding: 961 961 497
Width: 922
VWidth: 2334
Flags: W
HStem: -385 21G<107 257> -25 150<337.647 579.817> 899 150<337.725 573.91>
VStem: 107 150<-385 37 212.485 812.215> 665 150<219.303 789.619>
LayerCount: 2
Fore
SplineSet
665 427 m 2
 665 597 l 2
 665 782 575 899 470 899 c 2
 452 899 l 2
 296 899 257 740 257 597 c 2
 257 427 l 2
 257 286 296 125 452 125 c 2
 470 125 l 2
 626 125 665 286 665 427 c 2
470 -25 m 2
 452 -25 l 2
 373 -25 308 -2 257 37 c 1
 257 -385 l 1
 107 -385 l 1
 107 597 l 2
 107 869 230 1049 452 1049 c 2
 470 1049 l 2
 666 1049 815 862 815 597 c 2
 815 427 l 2
 815 173 704 -25 470 -25 c 2
EndSplineSet
Validated: 3073
EndChar

StartChar: sigmafinal
Encoding: 962 962 498
Width: 922
VWidth: 2059
Flags: W
HStem: -369 150<458 627.625> -25 150<348.09 649.138> 896 150<391.198 763.781>
VStem: 107 150<233.951 764.532> 665 150<-182.965 -53.6348>
LayerCount: 2
Fore
SplineSet
665 -92 m 2
 665 -76 626 -30 470 -25 c 2
 452 -25 l 2
 257 -25 107 161 107 427 c 2
 107 597 l 2
 107 852 286 1046 555 1046 c 3
 623 1046 695 1032 768 1004 c 2
 809 989 l 1
 757 849 l 1
 716 864 l 2
 657 886 603 896 555 896 c 3
 367 896 257 767 257 597 c 2
 257 427 l 2
 257 242 347 125 452 125 c 2
 470 125 l 2
 747 117 815 -5 815 -92 c 2
 815 -111 l 2
 815 -244 708 -369 458 -369 c 1
 458 -219 l 1
 544 -219 665 -197 665 -111 c 2
 665 -92 l 2
EndSplineSet
Validated: 3073
EndChar

StartChar: sigma
Encoding: 963 963 499
Width: 922
VWidth: 1947
Flags: W
HStem: -25 150<329.329 574.049> 858 149<753 882> 898 150<328.02 573.705>
VStem: 97 150<224.021 807.697> 655 150<229.302 802.81>
LayerCount: 2
Fore
SplineSet
805 562 m 2xd8
 805 470 l 2
 805 53 602 -25 466 -25 c 2
 431 -25 l 2
 297 -25 97 58 97 471 c 2
 97 561 l 2
 97 966 296 1048 429 1048 c 2
 468 1048 l 2xb8
 516 1048 571 1038 624 1007 c 1
 882 1008 l 1
 882 858 l 1
 753 858 l 1
 785 787 805 691 805 562 c 2xd8
468 898 m 2
 429 898 l 2
 283 898 247 723 247 561 c 2
 247 471 l 2
 247 306 284 125 431 125 c 2
 466 125 l 2
 593 125 655 247 655 470 c 2
 655 562 l 2
 655 725 618 898 468 898 c 2
EndSplineSet
Validated: 3073
EndChar

StartChar: tau
Encoding: 964 964 500
Width: 922
VWidth: 2334
Flags: W
HStem: 0 21G<282 480.5> 874 150<154.241 386 536 747.247>
VStem: 386 150<122.421 874>
LayerCount: 2
Fore
SplineSet
90 967 m 1
 145 1001 213 1024 292 1024 c 2
 630 1024 l 2
 723 1024 800 1106 832 1166 c 1
 832 943 l 1
 776 902 707 874 630 874 c 2
 536 874 l 1
 536 358 l 2
 536 248 507 113 454 0 c 1
 282 0 l 1
 334 80 386 214 386 358 c 2
 386 874 l 1
 292 874 l 2
 196 874 125 818 90 764 c 1
 90 967 l 1
EndSplineSet
Validated: 3073
EndChar

StartChar: upsilon
Encoding: 965 965 501
Width: 922
VWidth: 1947
Flags: W
HStem: -25 150<347.377 580.077> 898 150<491 595.884> 1004 20G<107 257>
VStem: 107 150<235.584 1024> 675 150<246.282 811.604>
LayerCount: 2
Fore
SplineSet
825 513 m 3xd8
 825 53 607 -25 461 -25 c 3
 249 -25 107 129 107 513 c 2
 107 1024 l 1
 257 1024 l 1xb8
 257 513 l 2
 257 225 335 125 461 125 c 3
 589 125 675 229 675 513 c 3
 675 808 618 898 491 898 c 1
 491 1048 l 1
 770 1048 825 797 825 513 c 3xd8
EndSplineSet
Validated: 3073
EndChar

StartChar: phi
Encoding: 966 966 502
Width: 922
VWidth: 1947
Flags: W
HStem: -385 21G<386 536> 898 150<557.552 666.944>
VStem: 57 150<278.628 973> 386 150<-385 -8.82861 137 888.213> 715 150<275.351 845.536>
CounterMasks: 1 38
LayerCount: 2
Fore
SplineSet
605 898 m 3
 555 898 536 802 536 734 c 2
 536 137 l 1
 677 186 715 375 715 513 c 3
 715 756 684 898 605 898 c 3
386 734 m 2
 386 933 456 1048 605 1048 c 3
 756 1048 865 949 865 513 c 3
 865 220 736 21 536 -18 c 1
 536 -385 l 1
 386 -385 l 1
 386 -18 l 1
 186 21 57 220 57 513 c 2
 57 973 l 1
 207 973 l 1
 207 513 l 2
 207 377 245 186 386 137 c 1
 386 734 l 2
EndSplineSet
Validated: 3073
EndChar

StartChar: chi
Encoding: 967 967 503
Width: 922
VWidth: 2062
Flags: W
HStem: -385 21G<122 288.385 629.769 849> 1004 20G<88 286.118 632.657 799>
LayerCount: 2
Fore
SplineSet
122 -385 m 1
 377 308 l 1
 320 543 l 2
 284 690 219 840 176 900 c 2
 88 1024 l 1
 272 1024 l 1
 296 990 l 2
 366 892 440 695 470 561 c 1
 640 1024 l 1
 799 1024 l 1
 534 301 l 1
 565 174 l 2
 608 -1 678 -193 736 -259 c 2
 849 -385 l 1
 649 -385 l 1
 624 -359 l 2
 549 -274 484 -96 442 51 c 1
 281 -385 l 1
 122 -385 l 1
EndSplineSet
Validated: 3073
EndChar

StartChar: psi
Encoding: 968 968 504
Width: 922
VWidth: 1947
Flags: W
HStem: -385 21G<386 536> 1029 20G<386 536>
VStem: 57 150<278.628 973> 386 150<-385 -8.82861 139 1049> 715 150<285.562 973>
CounterMasks: 1 38
LayerCount: 2
Fore
SplineSet
386 1049 m 1
 536 1049 l 1
 536 139 l 1
 646 183 715 324 715 513 c 2
 715 973 l 1
 865 973 l 1
 865 513 l 2
 865 234 736 25 536 -17 c 1
 536 -385 l 1
 386 -385 l 1
 386 -18 l 1
 186 21 57 220 57 513 c 2
 57 973 l 1
 207 973 l 1
 207 513 l 2
 207 377 245 186 386 137 c 1
 386 1049 l 1
EndSplineSet
Validated: 3073
EndChar

StartChar: omega
Encoding: 969 969 505
Width: 922
VWidth: 2334
Flags: W
HStem: -25 150<244.133 376.265 541.286 671.188> 1004 20G<130 314 608 791>
VStem: 67 150<145.22 944.375> 386 150<134.192 732> 705 150<151.22 941.804>
CounterMasks: 1 38
LayerCount: 2
Fore
SplineSet
288 -25 m 2
 200 -25 67 58 67 336 c 2
 67 734 l 2
 67 828 68 930 130 1017 c 2
 135 1024 l 1
 314 1024 l 1
 254 933 l 2
 224 888 217 834 217 734 c 2
 217 336 l 2
 217 188 258 125 288 125 c 2
 298 125 l 2
 351 125 386 157 386 215 c 2
 386 732 l 1
 536 732 l 1
 536 557 536 207 536 207 c 2
 536 174 538 125 620 125 c 2
 630 125 l 2
 672 125 705 240 705 337 c 2
 705 734 l 2
 705 834 695 893 667 935 c 2
 608 1024 l 1
 789 1024 l 1
 791 1021 l 2
 855 933 855 819 855 734 c 2
 855 337 l 2
 855 -16 685 -25 630 -25 c 2
 620 -25 l 2
 563 -25 506 -10 463 25 c 1
 411 -19 332 -25 298 -25 c 2
 288 -25 l 2
EndSplineSet
Validated: 3073
EndChar

StartChar: dieresiscmb
Encoding: 776 776 508
Width: 922
VWidth: 1947
Flags: W
HStem: 1250 228<130.237 301.639 620.386 791.456>
VStem: 105 222<1274.84 1454.49> 596 220<1275.15 1455.47>
LayerCount: 2
Fore
SplineSet
327 1367 m 3
 327 1306 277 1250 217 1250 c 3
 157 1250 105 1302 105 1367 c 3
 105 1434 160 1478 215 1478 c 3
 279 1478 327 1426 327 1367 c 3
816 1367 m 3
 816 1299 763 1250 707 1250 c 3
 648 1250 596 1303 596 1367 c 3
 596 1432 648 1478 707 1478 c 3
 760 1478 816 1434 816 1367 c 3
EndSplineSet
Validated: 3073
EndChar

StartChar: Djecyrillic
Encoding: 1026 1026 512
Width: 922
VWidth: 2334
Flags: W
HStem: 0 150<607 673.381> 829 150<511.491 681.482> 1250 150<70 287 437 742>
VStem: 287 150<0 737 898 1250> 695 150<164.531 818.821>
LayerCount: 2
Fore
SplineSet
625 150 m 2
 653 150 695 181 695 336 c 2
 695 719 l 2
 695 812 657 829 600 829 c 3
 501 829 437 721 437 417 c 2
 437 -0 l 1
 287 0 l 1
 287 1250 l 1
 70 1250 l 1
 70 1400 l 1
 742 1400 l 1
 742 1250 l 1
 437 1250 l 1
 437 898 l 1
 471 937 524 979 582 979 c 2
 600 979 l 2
 796 979 845 833 845 719 c 2
 845 336 l 2
 845 54 713 0 625 0 c 2
 607 0 l 1
 607 150 l 1
 625 150 l 2
EndSplineSet
Validated: 3073
EndChar

StartChar: Ljecyrillic
Encoding: 1033 1033 513
Width: 922
VWidth: 1947
Flags: W
HStem: 0 150<547 683.722> 722 150<547 674.963> 1250 150<330.408 397>
VStem: 397 150<150 722 872 1250> 735 150<205.556 664.859>
LayerCount: 2
Fore
SplineSet
147 1081 m 2
 158 1211 221 1400 333 1400 c 2
 547 1400 l 1
 547 872 l 1
 763 869 885 739 885 515 c 2
 885 357 l 2
 885 185 816 0 540 0 c 2
 397 0 l 1
 397 1250 l 1
 355 1250 l 1
 336 1225 305 1164 297 1069 c 2
 204 0 l 1
 52 0 l 1
 147 1081 l 2
547 722 m 1
 547 150 l 1
 689 152 735 224 735 357 c 2
 735 515 l 2
 735 627 697 719 547 722 c 1
EndSplineSet
Validated: 3073
EndChar

StartChar: Njecyrillic
Encoding: 1034 1034 514
Width: 922
VWidth: 1947
Flags: W
HStem: 0 150<547 682.852> 722 150<208 397 547 674.963> 1380 20G<58 208 397 547>
VStem: 58 150<0 722 872 1400> 397 150<150 722 872 1400> 735 150<207.132 666.125>
LayerCount: 2
Fore
SplineSet
547 722 m 1
 547 150 l 1
 690 152 735 227 735 359 c 2
 735 517 l 2
 735 629 697 719 547 722 c 1
207 -0 m 1
 58 0 l 1
 58 1400 l 1
 208 1400 l 1
 208 872 l 1
 397 872 l 1
 397 1400 l 1
 547 1400 l 1
 547 872 l 1
 763 869 885 740 885 517 c 2
 885 359 l 2
 885 187 816 0 540 0 c 2
 397 0 l 1
 397 722 l 1
 208 722 l 1
 207 -0 l 1
EndSplineSet
Validated: 3073
EndChar

StartChar: Tshecyrillic
Encoding: 1035 1035 515
Width: 922
VWidth: 2334
Flags: W
HStem: 0 21G<287 437 695 845> 829 150<529.021 681.482> 1250 150<70 287 437 742>
VStem: 287 150<0 698.935 906 1250> 695 150<0 819.298>
LayerCount: 2
Fore
SplineSet
695 719 m 2
 695 787 686 829 600 829 c 2
 584 829 l 2
 556 829 437 727 437 417 c 2
 437 -0 l 1
 287 0 l 1
 287 1250 l 1
 70 1250 l 1
 70 1400 l 1
 742 1400 l 1
 742 1250 l 1
 437 1250 l 1
 437 906 l 1
 489 970 556 979 582 979 c 2
 600 979 l 2
 796 979 845 847 845 719 c 2
 845 0 l 1
 695 -0 l 1
 695 719 l 2
EndSplineSet
Validated: 3073
EndChar

StartChar: Dzhecyrillic
Encoding: 1039 1039 516
Width: 922
VWidth: 2334
Flags: W
HStem: -385 21G<386 536> 0 150<257 386 536 665> 1380 20G<107 257 665 815>
VStem: 107 150<150 1400> 386 150<-385 0> 665 150<150 1400>
CounterMasks: 1 1c
LayerCount: 2
Fore
SplineSet
257 150 m 1
 665 150 l 1
 665 1400 l 1
 815 1400 l 1
 815 0 l 1
 536 0 l 1
 536 -385 l 1
 386 -385 l 1
 386 0 l 1
 107 0 l 1
 107 1400 l 1
 257 1400 l 1
 257 150 l 1
EndSplineSet
Validated: 3073
EndChar

StartChar: djecyrillic
Encoding: 1106 1106 517
Width: 922
VWidth: 2334
Flags: W
HStem: -369 150<390.388 616.912> -0 21G<157 307> 780 150<420.877 626.6> 1110 150<30 157 307 605> 1404 20G<157 307>
VStem: 157 150<0 629.916 834 1110 1260 1424> 665 150<-168.193 741.005>
LayerCount: 2
Fore
SplineSet
475 -219 m 2
 526 -219 l 2
 611 -219 665 -134 665 -28 c 2
 665 553 l 2
 665 741 619 780 520 780 c 2
 502 780 l 2
 402 780 307 570 307 463 c 2
 307 -0 l 1
 157 -0 l 1
 157 1110 l 1
 30 1110 l 1
 30 1260 l 1
 157 1260 l 1
 157 1424 l 1
 307 1424 l 1
 307 1260 l 1
 605 1260 l 1
 605 1110 l 1
 307 1110 l 1
 307 834 l 1
 360 891 426 930 502 930 c 2
 520 930 l 2
 756 930 815 762 815 553 c 2
 815 -28 l 2
 815 -216 699 -369 526 -369 c 2
 475 -369 l 2
 399 -369 322 -338 272 -275 c 1
 390 -181 l 1
 398 -191 424 -219 475 -219 c 2
EndSplineSet
Validated: 3073
EndChar

StartChar: dzhecyrillic
Encoding: 1119 1119 519
Width: 922
VWidth: 2334
Flags: W
HStem: -385 21G<386 536> 0 150<257 386 536 665> 1004 20G<107 258 665 815>
VStem: 107 150<150 1024> 386 150<-385 0> 665 150<150 1024>
CounterMasks: 1 1c
LayerCount: 2
Fore
SplineSet
257 150 m 1
 665 150 l 1
 665 1024 l 1
 815 1024 l 1
 815 0 l 1
 536 0 l 1
 536 -385 l 1
 386 -385 l 1
 386 0 l 1
 107 -0 l 1
 107 1024 l 1
 258 1024 l 1
 257 150 l 1
EndSplineSet
Validated: 3073
EndChar

StartChar: ljecyrillic
Encoding: 1113 1113 520
Width: 922
VWidth: 1947
Flags: W
HStem: 0 150<537 679.762> 486 150<538 674.695> 887 150<298.71 388>
VStem: 388 150<150 486 636 887> 705 150<169.523 456.287>
LayerCount: 2
Fore
SplineSet
90 619 m 2
 106 875 178 986 311 1037 c 1
 538 1037 l 1
 538 636 l 1
 600 636 l 2
 822 636 855 422 855 357 c 2
 855 279 l 2
 855 177 812 0 600 0 c 2
 388 0 l 1
 388 887 l 1
 341 887 l 1
 272 851 248 747 240 611 c 2
 204 0 l 1
 54 0 l 1
 90 619 l 2
705 357 m 2
 705 450 633 486 600 486 c 2
 537 486 l 1
 537 150 l 1
 600 150 l 2
 643 150 705 177 705 279 c 2
 705 357 l 2
EndSplineSet
Validated: 3073
EndChar

StartChar: njecyrillic
Encoding: 1114 1114 521
Width: 922
VWidth: 1947
Flags: W
HStem: 0 150<537 677.207> 486 150<217 387 537 679.916> 1004 20G<67 217 387 537>
VStem: 67 150<0 486 636 1024> 387 150<150 486 636 1024> 705 150<177.732 462.527>
LayerCount: 2
Fore
SplineSet
217 -0 m 1
 67 0 l 1
 67 1024 l 1
 217 1024 l 1
 217 636 l 1
 387 636 l 1
 387 1024 l 1
 537 1024 l 1
 537 636 l 1
 600 636 l 2
 736 636 855 516 855 373 c 2
 855 295 l 2
 855 110 729 0 600 0 c 2
 387 0 l 1
 387 486 l 1
 217 486 l 1
 217 -0 l 1
537 150 m 1
 600 150 l 2
 649 150 705 196 705 295 c 2
 705 373 l 2
 705 432 654 486 600 486 c 2
 537 486 l 1
 537 150 l 1
EndSplineSet
Validated: 3073
EndChar

StartChar: apostrophereverse
Encoding: 8219 8219 523
Width: 922
VWidth: 1708
Flags: W
HStem: 933 55<586.714 621.91>
VStem: 320 169<1094.3 1353>
LayerCount: 2
Fore
SplineSet
320 1313 m 27
 320 1393 382 1458 467 1458 c 3
 554 1458 613 1389 613 1313 c 3
 613 1265 587 1216 523 1198 c 0
 495 1190 489 1154 489 1132 c 3
 489 1066 581 1007 633 988 c 1
 618 933 l 1
 388 959 320 1125 320 1313 c 27
EndSplineSet
Validated: 3073
EndChar

StartChar: arrowleft
Encoding: 8592 8592 526
Width: 922
VWidth: 1708
Flags: W
HStem: 520 160<287 872>
LayerCount: 2
Fore
SplineSet
872 680 m 1
 872 520 l 1
 287 520 l 1
 517 297 l 1
 405 183 l 1
 50 527 l 1
 50 673 l 1
 405 1017 l 1
 517 903 l 1
 287 680 l 1
 872 680 l 1
EndSplineSet
Validated: 3073
EndChar

StartChar: arrowright
Encoding: 8594 8594 527
Width: 922
VWidth: 1708
Flags: W
HStem: 520 160<50 635>
LayerCount: 2
Fore
SplineSet
50 520 m 1
 50 680 l 1
 635 680 l 1
 405 903 l 1
 517 1017 l 1
 872 673 l 1
 872 527 l 1
 517 183 l 1
 405 297 l 1
 635 520 l 1
 50 520 l 1
EndSplineSet
Validated: 3073
EndChar

StartChar: lthorizform
Encoding: 9472 9472 528
Width: 922
Flags: W
HStem: 443 160<0 922>
LayerCount: 2
Fore
SplineSet
0 443 m 1
 -0 603 l 1
 922 603 l 1
 922 443 l 1
 0 443 l 1
EndSplineSet
Validated: 3073
EndChar

StartChar: ltvertform
Encoding: 9474 9474 529
Width: 922
Flags: W
VStem: 381 160<-615 1775>
LayerCount: 2
Fore
SplineSet
541 -615 m 1
 381 -615 l 1
 381 1775 l 1
 541 1775 l 1
 541 -615 l 1
EndSplineSet
Validated: 3073
EndChar

StartChar: rightanglenw
Encoding: 9484 9484 530
Width: 922
Flags: W
HStem: 443 160<541 922>
VStem: 381 160<-615 443>
LayerCount: 2
Fore
SplineSet
381 -615 m 1
 381 603 l 1
 922 603 l 1
 922 443 l 1
 541 443 l 1
 541 -615 l 1
 381 -615 l 1
EndSplineSet
Validated: 3073
EndChar

StartChar: rightanglene
Encoding: 9488 9488 531
Width: 922
Flags: W
HStem: 443 160<0 381>
VStem: 381 160<-615 443>
LayerCount: 2
Fore
SplineSet
381 443 m 1
 0 443 l 1
 -0 603 l 1
 541 603 l 1
 541 -615 l 1
 381 -615 l 1
 381 443 l 1
EndSplineSet
Validated: 3073
EndChar

StartChar: rightanglesw
Encoding: 9492 9492 532
Width: 922
Flags: W
HStem: 443 160<541 922>
VStem: 381 160<603 1775>
LayerCount: 2
Fore
SplineSet
541 603 m 1
 922 603 l 1
 922 443 l 1
 381 443 l 1
 381 1775 l 1
 541 1775 l 1
 541 603 l 1
EndSplineSet
Validated: 3073
EndChar

StartChar: rightanglese
Encoding: 9496 9496 533
Width: 922
Flags: W
HStem: 443 160<0 381>
VStem: 381 160<603 1775>
LayerCount: 2
Fore
SplineSet
541 1775 m 1
 541 443 l 1
 0 443 l 1
 -0 603 l 1
 381 603 l 1
 381 1775 l 1
 541 1775 l 1
EndSplineSet
Validated: 3073
EndChar

StartChar: ltvertrightform
Encoding: 9500 9500 534
Width: 922
Flags: W
HStem: 443 160<541 922>
VStem: 381 160<-615 443 603 1775>
LayerCount: 2
Fore
SplineSet
541 -615 m 1
 381 -615 l 1
 381 1775 l 1
 541 1775 l 1
 541 603 l 1
 922 603 l 1
 922 443 l 1
 541 443 l 1
 541 -615 l 1
EndSplineSet
Validated: 3073
EndChar

StartChar: ltvertleftform
Encoding: 9508 9508 535
Width: 922
Flags: W
HStem: 443 160<0 381>
VStem: 381 160<-615 443 603 1775>
LayerCount: 2
Fore
SplineSet
0 443 m 1
 -0 603 l 1
 381 603 l 1
 381 1775 l 1
 541 1775 l 1
 541 -615 l 1
 381 -615 l 1
 381 443 l 1
 0 443 l 1
EndSplineSet
Validated: 3073
EndChar

StartChar: ltdnhorizform
Encoding: 9516 9516 536
Width: 922
Flags: W
HStem: 443 160<0 381 541 922>
VStem: 381 160<-615 443>
LayerCount: 2
Fore
SplineSet
0 443 m 1
 -0 603 l 1
 922 603 l 1
 922 443 l 1
 541 443 l 1
 541 -615 l 1
 381 -615 l 1
 381 443 l 1
 0 443 l 1
EndSplineSet
Validated: 3073
EndChar

StartChar: ltuphorizform
Encoding: 9524 9524 537
Width: 922
Flags: W
HStem: 443 160<0 381 541 922>
VStem: 381 160<603 1775>
LayerCount: 2
Fore
SplineSet
0 443 m 1
 -0 603 l 1
 381 603 l 1
 381 1775 l 1
 541 1775 l 1
 541 603 l 1
 922 603 l 1
 922 443 l 1
 0 443 l 1
EndSplineSet
Validated: 3073
EndChar

StartChar: ltverthorizform
Encoding: 9532 9532 538
Width: 922
Flags: W
HStem: 443 160<0 381 541 922>
VStem: 381 160<-615 443 603 1775>
LayerCount: 2
Fore
SplineSet
0 443 m 1
 -0 603 l 1
 381 603 l 1
 381 1775 l 1
 541 1775 l 1
 541 603 l 1
 922 603 l 1
 922 443 l 1
 541 443 l 1
 541 -615 l 1
 381 -615 l 1
 381 443 l 1
 0 443 l 1
EndSplineSet
Validated: 3073
EndChar

StartChar: horizdblbar
Encoding: 9552 9552 539
Width: 922
Flags: W
HStem: 283 160<0 922> 603 160<0 922>
LayerCount: 2
Fore
SplineSet
0 603 m 1
 -0 763 l 1
 922 763 l 1
 922 603 l 1
 0 603 l 1
0 283 m 1
 -0 443 l 1
 922 443 l 1
 922 283 l 1
 0 283 l 1
EndSplineSet
Validated: 3073
EndChar

StartChar: vertdblbar
Encoding: 9553 9553 540
Width: 922
Flags: W
VStem: 221 160<-615 1775> 541 160<-615 1775>
LayerCount: 2
Fore
SplineSet
701 -615 m 1
 541 -615 l 1
 541 1775 l 1
 701 1775 l 1
 701 -615 l 1
381 -615 m 1
 221 -615 l 1
 221 1775 l 1
 381 1775 l 1
 381 -615 l 1
EndSplineSet
Validated: 3073
EndChar

StartChar: dnrtdblform
Encoding: 9554 9554 541
Width: 922
Flags: W
HStem: 283 160<541 922> 603 160<541 922>
VStem: 381 160<-615 283 443 603>
LayerCount: 2
Fore
SplineSet
541 283 m 1
 541 -615 l 1
 381 -615 l 1
 381 763 l 1
 922 763 l 1
 922 603 l 1
 541 603 l 1
 541 443 l 1
 922 443 l 1
 922 283 l 1
 541 283 l 1
EndSplineSet
Validated: 3073
EndChar

StartChar: dndblrtform
Encoding: 9555 9555 542
Width: 922
Flags: W
HStem: 443 160<381 541 701 922>
VStem: 221 160<-615 443> 541 160<-615 443>
LayerCount: 2
Fore
SplineSet
701 -615 m 1
 541 -615 l 1
 541 443 l 1
 381 443 l 1
 381 -615 l 1
 221 -615 l 1
 221 603 l 1
 922 603 l 1
 922 443 l 1
 701 443 l 1
 701 -615 l 1
EndSplineSet
Validated: 3073
EndChar

StartChar: dbldnrtform
Encoding: 9556 9556 543
Width: 922
Flags: W
HStem: 283 160<701 922> 603 160<381 922>
VStem: 221 160<-615 603> 541 160<-615 283>
LayerCount: 2
Fore
SplineSet
381 603 m 1
 381 -615 l 1
 221 -615 l 1
 221 763 l 1
 922 763 l 1
 922 603 l 1
 381 603 l 1
701 283 m 1
 701 -615 l 1
 541 -615 l 1
 541 443 l 1
 922 443 l 1
 922 283 l 1
 701 283 l 1
EndSplineSet
Validated: 3073
EndChar

StartChar: dnleftdblform
Encoding: 9557 9557 544
Width: 922
Flags: W
HStem: 283 160<0 381> 603 160<0 381>
VStem: 381 160<-615 283 443 603>
LayerCount: 2
Fore
SplineSet
0 763 m 1
 541 763 l 1
 541 -615 l 1
 381 -615 l 1
 381 283 l 1
 0 283 l 1
 -0 443 l 1
 381 443 l 1
 381 603 l 1
 -0 603 l 1
 0 763 l 1
EndSplineSet
Validated: 3073
EndChar

StartChar: dndblleftform
Encoding: 9558 9558 545
Width: 922
Flags: W
HStem: 443 160<0 221 381 541>
VStem: 221 160<-615 443> 541 160<-615 443>
LayerCount: 2
Fore
SplineSet
381 -615 m 1
 221 -615 l 1
 221 443 l 1
 0 443 l 1
 -0 603 l 1
 701 603 l 1
 701 -615 l 1
 541 -615 l 1
 541 443 l 1
 381 443 l 1
 381 -615 l 1
EndSplineSet
Validated: 3073
EndChar

StartChar: dbldnleftform
Encoding: 9559 9559 546
Width: 922
Flags: W
HStem: 283 160<0 221> 603 160<0 541>
VStem: 221 160<-615 283> 541 160<-615 603>
LayerCount: 2
Fore
SplineSet
0 763 m 1
 701 763 l 1
 701 -615 l 1
 541 -615 l 1
 541 603 l 1
 -0 603 l 1
 0 763 l 1
0 443 m 1
 381 443 l 1
 381 -615 l 1
 221 -615 l 1
 221 283 l 1
 -0 283 l 1
 0 443 l 1
EndSplineSet
Validated: 3073
EndChar

StartChar: uprtdblform
Encoding: 9560 9560 547
Width: 922
Flags: W
HStem: 283 160<541 922> 603 160<541 922>
VStem: 381 160<443 603 763 1775>
LayerCount: 2
Fore
SplineSet
922 283 m 1
 381 283 l 1
 381 1775 l 1
 541 1775 l 1
 541 763 l 1
 922 763 l 1
 922 603 l 1
 541 603 l 1
 541 443 l 1
 922 443 l 1
 922 283 l 1
EndSplineSet
Validated: 3073
EndChar

StartChar: updblrtform
Encoding: 9561 9561 548
Width: 922
Flags: W
HStem: 443 160<381 541 701 922>
VStem: 221 160<603 1775> 541 160<603 1775>
LayerCount: 2
Fore
SplineSet
701 603 m 1
 922 603 l 1
 922 443 l 1
 221 443 l 1
 221 1775 l 1
 381 1775 l 1
 381 603 l 1
 541 603 l 1
 541 1775 l 1
 701 1775 l 1
 701 603 l 1
EndSplineSet
Validated: 3073
EndChar

StartChar: dbluprtform
Encoding: 9562 9562 549
Width: 922
Flags: W
HStem: 283 160<381 922> 603 160<701 922>
VStem: 221 160<443 1775> 541 160<763 1775>
LayerCount: 2
Fore
SplineSet
922 603 m 1
 541 603 l 1
 541 1775 l 1
 701 1775 l 1
 701 763 l 1
 922 763 l 1
 922 603 l 1
922 283 m 1
 221 283 l 1
 221 1775 l 1
 381 1775 l 1
 381 443 l 1
 922 443 l 1
 922 283 l 1
EndSplineSet
Validated: 3073
EndChar

StartChar: upleftdblform
Encoding: 9563 9563 550
Width: 922
Flags: W
HStem: 283 160<0 381> 603 160<0 381>
VStem: 381 160<443 603 763 1775>
LayerCount: 2
Fore
SplineSet
0 603 m 1
 -0 763 l 1
 381 763 l 1
 381 1775 l 1
 541 1775 l 1
 541 283 l 1
 -0 283 l 1
 0 443 l 1
 381 443 l 1
 381 603 l 1
 0 603 l 1
EndSplineSet
Validated: 3073
EndChar

StartChar: updblleftform
Encoding: 9564 9564 551
Width: 922
Flags: W
HStem: 443 160<0 221 381 541>
VStem: 221 160<603 1775> 541 160<603 1775>
LayerCount: 2
Fore
SplineSet
701 1775 m 1
 701 443 l 1
 0 443 l 1
 -0 603 l 1
 221 603 l 1
 221 1775 l 1
 381 1775 l 1
 381 603 l 1
 541 603 l 1
 541 1775 l 1
 701 1775 l 1
EndSplineSet
Validated: 3073
EndChar

StartChar: dblupleftform
Encoding: 9565 9565 552
Width: 922
Flags: W
HStem: 283 160<0 541> 603 160<0 221>
VStem: 221 160<763 1775> 541 160<443 1775>
LayerCount: 2
Fore
SplineSet
221 763 m 1
 221 1775 l 1
 381 1775 l 1
 381 603 l 1
 -0 603 l 1
 0 763 l 1
 221 763 l 1
541 443 m 1
 541 1775 l 1
 701 1775 l 1
 701 283 l 1
 -0 283 l 1
 0 443 l 1
 541 443 l 1
EndSplineSet
Validated: 3073
EndChar

StartChar: vertrtdblform
Encoding: 9566 9566 553
Width: 922
Flags: W
HStem: 283 160<541 922> 603 160<541 922>
VStem: 381 160<-615 283 443 603 763 1775>
LayerCount: 2
Fore
SplineSet
541 -615 m 1
 381 -615 l 1
 381 1775 l 5
 541 1775 l 5
 541 763 l 1
 922 763 l 1
 922 603 l 1
 541 603 l 1
 541 443 l 1
 922 443 l 1
 922 283 l 1
 541 283 l 1
 541 -615 l 1
EndSplineSet
Validated: 3073
EndChar

StartChar: vertdblrtform
Encoding: 9567 9567 554
Width: 922
Flags: W
HStem: 443 160<701 922>
VStem: 221 160<-615 1775> 541 160<-615 443 603 1775>
LayerCount: 2
Fore
SplineSet
381 1775 m 5
 381 -615 l 5
 221 -615 l 5
 221 1775 l 5
 381 1775 l 5
541 1775 m 5
 701 1775 l 5
 701 603 l 5
 922 603 l 5
 922 443 l 5
 701 443 l 5
 701 -615 l 5
 541 -615 l 5
 541 1775 l 5
EndSplineSet
Validated: 3073
EndChar

StartChar: dblvertrtform
Encoding: 9568 9568 555
Width: 922
Flags: W
HStem: 283 160<701 922> 603 160<701 922>
VStem: 221 160<-615 1775> 541 381<283 443 603 763> 541 160<-615 283 763 1775>
LayerCount: 2
Fore
SplineSet
381 -615 m 1xe0
 221 -615 l 1
 221 1775 l 5
 381 1775 l 5
 381 -615 l 1xe0
922 603 m 1xf0
 541 603 l 1xf0
 541 1775 l 5
 701 1775 l 5
 701 763 l 1xe8
 922 763 l 1
 922 603 l 1xf0
701 283 m 1xe8
 701 -615 l 1
 541 -615 l 1xe8
 541 443 l 1
 922 443 l 1
 922 283 l 1xf0
 701 283 l 1xe8
EndSplineSet
Validated: 3073
EndChar

StartChar: vertleftdblform
Encoding: 9569 9569 556
Width: 922
Flags: W
HStem: 283 160<0 381> 603 160<0 381>
VStem: 381 160<-615 283 443 603 763 1775>
LayerCount: 2
Fore
SplineSet
541 -615 m 1
 381 -615 l 1
 381 283 l 1
 0 283 l 1
 -0 443 l 1
 381 443 l 1
 381 603 l 1
 0 603 l 1
 -0 763 l 1
 381 763 l 1
 381 1775 l 1
 541 1775 l 1
 541 -615 l 1
EndSplineSet
Validated: 3073
EndChar

StartChar: vertdblleftform
Encoding: 9570 9570 557
Width: 922
Flags: W
HStem: 443 160<0 221>
VStem: 221 160<-615 443 603 1775> 541 160<-615 1775>
LayerCount: 2
Fore
SplineSet
0 443 m 1
 -0 603 l 1
 221 603 l 1
 221 1775 l 1
 381 1775 l 1
 381 -615 l 1
 221 -615 l 1
 221 443 l 1
 0 443 l 1
701 -615 m 1
 541 -615 l 1
 541 1775 l 1
 701 1775 l 1
 701 -615 l 1
EndSplineSet
Validated: 3073
EndChar

StartChar: dblvertleftform
Encoding: 9571 9571 558
Width: 922
Flags: W
HStem: 283 160<0 221> 603 160<0 221>
VStem: -0 381<283 443 603 763> 221 160<-615 283 763 1775> 541 160<-615 1775>
LayerCount: 2
Fore
SplineSet
701 -615 m 1xc8
 541 -615 l 1
 541 1775 l 1
 701 1775 l 1
 701 -615 l 1xc8
221 763 m 1xd8
 221 1775 l 1
 381 1775 l 1xd8
 381 603 l 1
 -0 603 l 1
 0 763 l 1xe8
 221 763 l 1xd8
0 443 m 1xe8
 381 443 l 1xe8
 381 -615 l 1
 221 -615 l 1
 221 283 l 1xd8
 -0 283 l 1
 0 443 l 1xe8
EndSplineSet
Validated: 3073
EndChar

StartChar: dnhorizdblform
Encoding: 9572 9572 559
Width: 922
Flags: W
HStem: 283 160<0 381 541 922> 603 160<0 922>
VStem: 381 160<-615 283>
LayerCount: 2
Fore
SplineSet
541 -615 m 1
 381 -615 l 1
 381 283 l 1
 0 283 l 1
 -0 443 l 1
 922 443 l 1
 922 283 l 1
 541 283 l 1
 541 -615 l 1
0 603 m 1
 -0 763 l 1
 922 763 l 1
 922 603 l 1
 0 603 l 1
EndSplineSet
Validated: 3073
EndChar

StartChar: dndblhorizform
Encoding: 9573 9573 560
Width: 922
Flags: W
HStem: 443 160<0 221 381 541 701 922>
VStem: 221 160<-615 443> 541 160<-615 443>
LayerCount: 2
Fore
SplineSet
0 443 m 1
 -0 603 l 1
 922 603 l 1
 922 443 l 1
 701 443 l 1
 701 -615 l 1
 541 -615 l 1
 541 443 l 1
 381 443 l 1
 381 -615 l 1
 221 -615 l 1
 221 443 l 1
 0 443 l 1
EndSplineSet
Validated: 3073
EndChar

StartChar: dbldnhorizform
Encoding: 9574 9574 561
Width: 922
Flags: W
HStem: 283 160<0 221 701 922> 603 160<0 922>
VStem: 221 160<-615 283> 541 160<-615 283>
LayerCount: 2
Fore
SplineSet
0 603 m 1
 -0 763 l 1
 922 763 l 1
 922 603 l 1
 0 603 l 1
0 443 m 1
 381 443 l 1
 381 -615 l 1
 221 -615 l 1
 221 283 l 1
 -0 283 l 1
 0 443 l 1
701 283 m 1
 701 -615 l 1
 541 -615 l 1
 541 443 l 1
 922 443 l 1
 922 283 l 1
 701 283 l 1
EndSplineSet
Validated: 3073
EndChar

StartChar: uphorizdblform
Encoding: 9575 9575 562
Width: 922
Flags: W
HStem: 283 160<0 922> 603 160<0 381 541 922>
VStem: 381 160<763 1775>
LayerCount: 2
Fore
SplineSet
0 603 m 1
 -0 763 l 1
 381 763 l 1
 381 1775 l 1
 541 1775 l 1
 541 763 l 1
 922 763 l 1
 922 603 l 1
 0 603 l 1
0 283 m 1
 -0 443 l 1
 922 443 l 1
 922 283 l 1
 0 283 l 1
EndSplineSet
Validated: 3073
EndChar

StartChar: updblhorizform
Encoding: 9576 9576 563
Width: 922
Flags: W
HStem: 443 160<0 221 381 541 701 922>
VStem: 221 160<603 1775> 541 160<603 1775>
LayerCount: 2
Fore
SplineSet
0 443 m 1
 -0 603 l 1
 221 603 l 1
 221 1775 l 1
 381 1775 l 1
 381 603 l 1
 541 603 l 1
 541 1775 l 1
 701 1775 l 1
 701 603 l 1
 922 603 l 1
 922 443 l 1
 0 443 l 1
EndSplineSet
Validated: 3073
EndChar

StartChar: dbluphorizform
Encoding: 9577 9577 564
Width: 922
Flags: W
HStem: 283 160<0 922> 603 160<0 221 701 922>
VStem: 221 160<763 1775> 541 160<763 1775>
LayerCount: 2
Fore
SplineSet
221 763 m 1
 221 1775 l 1
 381 1775 l 1
 381 603 l 1
 -0 603 l 1
 0 763 l 1
 221 763 l 1
922 603 m 1
 541 603 l 1
 541 1775 l 1
 701 1775 l 1
 701 763 l 1
 922 763 l 1
 922 603 l 1
0 283 m 1
 -0 443 l 1
 922 443 l 1
 922 283 l 1
 0 283 l 1
EndSplineSet
Validated: 3073
EndChar

StartChar: verthorizdblform
Encoding: 9578 9578 565
Width: 922
Flags: W
HStem: 283 160<0 381 541 922> 603 160<0 381 541 922>
VStem: 381 160<-615 283 763 1775>
LayerCount: 2
Fore
SplineSet
0 603 m 1
 -0 763 l 1
 381 763 l 1
 381 1775 l 1
 541 1775 l 1
 541 763 l 1
 922 763 l 1
 922 603 l 1
 0 603 l 1
-0 443 m 1
 922 443 l 1
 922 283 l 1
 541 283 l 1
 541 -615 l 1
 381 -615 l 1
 381 283 l 1
 0 283 l 1
 -0 443 l 1
EndSplineSet
Validated: 3073
EndChar

StartChar: vertdblhorizform
Encoding: 9579 9579 566
Width: 922
Flags: W
HStem: 443 160<0 221 701 922>
VStem: 221 160<-615 443 603 1775> 541 160<-615 443 603 1775>
LayerCount: 2
Fore
SplineSet
541 1775 m 1
 701 1775 l 1
 701 603 l 1
 922 603 l 1
 922 443 l 1
 701 443 l 1
 701 -615 l 1
 541 -615 l 1
 541 1775 l 1
381 -615 m 1
 221 -615 l 1
 221 443 l 1
 0 443 l 1
 -0 603 l 1
 221 603 l 1
 221 1775 l 1
 381 1775 l 1
 381 -615 l 1
EndSplineSet
Validated: 3073
EndChar

StartChar: dblverthorizform
Encoding: 9580 9580 567
Width: 922
Flags: W
HStem: 283 160<0 221 701 922> 603 160<0 221 701 922>
VStem: -0 381<283 443 603 763> 221 160<-615 283 763 1775> 541 381<283 443 603 763> 541 160<-615 283 763 1775>
LayerCount: 2
Fore
SplineSet
221 763 m 1xd0
 221 1775 l 1
 381 1775 l 1xd0
 381 603 l 1
 -0 603 l 1
 0 763 l 1xe0
 221 763 l 1xd0
922 603 m 1xc8
 541 603 l 1xc8
 541 1775 l 1
 701 1775 l 1
 701 763 l 1xc4
 922 763 l 1
 922 603 l 1xc8
0 443 m 1xe0
 381 443 l 1xe0
 381 -615 l 1
 221 -615 l 1
 221 283 l 1xd0
 -0 283 l 1
 0 443 l 1xe0
701 283 m 1xc4
 701 -615 l 1
 541 -615 l 1xc4
 541 443 l 1
 922 443 l 1
 922 283 l 1xc8
 701 283 l 1xc4
EndSplineSet
Validated: 3073
EndChar

StartChar: upblock
Encoding: 9600 9600 568
Width: 922
Flags: W
VStem: -0 922<523 1775>
LayerCount: 2
Fore
SplineSet
922 523 m 1
 -0 523 l 1
 0 1775 l 1
 922 1775 l 1
 922 523 l 1
EndSplineSet
Validated: 3073
EndChar

StartChar: dnblock
Encoding: 9604 9604 569
Width: 922
Flags: W
HStem: -615 1138<0 922>
VStem: -0 922<-615 523>
LayerCount: 2
Fore
SplineSet
922 -615 m 1
 -0 -615 l 1
 -0 523 l 1
 922 523 l 1
 922 -615 l 1
EndSplineSet
Validated: 3073
EndChar

StartChar: block
Encoding: 9608 9608 570
Width: 922
Flags: W
VStem: -0 922<-615 1775>
LayerCount: 2
Fore
SplineSet
-0 -615 m 1
 0 1775 l 1
 922 1775 l 1
 922 -615 l 1
 -0 -615 l 1
EndSplineSet
Validated: 3073
EndChar

StartChar: lfblock
Encoding: 9612 9612 571
Width: 922
Flags: W
VStem: -0 461<-615 1775>
LayerCount: 2
Fore
SplineSet
-0 -615 m 1
 0 1775 l 1
 461 1775 l 1
 461 -615 l 1
 -0 -615 l 1
EndSplineSet
Validated: 3073
EndChar

StartChar: rtblock
Encoding: 9616 9616 572
Width: 922
Flags: W
VStem: 461 461<-615 1775>
LayerCount: 2
Fore
SplineSet
461 -615 m 1
 461 1775 l 1
 922 1775 l 1
 922 -615 l 1
 461 -615 l 1
EndSplineSet
Validated: 3073
EndChar

StartChar: shadelight
Encoding: 9617 9617 573
Width: 922
Flags: W
HStem: -514 100<153 230 461 540 769 846> -315 100<0 77 307 385 616 693> -115 99<153 230 461 540 769 846> 83 100<0 77 307 385 616 693> 283 99<153 230 461 540 769 846> 482 99<0 77 307 385 616 693> 681 100<153 230 461 540 769 846> 881 99<0 77 307 385 616 693> 1080 99<153 230 461 540 769 846> 1278 100<0 77 307 385 616 693> 1477 100<153 230 461 540 769 846> 1677 98<0 77 307 385 616 693>
VStem: 0 77<-315 -215 83 183 482 581 881 980 1278 1378 1677 1775> 153 77<-514 -414 -115 -16 283 382 681 781 1080 1179 1477 1577> 307 78<-315 -215 83 183 482 581 881 980 1278 1378 1677 1775> 461 79<-514 -414 -115 -16 283 382 681 781 1080 1179 1477 1577> 616 77<-315 -215 83 183 482 581 881 980 1278 1378 1677 1775> 769 77<-514 -414 -115 -16 283 382 681 781 1080 1179 1477 1577>
LayerCount: 2
Fore
SplineSet
0 1378 m 1
 77 1378 l 1
 77 1278 l 1
 0 1278 l 1
 0 1378 l 1
307 1378 m 1
 385 1378 l 1
 385 1278 l 1
 307 1278 l 1
 307 1378 l 1
616 1378 m 1
 693 1378 l 1
 693 1278 l 1
 616 1278 l 1
 616 1378 l 1
153 1179 m 1
 230 1179 l 1
 230 1080 l 1
 153 1080 l 1
 153 1179 l 1
461 1179 m 1
 540 1179 l 1
 540 1080 l 1
 461 1080 l 1
 461 1179 l 1
769 1179 m 1
 846 1179 l 1
 846 1080 l 1
 769 1080 l 1
 769 1179 l 1
616 980 m 1
 693 980 l 1
 693 881 l 1
 616 881 l 1
 616 980 l 1
307 980 m 1
 385 980 l 1
 385 881 l 1
 307 881 l 1
 307 980 l 1
0 980 m 1
 77 980 l 1
 77 881 l 1
 0 881 l 1
 0 980 l 1
769 781 m 1
 846 781 l 1
 846 681 l 1
 769 681 l 1
 769 781 l 1
461 781 m 1
 540 781 l 1
 540 681 l 1
 461 681 l 1
 461 781 l 1
153 781 m 1
 230 781 l 1
 230 681 l 1
 153 681 l 1
 153 781 l 1
0 581 m 1
 77 581 l 1
 77 482 l 1
 0 482 l 1
 0 581 l 1
307 581 m 1
 385 581 l 1
 385 482 l 1
 307 482 l 1
 307 581 l 1
616 581 m 1
 693 581 l 1
 693 482 l 1
 616 482 l 1
 616 581 l 1
769 382 m 1
 846 382 l 1
 846 283 l 1
 769 283 l 1
 769 382 l 1
461 382 m 1
 540 382 l 1
 540 283 l 1
 461 283 l 1
 461 382 l 1
153 382 m 1
 230 382 l 1
 230 283 l 1
 153 283 l 1
 153 382 l 1
0 183 m 1
 77 183 l 1
 77 83 l 1
 0 83 l 1
 0 183 l 1
307 183 m 1
 385 183 l 1
 385 83 l 1
 307 83 l 1
 307 183 l 1
616 183 m 1
 693 183 l 1
 693 83 l 1
 616 83 l 1
 616 183 l 1
153 -16 m 1
 230 -16 l 1
 230 -115 l 1
 153 -115 l 1
 153 -16 l 1
461 -16 m 1
 540 -16 l 1
 540 -115 l 1
 461 -115 l 1
 461 -16 l 1
769 -16 m 1
 846 -16 l 1
 846 -115 l 1
 769 -115 l 1
 769 -16 l 1
616 -215 m 1
 693 -215 l 1
 693 -315 l 1
 616 -315 l 1
 616 -215 l 1
307 -215 m 1
 385 -215 l 1
 385 -315 l 1
 307 -315 l 1
 307 -215 l 1
0 -215 m 1
 77 -215 l 1
 77 -315 l 1
 0 -315 l 1
 0 -215 l 1
153 -414 m 1
 230 -414 l 1
 230 -514 l 1
 153 -514 l 1
 153 -414 l 1
461 -414 m 1
 540 -414 l 1
 540 -514 l 1
 461 -514 l 1
 461 -414 l 1
769 -414 m 1
 846 -414 l 1
 846 -514 l 1
 769 -514 l 1
 769 -414 l 1
153 1577 m 1
 230 1577 l 1
 230 1477 l 1
 153 1477 l 1
 153 1577 l 1
461 1577 m 1
 540 1577 l 1
 540 1477 l 1
 461 1477 l 1
 461 1577 l 1
769 1577 m 1
 846 1577 l 1
 846 1477 l 1
 769 1477 l 1
 769 1577 l 1
0 1775 m 1
 77 1775 l 1
 77 1677 l 1
 0 1677 l 1
 0 1775 l 1
307 1775 m 1
 385 1775 l 1
 385 1677 l 1
 307 1677 l 1
 307 1775 l 1
616 1775 m 1
 693 1775 l 1
 693 1677 l 1
 616 1677 l 1
 616 1775 l 1
EndSplineSet
Validated: 3073
EndChar

StartChar: shademedium
Encoding: 9618 9618 574
Width: 922
Flags: W
HStem: -514 100<0 77 153 230 307 384 461 539 616 692 769 846> -315 100<77 153 230 307 384 461 539 616 692 769 846 922> -115 99<0 77 153 230 307 384 461 539 616 692 769 846> 83 100<77 153 230 307 384 461 539 616 692 769 846 922> 283 99<0 77 153 230 307 384 461 539 616 692 769 846> 482 99<77 153 230 307 384 461 539 616 692 769 846 922> 681 100<0 77 153 230 307 384 461 539 616 692 769 846> 881 99<77 153 230 307 384 461 539 616 692 769 846 922> 1080 99<0 77 153 230 307 384 461 539 616 692 769 846> 1278 100<77 153 230 307 384 461 539 616 692 769 846 922> 1477 100<0 77 153 230 307 384 461 539 616 692 769 846> 1677 98<77 153 230 307 384 461 539 616 692 769 846 922>
VStem: 0 77<-514 -414 -115 -16 283 382 681 781 1080 1179 1477 1577> 77 76<-315 -215 83 183 482 581 881 980 1278 1378 1677 1775> 153 77<-514 -414 -115 -16 283 382 681 781 1080 1179 1477 1577> 230 77<-315 -215 83 183 482 581 881 980 1278 1378 1677 1775> 307 77<-514 -414 -115 -16 283 382 681 781 1080 1179 1477 1577> 384 77<-315 -215 83 183 482 581 881 980 1278 1378 1677 1775> 461 78<-514 -414 -115 -16 283 382 681 781 1080 1179 1477 1577> 539 77<-315 -215 83 183 482 581 881 980 1278 1378 1677 1775> 616 76<-514 -414 -115 -16 283 382 681 781 1080 1179 1477 1577> 692 77<-315 -215 83 183 482 581 881 980 1278 1378 1677 1775> 769 77<-514 -414 -115 -16 283 382 681 781 1080 1179 1477 1577> 846 76<-315 -215 83 183 482 581 881 980 1278 1378 1677 1775>
LayerCount: 2
Fore
SplineSet
77 1378 m 1
 153 1378 l 1
 153 1278 l 1
 77 1278 l 1
 77 1378 l 1
230 1378 m 1
 307 1378 l 1
 307 1278 l 1
 230 1278 l 1
 230 1378 l 1
384 1378 m 1
 461 1378 l 1
 461 1278 l 1
 384 1278 l 1
 384 1378 l 1
539 1378 m 1
 616 1378 l 1
 616 1278 l 1
 539 1278 l 1
 539 1378 l 1
692 1378 m 1
 769 1378 l 1
 769 1278 l 1
 692 1278 l 1
 692 1378 l 1
846 1378 m 1
 922 1378 l 1
 922 1278 l 1
 846 1278 l 1
 846 1378 l 1
0 1179 m 1
 77 1179 l 1
 77 1080 l 1
 0 1080 l 1
 0 1179 l 1
153 1179 m 1
 230 1179 l 1
 230 1080 l 1
 153 1080 l 1
 153 1179 l 1
307 1179 m 1
 384 1179 l 1
 384 1080 l 1
 307 1080 l 1
 307 1179 l 1
461 1179 m 1
 539 1179 l 1
 539 1080 l 1
 461 1080 l 1
 461 1179 l 1
616 1179 m 1
 692 1179 l 1
 692 1080 l 1
 616 1080 l 1
 616 1179 l 1
769 1179 m 1
 846 1179 l 1
 846 1080 l 1
 769 1080 l 1
 769 1179 l 1
77 980 m 1
 153 980 l 1
 153 881 l 1
 77 881 l 1
 77 980 l 1
230 980 m 1
 307 980 l 1
 307 881 l 1
 230 881 l 1
 230 980 l 1
384 980 m 1
 461 980 l 1
 461 881 l 1
 384 881 l 1
 384 980 l 1
539 980 m 1
 616 980 l 1
 616 881 l 1
 539 881 l 1
 539 980 l 1
692 980 m 1
 769 980 l 1
 769 881 l 1
 692 881 l 1
 692 980 l 1
846 980 m 1
 922 980 l 1
 922 881 l 1
 846 881 l 1
 846 980 l 1
0 781 m 1
 77 781 l 1
 77 681 l 1
 0 681 l 1
 0 781 l 1
153 781 m 1
 230 781 l 1
 230 681 l 1
 153 681 l 1
 153 781 l 1
307 781 m 1
 384 781 l 1
 384 681 l 1
 307 681 l 1
 307 781 l 1
461 781 m 1
 539 781 l 1
 539 681 l 1
 461 681 l 1
 461 781 l 1
616 781 m 1
 692 781 l 1
 692 681 l 1
 616 681 l 1
 616 781 l 1
769 781 m 1
 846 781 l 1
 846 681 l 1
 769 681 l 1
 769 781 l 1
77 581 m 1
 153 581 l 1
 153 482 l 1
 77 482 l 1
 77 581 l 1
230 581 m 1
 307 581 l 1
 307 482 l 1
 230 482 l 1
 230 581 l 1
384 581 m 1
 461 581 l 1
 461 482 l 1
 384 482 l 1
 384 581 l 1
539 581 m 1
 616 581 l 1
 616 482 l 1
 539 482 l 1
 539 581 l 1
692 581 m 1
 769 581 l 1
 769 482 l 1
 692 482 l 1
 692 581 l 1
846 581 m 1
 922 581 l 1
 922 482 l 1
 846 482 l 1
 846 581 l 1
0 382 m 1
 77 382 l 1
 77 283 l 1
 0 283 l 1
 0 382 l 1
307 382 m 1
 384 382 l 1
 384 283 l 1
 307 283 l 1
 307 382 l 1
461 382 m 1
 539 382 l 1
 539 283 l 1
 461 283 l 1
 461 382 l 1
616 382 m 1
 692 382 l 1
 692 283 l 1
 616 283 l 1
 616 382 l 1
769 382 m 1
 846 382 l 1
 846 283 l 1
 769 283 l 1
 769 382 l 1
153 382 m 1
 230 382 l 1
 230 283 l 1
 153 283 l 1
 153 382 l 1
846 183 m 1
 922 183 l 1
 922 83 l 1
 846 83 l 1
 846 183 l 1
692 183 m 1
 769 183 l 1
 769 83 l 1
 692 83 l 1
 692 183 l 1
539 183 m 1
 616 183 l 1
 616 83 l 1
 539 83 l 1
 539 183 l 1
384 183 m 1
 461 183 l 1
 461 83 l 1
 384 83 l 1
 384 183 l 1
230 183 m 1
 307 183 l 1
 307 83 l 1
 230 83 l 1
 230 183 l 1
77 183 m 1
 153 183 l 1
 153 83 l 1
 77 83 l 1
 77 183 l 1
0 -16 m 1
 77 -16 l 1
 77 -115 l 1
 0 -115 l 1
 0 -16 l 1
153 -16 m 1
 230 -16 l 1
 230 -115 l 1
 153 -115 l 1
 153 -16 l 1
307 -16 m 1
 384 -16 l 1
 384 -115 l 1
 307 -115 l 1
 307 -16 l 1
461 -16 m 1
 539 -16 l 1
 539 -115 l 1
 461 -115 l 1
 461 -16 l 1
616 -16 m 1
 692 -16 l 1
 692 -115 l 1
 616 -115 l 1
 616 -16 l 1
769 -16 m 1
 846 -16 l 1
 846 -115 l 1
 769 -115 l 1
 769 -16 l 1
846 -215 m 1
 922 -215 l 1
 922 -315 l 1
 846 -315 l 1
 846 -215 l 1
692 -215 m 1
 769 -215 l 1
 769 -315 l 1
 692 -315 l 1
 692 -215 l 1
539 -215 m 1
 616 -215 l 1
 616 -315 l 1
 539 -315 l 1
 539 -215 l 1
384 -215 m 1
 461 -215 l 1
 461 -315 l 1
 384 -315 l 1
 384 -215 l 1
230 -215 m 1
 307 -215 l 1
 307 -315 l 1
 230 -315 l 1
 230 -215 l 1
77 -215 m 1
 153 -215 l 1
 153 -315 l 1
 77 -315 l 1
 77 -215 l 1
0 -414 m 1
 77 -414 l 1
 77 -514 l 1
 0 -514 l 1
 0 -414 l 1
153 -414 m 1
 230 -414 l 1
 230 -514 l 1
 153 -514 l 1
 153 -414 l 1
307 -414 m 1
 384 -414 l 1
 384 -514 l 1
 307 -514 l 1
 307 -414 l 1
461 -414 m 1
 539 -414 l 1
 539 -514 l 1
 461 -514 l 1
 461 -414 l 1
616 -414 m 1
 692 -414 l 1
 692 -514 l 1
 616 -514 l 1
 616 -414 l 1
769 -414 m 1
 846 -414 l 1
 846 -514 l 1
 769 -514 l 1
 769 -414 l 1
0 1577 m 1
 77 1577 l 1
 77 1477 l 1
 0 1477 l 1
 0 1577 l 1
153 1577 m 1
 230 1577 l 1
 230 1477 l 1
 153 1477 l 1
 153 1577 l 1
307 1577 m 1
 384 1577 l 1
 384 1477 l 1
 307 1477 l 1
 307 1577 l 1
461 1577 m 1
 539 1577 l 1
 539 1477 l 1
 461 1477 l 1
 461 1577 l 1
616 1577 m 1
 692 1577 l 1
 692 1477 l 1
 616 1477 l 1
 616 1577 l 1
769 1577 m 1
 846 1577 l 1
 846 1477 l 1
 769 1477 l 1
 769 1577 l 1
77 1775 m 1
 153 1775 l 1
 153 1677 l 1
 77 1677 l 1
 77 1775 l 1
230 1775 m 1
 307 1775 l 1
 307 1677 l 1
 230 1677 l 1
 230 1775 l 1
384 1775 m 1
 461 1775 l 1
 461 1677 l 1
 384 1677 l 1
 384 1775 l 1
539 1775 m 1
 616 1775 l 1
 616 1677 l 1
 539 1677 l 1
 539 1775 l 1
692 1775 m 1
 769 1775 l 1
 769 1677 l 1
 692 1677 l 1
 692 1775 l 1
846 1775 m 1
 922 1775 l 1
 922 1677 l 1
 846 1677 l 1
 846 1775 l 1
EndSplineSet
Validated: 8391681
EndChar

StartChar: shadedark
Encoding: 9619 9619 575
Width: 922
Flags: W
HStem: -615 300<0 77 153 230 307 384 461 539 616 692 769 846> -615 101<77 153 230 307 384 461 539 616 692 769 846 922> -414 299<77 153 230 307 384 461 539 616 692 769 846 922> -215 299<0 77 153 230 307 384 461 539 616 692 769 846> -16 299<77 153 230 307 384 461 539 616 692 769 846 922> 183 299<0 77 153 230 307 384 461 539 616 692 769 846> 382 299<77 153 230 307 384 461 539 616 692 769 846 922> 581 299<0 77 153 230 307 384 461 539 616 692 769 846> 781 299<77 153 230 307 384 461 539 616 692 769 846 922> 980 299<0 77 153 230 307 384 461 539 616 692 769 846> 1179 299<77 153 230 307 384 461 539 616 692 769 846 922> 1378 299<0 77 153 230 307 384 461 539 616 692 769 846> 1577 198<77 153 230 307 384 461 539 616 692 769 846 922>
VStem: 0 77<-514 -414 -115 -16 283 382 681 781 1080 1179 1478 1577> 77 76<-315 -215 84 183 482 581 881 980 1279 1378 1677 1775> 153 77<-514 -414 -115 -16 283 382 681 781 1080 1179 1478 1577> 230 77<-315 -215 84 183 482 581 880 980 1279 1378 1677 1775> 307 77<-514 -414 -115 -16 283 382 681 781 1080 1179 1478 1577> 384 77<-315 -215 84 183 482 581 880 980 1279 1378 1677 1775> 461 78<-514 -414 -115 -16 283 382 681 781 1080 1179 1478 1577> 539 77<-315 -215 84 183 482 581 880 980 1279 1378 1677 1775> 616 76<-514 -414 -115 -16 283 382 681 781 1080 1179 1478 1577> 692 77<-315 -215 84 183 482 581 880 980 1279 1378 1677 1775> 769 77<-514 -414 -115 -16 283 382 681 781 1080 1179 1478 1577> 846 76<-315 -215 84 183 482 581 880 980 1279 1378 1677 1775>
LayerCount: 2
Fore
SplineSet
922 1577 m 1x000fff80
 846 1577 l 1
 846 1478 l 1
 922 1478 l 1
 922 1179 l 1
 846 1179 l 1
 846 1080 l 1
 922 1080 l 1
 922 781 l 1
 846 781 l 1
 846 681 l 1
 922 681 l 1
 922 382 l 1
 846 382 l 1
 846 283 l 1
 922 283 l 1
 922 -16 l 1
 846 -16 l 1
 846 -115 l 1
 922 -115 l 1
 922 -414 l 1
 846 -414 l 1
 846 -514 l 1
 922 -514 l 1
 922 -615 l 1x6aafff80
 0 -615 l 1
 0 -315 l 1
 77 -315 l 1
 77 -215 l 1
 0 -215 l 1
 0 83 l 1
 77 83 l 1
 77 183 l 1
 0 183 l 1
 0 482 l 1
 77 482 l 1
 77 581 l 1
 0 581 l 1
 0 881 l 1
 77 881 l 1
 77 980 l 1
 0 980 l 1
 0 1279 l 1
 77 1279 l 1
 77 1378 l 1
 0 1378 l 1
 0 1677 l 1
 77 1677 l 1x9557ff80
 77 1775 l 1
 153 1775 l 1x000fff80
 153 1677 l 1
 230 1677 l 1x0017ff80
 230 1775 l 1
 307 1775 l 1x000fff80
 307 1677 l 1
 384 1677 l 1x0017ff80
 384 1775 l 1
 461 1775 l 1x000fff80
 461 1677 l 1
 539 1677 l 1x0017ff80
 539 1775 l 1
 616 1775 l 1x000fff80
 616 1677 l 1
 692 1677 l 1x0017ff80
 692 1775 l 1
 769 1775 l 1x000fff80
 769 1677 l 1
 846 1677 l 1x0017ff80
 846 1775 l 1
 922 1775 l 1
 922 1577 l 1x000fff80
77 1179 m 1
 77 1080 l 1
 153 1080 l 1
 153 1179 l 1
 77 1179 l 1
230 1179 m 1
 230 1080 l 1
 307 1080 l 1
 307 1179 l 1
 230 1179 l 1
384 1179 m 1
 384 1080 l 1
 461 1080 l 1
 461 1179 l 1
 384 1179 l 1
539 1179 m 1
 539 1080 l 1
 616 1080 l 1
 616 1179 l 1
 539 1179 l 1
692 1179 m 1
 692 1080 l 1
 769 1080 l 1
 769 1179 l 1
 692 1179 l 1
846 980 m 1x0147ff80
 769 980 l 1
 769 880 l 1
 846 880 l 1
 846 980 l 1x0147ff80
692 980 m 1
 616 980 l 1
 616 880 l 1
 692 880 l 1
 692 980 l 1
539 980 m 1
 461 980 l 1
 461 880 l 1
 539 880 l 1
 539 980 l 1
384 980 m 1
 307 980 l 1
 307 880 l 1
 384 880 l 1
 384 980 l 1
230 980 m 1
 153 980 l 1
 153 880 l 1
 230 880 l 1
 230 980 l 1
77 781 m 1x0287ff80
 77 681 l 1
 153 681 l 1
 153 781 l 1
 77 781 l 1x0287ff80
230 781 m 1
 230 681 l 1
 307 681 l 1
 307 781 l 1
 230 781 l 1
384 781 m 1
 384 681 l 1
 461 681 l 1
 461 781 l 1
 384 781 l 1
539 781 m 1
 539 681 l 1
 616 681 l 1
 616 781 l 1
 539 781 l 1
692 781 m 1
 692 681 l 1
 769 681 l 1
 769 781 l 1
 692 781 l 1
230 581 m 1x0507ff80
 153 581 l 1
 153 482 l 1
 230 482 l 1
 230 581 l 1x0507ff80
307 581 m 1
 307 482 l 1
 384 482 l 1
 384 581 l 1
 307 581 l 1
461 581 m 1
 461 482 l 1
 539 482 l 1
 539 581 l 1
 461 581 l 1
616 581 m 1
 616 482 l 1
 692 482 l 1
 692 581 l 1
 616 581 l 1
769 581 m 1
 769 482 l 1
 846 482 l 1
 846 581 l 1
 769 581 l 1
77 382 m 1x0a07ff80
 77 283 l 1
 153 283 l 1
 153 382 l 1
 77 382 l 1x0a07ff80
384 382 m 1
 384 283 l 1
 461 283 l 1
 461 382 l 1
 384 382 l 1
307 283 m 1
 307 382 l 1
 230 382 l 1
 230 283 l 1
 307 283 l 1
539 382 m 1
 539 283 l 1
 616 283 l 1
 616 382 l 1
 539 382 l 1
692 382 m 1
 692 283 l 1
 769 283 l 1
 769 382 l 1
 692 382 l 1
846 84 m 1x1407ff80
 846 183 l 1
 769 183 l 1
 769 84 l 1
 846 84 l 1x1407ff80
692 84 m 1
 692 183 l 1
 616 183 l 1
 616 84 l 1
 692 84 l 1
539 84 m 1
 539 183 l 1
 461 183 l 1
 461 84 l 1
 539 84 l 1
384 84 m 1
 384 183 l 1
 307 183 l 1
 307 84 l 1
 384 84 l 1
230 84 m 1
 230 183 l 1
 153 183 l 1
 153 84 l 1
 230 84 l 1
77 -16 m 1x2807ff80
 77 -115 l 1
 153 -115 l 1
 153 -16 l 1
 77 -16 l 1x2807ff80
230 -16 m 1
 230 -115 l 1
 307 -115 l 1
 307 -16 l 1
 230 -16 l 1
384 -16 m 1
 384 -115 l 1
 461 -115 l 1
 461 -16 l 1
 384 -16 l 1
539 -16 m 1
 539 -115 l 1
 616 -115 l 1
 616 -16 l 1
 539 -16 l 1
692 -16 m 1
 692 -115 l 1
 769 -115 l 1
 769 -16 l 1
 692 -16 l 1
846 -315 m 1x9007ff80
 846 -215 l 1
 769 -215 l 1
 769 -315 l 1
 846 -315 l 1x9007ff80
692 -315 m 1
 692 -215 l 1
 616 -215 l 1
 616 -315 l 1
 692 -315 l 1
539 -315 m 1
 539 -215 l 1
 461 -215 l 1
 461 -315 l 1
 539 -315 l 1
384 -315 m 1
 384 -215 l 1
 307 -215 l 1
 307 -315 l 1
 384 -315 l 1
230 -315 m 1
 230 -215 l 1
 153 -215 l 1
 153 -315 l 1
 230 -315 l 1
77 -414 m 1x6007ff80
 77 -514 l 1
 153 -514 l 1
 153 -414 l 1
 77 -414 l 1x6007ff80
230 -414 m 1
 230 -514 l 1
 307 -514 l 1
 307 -414 l 1
 230 -414 l 1
384 -414 m 1
 384 -514 l 1
 461 -514 l 1
 461 -414 l 1
 384 -414 l 1
539 -414 m 1
 539 -514 l 1
 616 -514 l 1
 616 -414 l 1
 539 -414 l 1
692 -414 m 1
 692 -514 l 1
 769 -514 l 1
 769 -414 l 1
 692 -414 l 1
846 1378 m 1x0057ff80
 769 1378 l 1
 769 1279 l 1
 846 1279 l 1
 846 1378 l 1x0057ff80
692 1378 m 1
 616 1378 l 1
 616 1279 l 1
 692 1279 l 1
 692 1378 l 1
539 1378 m 1
 461 1378 l 1
 461 1279 l 1
 539 1279 l 1
 539 1378 l 1
384 1378 m 1
 307 1378 l 1
 307 1279 l 1
 384 1279 l 1
 384 1378 l 1
230 1378 m 1
 153 1378 l 1
 153 1279 l 1
 230 1279 l 1
 230 1378 l 1
769 1577 m 1x002fff80
 692 1577 l 1
 692 1478 l 1
 769 1478 l 1
 769 1577 l 1x002fff80
616 1577 m 1
 539 1577 l 1
 539 1478 l 1
 616 1478 l 1
 616 1577 l 1
461 1577 m 1
 384 1577 l 1
 384 1478 l 1
 461 1478 l 1
 461 1577 l 1
307 1577 m 1
 230 1577 l 1
 230 1478 l 1
 307 1478 l 1
 307 1577 l 1
153 1577 m 1
 77 1577 l 1
 77 1478 l 1
 153 1478 l 1
 153 1577 l 1
EndSplineSet
Validated: 8391681
EndChar

StartChar: blacksquare
Encoding: 9632 9632 576
Width: 922
Flags: W
HStem: 116 992<0 922>
VStem: 0 922<116 1108>
LayerCount: 2
Fore
SplineSet
0 1108 m 5
 922 1108 l 5
 922 116 l 5
 0 116 l 5
 0 1108 l 5
EndSplineSet
Validated: 3073
EndChar

StartChar: whitesquare
Encoding: 9633 9633 577
Width: 922
Flags: W
HStem: 116 192<187 734> 917 192<187 734>
VStem: 0 187<308 917> 734 188<308 917>
LayerCount: 2
Fore
SplineSet
0 1109 m 1
 922 1109 l 1
 922 116 l 1
 0 116 l 1
 0 1109 l 1
187 917 m 1
 187 308 l 1
 734 308 l 1
 734 917 l 1
 187 917 l 1
EndSplineSet
Validated: 3073
EndChar

StartChar: blacksmallsquare
Encoding: 9642 9642 578
Width: 922
Flags: W
HStem: 400 473<224 697>
VStem: 224 473<400 873>
LayerCount: 2
Fore
SplineSet
697 400 m 1
 224 400 l 1
 224 873 l 1
 697 873 l 1
 697 400 l 1
EndSplineSet
Validated: 3073
EndChar

StartChar: whitesmallsquare
Encoding: 9643 9643 579
Width: 922
Flags: W
HStem: 400 114<342 579> 759 114<342 579>
VStem: 224 118<514 759> 579 118<514 759>
LayerCount: 2
Fore
SplineSet
697 400 m 1
 224 400 l 1
 224 873 l 1
 697 873 l 1
 697 400 l 1
579 514 m 1
 579 759 l 1
 342 759 l 1
 342 514 l 1
 579 514 l 1
EndSplineSet
Validated: 3073
EndChar

StartChar: blackrectangle
Encoding: 9644 9644 580
Width: 922
Flags: W
HStem: 395 231<0 922>
LayerCount: 2
Fore
SplineSet
0 626 m 1
 922 626 l 5
 922 395 l 5
 0 395 l 1
 0 626 l 1
EndSplineSet
Validated: 3073
EndChar

StartChar: triagup
Encoding: 9650 9650 581
Width: 922
Flags: W
LayerCount: 2
Fore
SplineSet
0 114 m 1
 460 914 l 1
 922 114 l 1
 0 114 l 1
EndSplineSet
Validated: 3073
EndChar

StartChar: triagrt
Encoding: 9658 9658 582
Width: 922
Flags: W
LayerCount: 2
Fore
SplineSet
63 -63 m 1
 61 860 l 1
 861 398 l 1
 63 -63 l 1
EndSplineSet
Validated: 3073
EndChar

StartChar: triagdn
Encoding: 9660 9660 583
Width: 922
Flags: W
LayerCount: 2
Fore
SplineSet
922 914 m 1
 462 114 l 1
 0 914 l 1
 922 914 l 1
EndSplineSet
Validated: 3073
EndChar

StartChar: triaglf
Encoding: 9668 9668 584
Width: 922
Flags: W
LayerCount: 2
Fore
SplineSet
62 398 m 1
 860 861 l 1
 860 -63 l 1
 62 398 l 1
EndSplineSet
Validated: 3073
EndChar

StartChar: lozenge
Encoding: 9674 9674 585
Width: 922
Flags: W
LayerCount: 2
Fore
SplineSet
501 1287 m 1
 834 709 l 1
 501 135 l 1
 411 135 l 1
 89 709 l 1
 411 1287 l 1
 501 1287 l 1
458 1059 m 1
 261 710 l 1
 458 361 l 1
 657 710 l 1
 458 1059 l 1
EndSplineSet
Validated: 3073
EndChar

StartChar: whitecircle
Encoding: 9675 9675 586
Width: 922
Flags: W
HStem: 221 150<334.35 586.595> 784 150<333.91 587.132>
VStem: 104 150<452.439 703.668> 668 150<451.815 701.975>
LayerCount: 2
Fore
SplineSet
461 934 m 0
 663 934 818 770 818 578 c 0
 818 377 658 221 461 221 c 0
 258 221 104 381 104 578 c 0
 104 763 251 934 461 934 c 0
461 784 m 0
 341 784 254 688 254 578 c 0
 254 453 355 371 461 371 c 256
 577 371 668 463 668 578 c 0
 668 683 584 784 461 784 c 0
EndSplineSet
Validated: 3073
EndChar

StartChar: blackcircle
Encoding: 9679 9679 587
Width: 922
Flags: W
HStem: 221 713<292.824 631.094>
VStem: 104 714<407.906 745.646>
LayerCount: 2
Fore
SplineSet
461 934 m 0
 663 934 818 770 818 578 c 0
 818 377 658 221 461 221 c 0
 258 221 104 381 104 578 c 0
 104 763 251 934 461 934 c 0
EndSplineSet
Validated: 3073
EndChar

StartChar: bulletinverse
Encoding: 9688 9688 588
Width: 922
Flags: W
HStem: 93 233<349.866 570.042> 654 233<348.321 570.836>
VStem: 63 234<377.577 601.629> 624 233<379.561 603.315>
LayerCount: 2
Fore
SplineSet
63 93 m 1
 63 887 l 1
 857 887 l 1
 857 93 l 1
 63 93 l 1
460 654 m 256
 372 654 297 584 297 490 c 0
 297 394 376 326 460 326 c 0
 550 326 624 399 624 490 c 0
 624 581 552 654 460 654 c 256
EndSplineSet
Validated: 3073
EndChar

StartChar: whitecircleinverse
Encoding: 9689 9689 589
Width: 922
Flags: W
HStem: 110 111<289.809 635.959> 371 413<335.607 588.433> 934 111<293.797 632.866>
VStem: 0 105<406.695 749.753> 255 413<448.029 702.431> 818 104<402.264 747.094>
CounterMasks: 1 e0
LayerCount: 2
Fore
SplineSet
0 110 m 1
 0 1045 l 1
 922 1045 l 1
 922 110 l 1
 0 110 l 1
461 934 m 0
 270 934 105 780 105 577 c 0
 105 379 261 221 461 221 c 0
 652 221 818 369 818 577 c 0
 818 774 662 934 461 934 c 0
462 784 m 0
 577 784 668 691 668 577 c 0
 668 459 574 371 462 371 c 0
 349 371 255 459 255 577 c 0
 255 695 351 784 462 784 c 0
EndSplineSet
Validated: 3073
EndChar

StartChar: whitebullet
Encoding: 9702 9702 590
Width: 922
Flags: W
HStem: 406 113<368.896 552.757> 754 113<368.685 552.223>
VStem: 230 113<545.062 727.979> 579 112<546.84 727.446>
LayerCount: 2
Fore
SplineSet
691 637 m 0
 691 499 580 406 460 406 c 256
 333 406 230 507 230 637 c 0
 230 765 332 867 460 867 c 0
 591 867 691 764 691 637 c 0
579 637 m 0
 579 705 524 754 460 754 c 256
 399 754 343 707 343 637 c 0
 343 566 399 519 460 519 c 256
 526 519 579 571 579 637 c 0
EndSplineSet
Validated: 3073
EndChar

StartChar: smileface
Encoding: 9786 9786 591
Width: 922
Flags: W
HStem: 124 126<298.564 622.839> 338 54<371.617 548.201> 608 114<255.697 366.296 555.643 665.674> 919 126<293.127 624.394>
VStem: -0 127<417.754 749.129> 254 114<609.589 720.417> 554 113<609.487 720.519> 795 126<419.528 752.828>
LayerCount: 2
Fore
SplineSet
921 584 m 0
 921 327 719 124 460 124 c 0
 202 124 0 329 -0 584 c 0
 0 850 212 1045 460 1045 c 0
 719 1045 921 841 921 584 c 0
795 584 m 0
 795 771 649 919 460 919 c 0
 272 919 127 770 127 584 c 0
 127 390 282 250 460 250 c 0
 642 250 795 392 795 584 c 0
368 666 m 256
 368 634 343 608 310 608 c 256
 278 608 254 636 254 666 c 256
 254 694 277 722 310 722 c 256
 344 722 368 695 368 666 c 256
667 666 m 256
 667 634 644 608 612 608 c 256
 578 608 554 634 554 666 c 256
 554 696 577 722 612 722 c 256
 644 722 667 696 667 666 c 256
280 458 m 1
 319 480 l 1
 351 422 398 392 460 392 c 256
 523 392 570 422 602 480 c 1
 641 458 l 1
 600 378 539 338 460 338 c 0
 363 338 310 401 280 458 c 1
EndSplineSet
Validated: 3073
EndChar

StartChar: invsmileface
Encoding: 9787 9787 592
Width: 922
Flags: W
HStem: 124 171<330.15 591.942> 738 307<261.901 661.515>
VStem: -0 226<494.273 736.313> 343 236<622.894 736.048> 695 226<493.852 734.781>
LayerCount: 2
Fore
SplineSet
921 584 m 0
 921 327 719 124 460 124 c 0
 202 124 0 329 -0 584 c 0
 0 850 212 1045 460 1045 c 0
 719 1045 921 841 921 584 c 0
343 680 m 256
 343 710 318 738 284 738 c 256
 250 738 226 709 226 680 c 256
 226 650 251 621 284 621 c 256
 317 621 343 648 343 680 c 256
695 680 m 256
 695 711 672 738 638 738 c 256
 603 738 579 711 579 680 c 256
 579 648 604 621 638 621 c 256
 671 621 695 648 695 680 c 256
248 436 m 1
 283 369 346 295 460 295 c 0
 575 295 637 368 673 436 c 1
 627 462 l 1
 589 393 534 358 460 358 c 256
 387 358 332 393 294 462 c 1
 248 436 l 1
EndSplineSet
Validated: 3073
EndChar

StartChar: compass
Encoding: 9788 9788 593
Width: 922
Flags: W
HStem: 448 46<0 162 760 922> 722 47<486 563.283>
VStem: 162 48<494 578.675> 436 50<10 176.035 769 932> 710 50<492 580.419>
LayerCount: 2
Fore
SplineSet
436 932 m 1
 486 932 l 1
 486 769 l 1
 555 769 606 738 654 701 c 1
 795 838 l 1
 828 804 l 1
 690 665 l 1
 734 607 760 549 760 492 c 1
 922 492 l 1
 922 448 l 1
 760 448 l 1
 753 388 730 330 691 280 c 1
 828 137 l 1
 793 105 l 1
 654 242 l 1
 598 200 556 181 486 173 c 1
 486 10 l 1
 436 10 l 1
 436 173 l 1
 373 182 318 205 269 240 c 1
 127 106 l 1
 95 139 l 1
 232 278 l 1
 192 329 169 385 162 448 c 1
 -0 448 l 1
 -0 494 l 1
 162 494 l 1
 162 558 191 614 231 663 c 1
 95 802 l 1
 125 839 l 1
 268 702 l 1
 325 741 382 763 436 769 c 1
 436 932 l 1
460 722 m 256
 316 722 210 607 210 471 c 0
 210 332 318 221 460 221 c 256
 604 221 710 335 710 471 c 0
 710 611 599 722 460 722 c 256
EndSplineSet
Validated: 3073
EndChar

StartChar: female
Encoding: 9792 9792 594
Width: 922
Flags: W
HStem: 343 69<175 426 499 747> 577 81<346.207 426 499 579.178> 1069 84<343.449 581.435>
VStem: 183 79<741.948 982.372> 426 73<80 343 412 583.449> 661 80<741.559 986.112>
LayerCount: 2
Fore
SplineSet
426 577 m 1
 287 597 183 715 183 862 c 0
 183 1037 317 1153 462 1153 c 0
 608 1153 741 1035 741 862 c 0
 741 704 628 594 499 577 c 1
 499 412 l 1
 747 412 l 1
 747 343 l 1
 499 343 l 1
 499 80 l 1
 426 80 l 1
 426 343 l 1
 175 343 l 1
 175 412 l 1
 426 412 l 1
 426 577 l 1
461 1069 m 0
 351 1069 262 979 262 864 c 256
 262 747 352 658 461 658 c 256
 568 658 661 744 661 864 c 256
 661 983 569 1069 461 1069 c 0
EndSplineSet
Validated: 3073
EndChar

StartChar: male
Encoding: 9794 9794 595
Width: 922
Flags: W
HStem: 250 75<211.388 439.888> 750 75<207.521 441.935>
VStem: 42 76<417.863 660.889> 531 75<414.96 660.222>
LayerCount: 2
Fore
SplineSet
474 782 m 1
 725 1043 l 1
 673 1069 516 1124 516 1129 c 1
 537 1153 l 9
 864 1153 l 0
 880 1138 l 0
 880 793 l 273
 857 772 l 1
 852 772 795 945 771 996 c 1
 525 740 l 1
 579 686 606 622 606 548 c 0
 606 378 478 250 323 250 c 256
 162 250 42 381 42 535 c 0
 42 694 164 825 325 825 c 0
 371 825 420 811 474 782 c 1
325 750 m 0
 209 750 118 657 118 538 c 256
 118 415 216 325 325 325 c 256
 431 325 531 408 531 538 c 0
 531 663 434 750 325 750 c 0
EndSplineSet
Validated: 3073
EndChar

StartChar: spade
Encoding: 9824 9824 596
Width: 922
Flags: W
HStem: 152 28<168 272.283 656.397 754>
VStem: 456 14<417.894 503>
LayerCount: 2
Fore
SplineSet
461 1079 m 1
 532 784 826 737 826 527 c 0
 826 428 751 359 662 359 c 0
 584 359 520 407 470 503 c 1
 470 244 613 180 754 180 c 1
 759 152 l 1
 162 152 l 1
 168 180 l 1
 399 180 456 334 456 503 c 1
 409 401 338 359 260 359 c 0
 170 359 95 432 95 524 c 0
 95 746 393 770 461 1079 c 1
EndSplineSet
Validated: 3073
EndChar

StartChar: club
Encoding: 9827 9827 597
Width: 922
Flags: W
HStem: 151 25<150 211.374 718.551 773> 355 416<78.7852 299.617 619.973 842.203>
VStem: 252 415<744.613 993.475> 453 15<445.978 533>
LayerCount: 2
Fore
SplineSet
779 151 m 1xd0
 145 151 l 1
 150 176 l 1
 170 180 453 204 453 498 c 0
 453 506 453 517 453 533 c 1xd0
 397 418 305 355 207 355 c 0
 101 355 0 434 -0 564 c 0
 0 700 103 771 179 771 c 0
 210 771 251 758 302 732 c 1
 260 802 252 827 252 869 c 0
 252 980 336 1071 459 1071 c 0
 579 1071 667 981 667 871 c 0xe0
 667 826 650 780 615 732 c 1
 686 765 696 771 737 771 c 0
 835 771 922 687 922 567 c 0
 922 444 827 355 717 355 c 0
 561 355 483 508 468 533 c 1
 468 244 629 205 773 176 c 1
 779 151 l 1xd0
EndSplineSet
Validated: 3073
EndChar

StartChar: heart
Encoding: 9829 9829 598
Width: 922
Flags: W
LayerCount: 2
Fore
SplineSet
463 122 m 1
 381 425 79 615 79 816 c 0
 79 925 159 999 260 999 c 0
 341 999 418 954 463 824 c 1
 499 954 583 1000 661 1000 c 0
 767 1000 842 917 842 825 c 0
 842 592 542 425 463 122 c 1
EndSplineSet
Validated: 3073
EndChar

StartChar: diamond
Encoding: 9830 9830 599
Width: 922
Flags: W
LayerCount: 2
Fore
SplineSet
460 1068 m 1
 535 891 675 714 805 600 c 1
 696 516 544 314 460 130 c 1
 392 284 228 516 118 600 c 1
 249 714 363 864 460 1068 c 1
EndSplineSet
Validated: 3073
EndChar

StartChar: musicalnote
Encoding: 9834 9834 600
Width: 922
Flags: W
HStem: 136 237<235.221 404.122> 1026 20G<419 480>
VStem: 419 61<358 768 964 1046> 626 67<402.819 670.969>
LayerCount: 2
Fore
SplineSet
419 358 m 1
 419 1046 l 1
 480 1046 l 1
 480 964 l 1
 605 810 l 2
 650 746 693 655 693 552 c 0
 693 469 667 396 616 333 c 1
 578 333 l 1
 610 403 626 470 626 534 c 256
 626 674 543 758 480 768 c 1
 480 358 l 2
 480 226 394 136 276 136 c 0
 217 136 183 163 183 216 c 0
 183 296 253 373 346 373 c 0
 368 373 392 369 419 358 c 1
EndSplineSet
Validated: 3073
EndChar

StartChar: musicalnotedbl
Encoding: 9835 9835 601
Width: 922
Flags: W
HStem: 71 235<87.9738 255.579> 147 235<593.354 761.757> 1025 20G<760.793 839>
VStem: 272 61<292 611 714 807> 779 60<368 732 835 928>
LayerCount: 2
Fore
SplineSet
839 368 m 2xb8
 839 223 740 147 636 147 c 0
 558 147 543 195 543 227 c 0
 543 307 612 382 706 382 c 0x78
 733 382 757 376 779 368 c 1
 779 732 l 1
 333 611 l 1
 333 292 l 2
 333 147 234 71 129 71 c 0
 51 71 36 119 36 151 c 0
 36 230 105 306 200 306 c 0
 227 306 253 301 272 292 c 1
 272 900 l 1
 839 1045 l 1
 839 368 l 2xb8
333 714 m 1
 779 835 l 1
 779 928 l 1
 333 807 l 1
 333 714 l 1
EndSplineSet
Validated: 3073
EndChar

StartChar: arrowboth
Encoding: 8596 8596 602
Width: 922
VWidth: 1708
Flags: W
HStem: 520 160<228 694>
LayerCount: 2
Fore
SplineSet
922 536 m 1
 611 187 l 1
 491 293 l 1
 694 520 l 1
 228 520 l 1
 431 293 l 1
 311 187 l 1
 -0 536 l 1
 -0 664 l 1
 311 1013 l 1
 431 907 l 1
 228 680 l 1
 694 680 l 1
 491 907 l 1
 611 1013 l 1
 922 664 l 1
 922 536 l 1
EndSplineSet
Validated: 3073
EndChar

StartChar: arrowbothv
Encoding: 8597 8597 603
Width: 922
VWidth: 1708
Flags: W
VStem: 381 160<336 864>
LayerCount: 2
Fore
SplineSet
400 87 m 1
 44 454 l 1
 158 566 l 1
 381 336 l 1
 381 864 l 1
 158 634 l 1
 44 746 l 1
 400 1113 l 1
 522 1113 l 1
 878 746 l 1
 764 634 l 1
 541 864 l 1
 541 336 l 1
 764 566 l 1
 878 454 l 1
 522 87 l 1
 400 87 l 1
EndSplineSet
Validated: 3073
EndChar

StartChar: updownarrowbar
Encoding: 8616 8616 604
Width: 922
VWidth: 1708
Flags: W
HStem: -22 160<50 350 572 872>
VStem: 381 160<336 864>
LayerCount: 2
Fore
SplineSet
872 138 m 1
 872 -22 l 1
 50 -22 l 1
 50 138 l 1
 350 138 l 1
 44 454 l 1
 158 566 l 1
 381 336 l 1
 381 864 l 1
 158 634 l 1
 44 746 l 1
 400 1113 l 1
 522 1113 l 1
 878 746 l 1
 764 634 l 1
 541 864 l 1
 541 336 l 1
 764 566 l 1
 878 454 l 1
 572 138 l 1
 872 138 l 1
EndSplineSet
Validated: 3073
EndChar

StartChar: nsuperior
Encoding: 8319 8319 605
Width: 922
VWidth: 1947
Flags: W
HStem: 1274 150<379.967 586.067>
VStem: 159 150<544 1187.32 1367 1424> 613 150<544 1247.72>
LayerCount: 2
Fore
SplineSet
453 1274 m 2
 363 1274 309 1100 309 1024 c 2
 309 544 l 1
 159 544 l 1
 159 1424 l 1
 309 1424 l 1
 309 1367 l 1
 352 1413 390 1424 453 1424 c 2
 469 1424 l 2
 762 1424 763 1211 763 1135 c 2
 763 544 l 1
 613 544 l 1
 613 1135 l 2
 613 1210 591 1274 469 1274 c 2
 453 1274 l 2
EndSplineSet
Validated: 3073
EndChar

StartChar: radical
Encoding: 8730 8730 606
Width: 922
VWidth: 1708
Flags: W
HStem: -25 21G<435.731 585.667> 905 150<48 196>
LayerCount: 2
Fore
SplineSet
441 -25 m 1
 196 905 l 1
 48 905 l 1
 48 1055 l 1
 312 1055 l 1
 498 349 l 1
 733 1633 l 1
 886 1633 l 1
 582 -25 l 1
 441 -25 l 1
EndSplineSet
Validated: 3073
EndChar

StartChar: intersection
Encoding: 8745 8745 608
Width: 922
Flags: W
HStem: -0 21G<107 257 665 815> 1290 150<340.396 582.378>
VStem: 107 150<0 1196.62> 665 150<0 1198.26>
LayerCount: 2
Fore
SplineSet
107 1063 m 2
 107 1260 259 1440 452 1440 c 2
 470 1440 l 2
 665 1440 815 1264 815 1063 c 2
 815 -0 l 1
 665 0 l 1
 665 1063 l 2
 665 1182 580 1290 470 1290 c 2
 452 1290 l 2
 343 1290 257 1178 257 1063 c 2
 257 0 l 1
 107 -0 l 1
 107 1063 l 2
EndSplineSet
Validated: 3073
EndChar

StartChar: infinity
Encoding: 8734 8734 609
Width: 922
Flags: W
HStem: 317 150<199.695 355.4 566.479 717.87> 768 150<203.809 352.543 571.345 721.791>
VStem: 21 150<491.158 736.99> 386 150<493.865 736.359> 751 150<495.364 744.318>
CounterMasks: 1 38
LayerCount: 2
Fore
SplineSet
536 618 m 3
 536 555 566 467 646 467 c 3
 714 467 751 546 751 622 c 3
 751 696 717 768 646 768 c 3
 576 768 536 678 536 618 c 3
21 618 m 3
 21 768 111 918 276 918 c 3
 356 918 418 881 462 828 c 1
 507 882 570 918 646 918 c 3
 799 918 901 788 901 618 c 3
 901 488 824 317 646 317 c 3
 566 317 504 350 461 401 c 1
 418 350 355 317 276 317 c 27
 122 317 21 464 21 618 c 3
171 618 m 27
 171 546 199 467 276 467 c 3
 352 467 386 547 386 618 c 3
 386 680 349 768 276 768 c 3
 213 768 171 689 171 618 c 27
EndSplineSet
Validated: 3073
EndChar

